<svg width="234" height="52" viewBox="0 0 234 52" fill="none" xmlns="http://www.w3.org/2000/svg">
<rect width="234" height="45" rx="8" fill="#6366F1"/>
<path d="M59.877 29.2988C60.7793 29.2988 61.5879 29.1406 62.3027 28.8242C63.0234 28.502 63.6182 28.0566 64.0869 27.4883C64.5557 26.9141 64.8604 26.2402 65.001 25.4668V25.4404H63.4014L63.3838 25.4668C63.2549 25.9531 63.0264 26.375 62.6982 26.7324C62.3701 27.0898 61.9658 27.3652 61.4854 27.5586C61.0049 27.7461 60.4688 27.8398 59.877 27.8398C59.0625 27.8398 58.3564 27.6289 57.7588 27.207C57.1611 26.7852 56.7012 26.1875 56.3789 25.4141C56.0566 24.6406 55.8955 23.7266 55.8955 22.6719V22.6543C55.8955 21.5938 56.0566 20.6768 56.3789 19.9033C56.7012 19.1299 57.1611 18.5322 57.7588 18.1104C58.3564 17.6885 59.0596 17.4775 59.8682 17.4775C60.4541 17.4775 60.9844 17.5859 61.459 17.8027C61.9395 18.0195 62.3467 18.3271 62.6807 18.7256C63.0146 19.1182 63.252 19.584 63.3926 20.123L63.4014 20.1494H64.9922L65.001 20.1318C64.8779 19.3232 64.5791 18.6113 64.1045 17.9961C63.6299 17.375 63.0264 16.8916 62.2939 16.5459C61.5674 16.1943 60.7588 16.0186 59.8682 16.0186C58.7197 16.0186 57.7266 16.2881 56.8887 16.8271C56.0508 17.3662 55.4033 18.1309 54.9463 19.1211C54.4951 20.1113 54.2695 21.2891 54.2695 22.6543V22.6719C54.2695 24.0312 54.4951 25.2061 54.9463 26.1963C55.4033 27.1865 56.0508 27.9512 56.8887 28.4902C57.7324 29.0293 58.7285 29.2988 59.877 29.2988ZM67.4355 29H68.9648V23.1377C68.9648 22.6748 69.0703 22.2705 69.2812 21.9248C69.4922 21.5791 69.7822 21.3125 70.1514 21.125C70.5264 20.9316 70.9541 20.835 71.4346 20.835C71.6045 20.835 71.7627 20.8438 71.9092 20.8613C72.0615 20.873 72.2139 20.8936 72.3662 20.9229V19.4375C72.2959 19.4258 72.1875 19.4141 72.041 19.4023C71.9004 19.3848 71.7568 19.376 71.6104 19.376C70.9775 19.376 70.4443 19.5137 70.0107 19.7891C69.583 20.0645 69.2783 20.4512 69.0967 20.9492H68.9648V19.543H67.4355V29ZM77.833 29.167C78.3896 29.167 78.8906 29.0967 79.3359 28.9561C79.7812 28.8096 80.168 28.6162 80.4961 28.376C80.8301 28.1299 81.0996 27.8574 81.3047 27.5586C81.5156 27.2539 81.6621 26.9375 81.7441 26.6094L81.7617 26.5391H80.2324L80.1973 26.6182C80.1152 26.8115 79.9717 26.999 79.7666 27.1807C79.5615 27.3623 79.3008 27.5117 78.9844 27.6289C78.668 27.7461 78.2959 27.8047 77.8682 27.8047C77.2939 27.8047 76.7959 27.6787 76.374 27.4268C75.958 27.1689 75.6357 26.8027 75.4072 26.3281C75.1787 25.8535 75.0645 25.2793 75.0645 24.6055V23.999C75.0645 23.29 75.1816 22.6924 75.416 22.2061C75.6504 21.7197 75.9668 21.3535 76.3652 21.1074C76.7637 20.8613 77.2178 20.7383 77.7275 20.7383C78.2373 20.7383 78.6885 20.8555 79.0811 21.0898C79.4736 21.3242 79.7812 21.6816 80.0039 22.1621C80.2266 22.6426 80.3379 23.2549 80.3379 23.999V24.6055L81.0938 23.4893H74.291V24.7109H81.876V24.1133C81.876 23.1699 81.709 22.3438 81.375 21.6348C81.0469 20.9199 80.5723 20.3662 79.9512 19.9736C79.3359 19.5752 78.5977 19.376 77.7363 19.376C76.8809 19.376 76.1338 19.584 75.4951 20C74.8623 20.4102 74.3701 20.9844 74.0186 21.7227C73.6729 22.4609 73.5 23.3193 73.5 24.2979V24.3066C73.5 25.2969 73.6729 26.1553 74.0186 26.8818C74.3701 27.6084 74.8682 28.1709 75.5127 28.5693C76.1572 28.9678 76.9307 29.167 77.833 29.167ZM86.8242 29.167C87.252 29.167 87.6445 29.1084 88.002 28.9912C88.3594 28.8682 88.6787 28.6895 88.96 28.4551C89.2471 28.2207 89.4902 27.9365 89.6895 27.6025H89.8301V29H91.3594V22.5225C91.3594 21.8662 91.2188 21.3037 90.9375 20.835C90.6562 20.3662 90.249 20.0059 89.7158 19.7539C89.1826 19.502 88.5293 19.376 87.7559 19.376C87.082 19.376 86.4814 19.4814 85.9541 19.6924C85.4268 19.8975 84.9961 20.1875 84.6621 20.5625C84.334 20.9375 84.1318 21.374 84.0557 21.8721L84.0469 21.9248H85.5674L85.5762 21.8984C85.6992 21.5234 85.9424 21.2363 86.3057 21.0371C86.6689 20.832 87.1348 20.7295 87.7031 20.7295C88.4121 20.7295 88.9424 20.8848 89.2939 21.1953C89.6514 21.5 89.8301 21.9453 89.8301 22.5312V25.4668C89.8301 25.918 89.7129 26.3223 89.4785 26.6797C89.25 27.0371 88.9336 27.3213 88.5293 27.5322C88.125 27.7373 87.6621 27.8398 87.1406 27.8398C86.5898 27.8398 86.1328 27.708 85.7695 27.4443C85.4121 27.1748 85.2334 26.7998 85.2334 26.3193V26.3018C85.2334 25.8389 85.3975 25.4785 85.7256 25.2207C86.0596 24.9629 86.584 24.8135 87.2988 24.7725L90.5947 24.5615V23.3398L87.1143 23.5508C86.0127 23.6152 85.1631 23.8877 84.5654 24.3682C83.9678 24.8428 83.6689 25.499 83.6689 26.3369V26.3545C83.6689 26.9287 83.8066 27.4268 84.082 27.8486C84.3574 28.2705 84.7324 28.5957 85.207 28.8242C85.6875 29.0527 86.2266 29.167 86.8242 29.167ZM97.4678 29.0791C97.6201 29.0791 97.7695 29.0703 97.916 29.0527C98.0625 29.0352 98.2061 29.0146 98.3467 28.9912V27.6904C98.2119 27.7021 98.0947 27.7109 97.9951 27.7168C97.9014 27.7227 97.7871 27.7256 97.6523 27.7256C97.166 27.7256 96.8174 27.6055 96.6064 27.3652C96.3955 27.125 96.29 26.7295 96.29 26.1787V20.8086H98.3467V19.543H96.29V17.0908H94.708V19.543H93.2227V20.8086H94.708V26.5479C94.708 27.4443 94.9248 28.0918 95.3584 28.4902C95.7979 28.8828 96.501 29.0791 97.4678 29.0791ZM104.323 29.167C104.88 29.167 105.381 29.0967 105.826 28.9561C106.271 28.8096 106.658 28.6162 106.986 28.376C107.32 28.1299 107.59 27.8574 107.795 27.5586C108.006 27.2539 108.152 26.9375 108.234 26.6094L108.252 26.5391H106.723L106.688 26.6182C106.605 26.8115 106.462 26.999 106.257 27.1807C106.052 27.3623 105.791 27.5117 105.475 27.6289C105.158 27.7461 104.786 27.8047 104.358 27.8047C103.784 27.8047 103.286 27.6787 102.864 27.4268C102.448 27.1689 102.126 26.8027 101.897 26.3281C101.669 25.8535 101.555 25.2793 101.555 24.6055V23.999C101.555 23.29 101.672 22.6924 101.906 22.2061C102.141 21.7197 102.457 21.3535 102.855 21.1074C103.254 20.8613 103.708 20.7383 104.218 20.7383C104.728 20.7383 105.179 20.8555 105.571 21.0898C105.964 21.3242 106.271 21.6816 106.494 22.1621C106.717 22.6426 106.828 23.2549 106.828 23.999V24.6055L107.584 23.4893H100.781V24.7109H108.366V24.1133C108.366 23.1699 108.199 22.3438 107.865 21.6348C107.537 20.9199 107.062 20.3662 106.441 19.9736C105.826 19.5752 105.088 19.376 104.227 19.376C103.371 19.376 102.624 19.584 101.985 20C101.353 20.4102 100.86 20.9844 100.509 21.7227C100.163 22.4609 99.9902 23.3193 99.9902 24.2979V24.3066C99.9902 25.2969 100.163 26.1553 100.509 26.8818C100.86 27.6084 101.358 28.1709 102.003 28.5693C102.647 28.9678 103.421 29.167 104.323 29.167ZM118.324 29.167C118.752 29.167 119.145 29.1084 119.502 28.9912C119.859 28.8682 120.179 28.6895 120.46 28.4551C120.747 28.2207 120.99 27.9365 121.189 27.6025H121.33V29H122.859V22.5225C122.859 21.8662 122.719 21.3037 122.438 20.835C122.156 20.3662 121.749 20.0059 121.216 19.7539C120.683 19.502 120.029 19.376 119.256 19.376C118.582 19.376 117.981 19.4814 117.454 19.6924C116.927 19.8975 116.496 20.1875 116.162 20.5625C115.834 20.9375 115.632 21.374 115.556 21.8721L115.547 21.9248H117.067L117.076 21.8984C117.199 21.5234 117.442 21.2363 117.806 21.0371C118.169 20.832 118.635 20.7295 119.203 20.7295C119.912 20.7295 120.442 20.8848 120.794 21.1953C121.151 21.5 121.33 21.9453 121.33 22.5312V25.4668C121.33 25.918 121.213 26.3223 120.979 26.6797C120.75 27.0371 120.434 27.3213 120.029 27.5322C119.625 27.7373 119.162 27.8398 118.641 27.8398C118.09 27.8398 117.633 27.708 117.27 27.4443C116.912 27.1748 116.733 26.7998 116.733 26.3193V26.3018C116.733 25.8389 116.897 25.4785 117.226 25.2207C117.56 24.9629 118.084 24.8135 118.799 24.7725L122.095 24.5615V23.3398L118.614 23.5508C117.513 23.6152 116.663 23.8877 116.065 24.3682C115.468 24.8428 115.169 25.499 115.169 26.3369V26.3545C115.169 26.9287 115.307 27.4268 115.582 27.8486C115.857 28.2705 116.232 28.5957 116.707 28.8242C117.188 29.0527 117.727 29.167 118.324 29.167ZM130.629 29H132.158V23.4014C132.158 22.8447 132.258 22.3701 132.457 21.9775C132.662 21.5791 132.949 21.2715 133.318 21.0547C133.688 20.8379 134.121 20.7295 134.619 20.7295C135.375 20.7295 135.932 20.9346 136.289 21.3447C136.652 21.7549 136.834 22.3877 136.834 23.2432V29H138.363V22.874C138.363 21.7549 138.076 20.8936 137.502 20.29C136.934 19.6807 136.119 19.376 135.059 19.376C134.361 19.376 133.784 19.5166 133.327 19.7979C132.876 20.0732 132.53 20.46 132.29 20.958H132.158V19.543H130.629V29ZM144.946 29.167C145.503 29.167 146.004 29.0967 146.449 28.9561C146.895 28.8096 147.281 28.6162 147.609 28.376C147.943 28.1299 148.213 27.8574 148.418 27.5586C148.629 27.2539 148.775 26.9375 148.857 26.6094L148.875 26.5391H147.346L147.311 26.6182C147.229 26.8115 147.085 26.999 146.88 27.1807C146.675 27.3623 146.414 27.5117 146.098 27.6289C145.781 27.7461 145.409 27.8047 144.981 27.8047C144.407 27.8047 143.909 27.6787 143.487 27.4268C143.071 27.1689 142.749 26.8027 142.521 26.3281C142.292 25.8535 142.178 25.2793 142.178 24.6055V23.999C142.178 23.29 142.295 22.6924 142.529 22.2061C142.764 21.7197 143.08 21.3535 143.479 21.1074C143.877 20.8613 144.331 20.7383 144.841 20.7383C145.351 20.7383 145.802 20.8555 146.194 21.0898C146.587 21.3242 146.895 21.6816 147.117 22.1621C147.34 22.6426 147.451 23.2549 147.451 23.999V24.6055L148.207 23.4893H141.404V24.7109H148.989V24.1133C148.989 23.1699 148.822 22.3438 148.488 21.6348C148.16 20.9199 147.686 20.3662 147.064 19.9736C146.449 19.5752 145.711 19.376 144.85 19.376C143.994 19.376 143.247 19.584 142.608 20C141.976 20.4102 141.483 20.9844 141.132 21.7227C140.786 22.4609 140.613 23.3193 140.613 24.2979V24.3066C140.613 25.2969 140.786 26.1553 141.132 26.8818C141.483 27.6084 141.981 28.1709 142.626 28.5693C143.271 28.9678 144.044 29.167 144.946 29.167ZM153.164 29H154.693L156.803 21.6787H156.935L159.053 29H160.591L163.236 19.543H161.716L159.861 27.1104H159.721L157.603 19.543H156.152L154.034 27.1104H153.902L152.039 19.543H150.51L153.164 29ZM170.25 32.1641H171.779V27.5059H171.911C172.087 27.8457 172.321 28.1387 172.614 28.3848C172.913 28.6309 173.253 28.8242 173.634 28.9648C174.021 29.0996 174.431 29.167 174.864 29.167C175.667 29.167 176.364 28.9648 176.956 28.5605C177.554 28.1562 178.017 27.5908 178.345 26.8643C178.673 26.1318 178.837 25.2705 178.837 24.2803V24.2627C178.837 23.2783 178.673 22.4199 178.345 21.6875C178.017 20.9551 177.554 20.3867 176.956 19.9824C176.364 19.5781 175.667 19.376 174.864 19.376C174.425 19.376 174.018 19.4434 173.643 19.5781C173.268 19.7129 172.934 19.9062 172.641 20.1582C172.348 20.4043 172.104 20.7031 171.911 21.0547H171.779V19.543H170.25V32.1641ZM174.513 27.8135C173.944 27.8135 173.452 27.6699 173.036 27.3828C172.62 27.0957 172.301 26.6885 172.078 26.1611C171.855 25.6279 171.744 25.001 171.744 24.2803V24.2627C171.744 23.5303 171.855 22.9033 172.078 22.3818C172.301 21.8545 172.62 21.4473 173.036 21.1602C173.452 20.873 173.944 20.7295 174.513 20.7295C175.093 20.7295 175.588 20.8701 175.998 21.1514C176.408 21.4326 176.722 21.8369 176.938 22.3643C177.161 22.8916 177.272 23.5244 177.272 24.2627V24.2803C177.272 25.0127 177.161 25.6426 176.938 26.1699C176.722 26.6973 176.408 27.1045 175.998 27.3916C175.588 27.6729 175.093 27.8135 174.513 27.8135ZM183.785 29.167C184.213 29.167 184.605 29.1084 184.963 28.9912C185.32 28.8682 185.64 28.6895 185.921 28.4551C186.208 28.2207 186.451 27.9365 186.65 27.6025H186.791V29H188.32V22.5225C188.32 21.8662 188.18 21.3037 187.898 20.835C187.617 20.3662 187.21 20.0059 186.677 19.7539C186.144 19.502 185.49 19.376 184.717 19.376C184.043 19.376 183.442 19.4814 182.915 19.6924C182.388 19.8975 181.957 20.1875 181.623 20.5625C181.295 20.9375 181.093 21.374 181.017 21.8721L181.008 21.9248H182.528L182.537 21.8984C182.66 21.5234 182.903 21.2363 183.267 21.0371C183.63 20.832 184.096 20.7295 184.664 20.7295C185.373 20.7295 185.903 20.8848 186.255 21.1953C186.612 21.5 186.791 21.9453 186.791 22.5312V25.4668C186.791 25.918 186.674 26.3223 186.439 26.6797C186.211 27.0371 185.895 27.3213 185.49 27.5322C185.086 27.7373 184.623 27.8398 184.102 27.8398C183.551 27.8398 183.094 27.708 182.73 27.4443C182.373 27.1748 182.194 26.7998 182.194 26.3193V26.3018C182.194 25.8389 182.358 25.4785 182.687 25.2207C183.021 24.9629 183.545 24.8135 184.26 24.7725L187.556 24.5615V23.3398L184.075 23.5508C182.974 23.6152 182.124 23.8877 181.526 24.3682C180.929 24.8428 180.63 25.499 180.63 26.3369V26.3545C180.63 26.9287 180.768 27.4268 181.043 27.8486C181.318 28.2705 181.693 28.5957 182.168 28.8242C182.648 29.0527 183.188 29.167 183.785 29.167ZM194.982 32.3398C195.838 32.3398 196.582 32.1963 197.215 31.9092C197.848 31.6221 198.334 31.2178 198.674 30.6963C199.02 30.1748 199.192 29.5625 199.192 28.8594V19.543H197.663V21.1074H197.558C197.364 20.75 197.121 20.4424 196.828 20.1846C196.541 19.9268 196.21 19.7275 195.835 19.5869C195.46 19.4463 195.05 19.376 194.604 19.376C193.784 19.376 193.075 19.5752 192.478 19.9736C191.88 20.3662 191.417 20.9082 191.089 21.5996C190.767 22.2852 190.605 23.0703 190.605 23.9551V23.9727C190.605 24.8633 190.767 25.6514 191.089 26.3369C191.411 27.0225 191.868 27.5615 192.46 27.9541C193.058 28.3408 193.761 28.5342 194.569 28.5342C195.003 28.5342 195.407 28.4727 195.782 28.3496C196.157 28.2207 196.494 28.0332 196.793 27.7871C197.092 27.541 197.341 27.2451 197.54 26.8994H197.681V28.7803C197.681 29.4775 197.44 30.0195 196.96 30.4062C196.485 30.793 195.826 30.9863 194.982 30.9863C194.303 30.9863 193.758 30.8691 193.348 30.6348C192.938 30.4062 192.688 30.1133 192.601 29.7559L192.592 29.7471H191.01L191.001 29.7559C191.083 30.2715 191.291 30.7227 191.625 31.1094C191.965 31.502 192.419 31.8037 192.987 32.0146C193.556 32.2314 194.221 32.3398 194.982 32.3398ZM194.903 27.1807C194.323 27.1807 193.828 27.0459 193.418 26.7764C193.014 26.501 192.703 26.123 192.486 25.6426C192.275 25.1621 192.17 24.6055 192.17 23.9727V23.9551C192.17 23.3281 192.275 22.7715 192.486 22.2852C192.703 21.7988 193.014 21.418 193.418 21.1426C193.828 20.8672 194.323 20.7295 194.903 20.7295C195.489 20.7295 195.99 20.8672 196.406 21.1426C196.822 21.418 197.142 21.7988 197.364 22.2852C197.593 22.7715 197.707 23.3281 197.707 23.9551V23.9727C197.707 24.6055 197.593 25.1621 197.364 25.6426C197.142 26.123 196.822 26.501 196.406 26.7764C195.99 27.0459 195.489 27.1807 194.903 27.1807ZM205.854 29.167C206.411 29.167 206.912 29.0967 207.357 28.9561C207.803 28.8096 208.189 28.6162 208.518 28.376C208.852 28.1299 209.121 27.8574 209.326 27.5586C209.537 27.2539 209.684 26.9375 209.766 26.6094L209.783 26.5391H208.254L208.219 26.6182C208.137 26.8115 207.993 26.999 207.788 27.1807C207.583 27.3623 207.322 27.5117 207.006 27.6289C206.689 27.7461 206.317 27.8047 205.89 27.8047C205.315 27.8047 204.817 27.6787 204.396 27.4268C203.979 27.1689 203.657 26.8027 203.429 26.3281C203.2 25.8535 203.086 25.2793 203.086 24.6055V23.999C203.086 23.29 203.203 22.6924 203.438 22.2061C203.672 21.7197 203.988 21.3535 204.387 21.1074C204.785 20.8613 205.239 20.7383 205.749 20.7383C206.259 20.7383 206.71 20.8555 207.103 21.0898C207.495 21.3242 207.803 21.6816 208.025 22.1621C208.248 22.6426 208.359 23.2549 208.359 23.999V24.6055L209.115 23.4893H202.312V24.7109H209.897V24.1133C209.897 23.1699 209.73 22.3438 209.396 21.6348C209.068 20.9199 208.594 20.3662 207.973 19.9736C207.357 19.5752 206.619 19.376 205.758 19.376C204.902 19.376 204.155 19.584 203.517 20C202.884 20.4102 202.392 20.9844 202.04 21.7227C201.694 22.4609 201.521 23.3193 201.521 24.2979V24.3066C201.521 25.2969 201.694 26.1553 202.04 26.8818C202.392 27.6084 202.89 28.1709 203.534 28.5693C204.179 28.9678 204.952 29.167 205.854 29.167Z" fill="white"/>
<path d="M41 24.2857H33.2857V32H30.7143V24.2857H23V21.7143H30.7143V14H33.2857V21.7143H41V24.2857Z" fill="white"/>
<path fill-rule="evenodd" clip-rule="evenodd" d="M150.997 45.4774C150.571 44.9706 150.054 43.9343 149.133 42.6765C148.611 41.9649 147.316 40.6252 146.931 39.9447C146.596 39.3433 146.632 39.0736 146.712 38.5753C146.853 37.6887 147.819 36.9983 148.849 37.0915C149.628 37.1607 150.288 37.6449 150.882 38.1023C151.24 38.3776 151.681 38.9127 151.947 39.2148C152.191 39.4915 152.251 39.6059 152.512 39.9334C152.857 40.3668 152.965 40.5814 152.833 40.1042C152.727 39.404 152.553 38.2082 152.301 37.1508C152.109 36.3489 152.062 36.2233 151.879 35.6078C151.686 34.9527 151.587 34.4939 151.405 33.7993C151.279 33.308 151.053 32.3042 150.991 31.7395C150.906 30.9673 150.861 29.708 151.387 29.1292C151.8 28.676 152.746 28.539 153.333 28.8186C154.101 29.1842 154.537 30.2346 154.737 30.6539C155.095 31.4078 155.317 32.2788 155.511 33.4223C155.757 34.8779 156.21 36.8981 156.225 37.323C156.261 36.8021 156.123 35.7052 156.219 35.2054C156.306 34.7522 156.711 34.2256 157.218 34.083C157.647 33.963 158.149 33.9193 158.592 34.0054C159.061 34.0958 159.556 34.412 159.741 34.7099C160.284 35.5908 160.294 37.3908 160.317 37.2948C160.446 36.764 160.423 35.5598 160.743 35.0586C160.953 34.7282 161.488 34.4303 161.773 34.3823C162.214 34.3089 162.756 34.2863 163.219 34.371C163.593 34.4402 164.098 34.8581 164.235 35.0586C164.562 35.5442 164.748 36.9179 164.803 37.3993C164.826 37.5983 164.914 36.8459 165.243 36.3602C165.852 35.4581 168.007 35.283 168.09 37.2623C168.127 38.1856 168.12 38.1433 168.12 38.7645C168.12 39.4943 168.102 39.9334 168.06 40.4614C168.013 41.0261 167.884 42.3023 167.697 42.9207C167.568 43.3456 167.14 44.3014 166.719 44.8746C166.719 44.8746 165.108 46.6393 164.932 47.4341C164.755 48.2275 164.814 48.2332 164.779 48.7965C164.745 49.3583 164.961 50.0981 164.961 50.0981C164.961 50.0981 163.758 50.2449 163.11 50.1475C162.523 50.0586 161.797 48.9602 161.61 48.6242C161.352 48.1612 160.801 48.2501 160.587 48.5918C160.249 49.1325 159.523 50.1023 159.01 50.1631C158.008 50.2816 155.929 50.2068 154.302 50.1913C154.302 50.1913 154.579 48.764 153.961 48.2741C153.504 47.9085 152.716 47.1673 152.245 46.7776L150.997 45.4774Z" fill="white"/>
<path fill-rule="evenodd" clip-rule="evenodd" d="M150.997 45.4774C150.571 44.9706 150.054 43.9343 149.133 42.6765C148.611 41.9649 147.316 40.6252 146.931 39.9447C146.596 39.3433 146.632 39.0736 146.712 38.5753C146.853 37.6887 147.819 36.9983 148.849 37.0915C149.628 37.1607 150.288 37.6449 150.882 38.1023C151.24 38.3776 151.681 38.9127 151.947 39.2148C152.191 39.4915 152.251 39.6059 152.512 39.9334C152.857 40.3668 152.965 40.5814 152.833 40.1042C152.727 39.404 152.553 38.2082 152.301 37.1508C152.109 36.3489 152.062 36.2233 151.879 35.6078C151.686 34.9527 151.587 34.4939 151.405 33.7993C151.279 33.308 151.053 32.3042 150.991 31.7395C150.906 30.9673 150.861 29.708 151.387 29.1292C151.8 28.676 152.746 28.539 153.333 28.8186C154.101 29.1842 154.537 30.2346 154.737 30.6539C155.095 31.4078 155.317 32.2788 155.511 33.4223C155.757 34.8779 156.21 36.8981 156.225 37.323C156.261 36.8021 156.123 35.7052 156.219 35.2054C156.306 34.7522 156.711 34.2256 157.218 34.083C157.647 33.963 158.149 33.9193 158.592 34.0054C159.061 34.0958 159.556 34.412 159.741 34.7099C160.284 35.5908 160.294 37.3908 160.317 37.2948C160.446 36.764 160.423 35.5598 160.743 35.0586C160.953 34.7282 161.488 34.4303 161.773 34.3823C162.214 34.3089 162.756 34.2863 163.219 34.371C163.593 34.4402 164.098 34.8581 164.235 35.0586C164.562 35.5442 164.748 36.9179 164.803 37.3993C164.826 37.5983 164.914 36.8459 165.243 36.3602C165.852 35.4581 168.007 35.283 168.09 37.2623C168.127 38.1856 168.12 38.1433 168.12 38.7645C168.12 39.4943 168.102 39.9334 168.06 40.4614C168.013 41.0261 167.884 42.3023 167.697 42.9207C167.568 43.3456 167.14 44.3014 166.719 44.8746C166.719 44.8746 165.108 46.6393 164.932 47.4341C164.755 48.2275 164.814 48.2332 164.779 48.7965C164.745 49.3583 164.961 50.0981 164.961 50.0981C164.961 50.0981 163.758 50.2449 163.11 50.1475C162.523 50.0586 161.797 48.9602 161.61 48.6242C161.352 48.1612 160.801 48.2501 160.587 48.5918C160.249 49.1325 159.523 50.1023 159.01 50.1631C158.008 50.2816 155.929 50.2068 154.302 50.1913C154.302 50.1913 154.579 48.764 153.961 48.2741C153.504 47.9085 152.716 47.1673 152.245 46.7776L150.997 45.4774Z" stroke="black" stroke-width="0.75" stroke-linecap="round" stroke-linejoin="round"/>
<path d="M163.35 45.9778V41.0945" stroke="black" stroke-width="0.75" stroke-linecap="round"/>
<path d="M160.326 45.9944L160.302 41.0913" stroke="black" stroke-width="0.75" stroke-linecap="round"/>
<path d="M157.332 41.136L157.364 45.9727" stroke="black" stroke-width="0.75" stroke-linecap="round"/>
</svg>
