<svg width="234" height="52" viewBox="0 0 234 52" fill="none" xmlns="http://www.w3.org/2000/svg">
<rect width="234" height="45" rx="8" fill="#6366F1"/>
<path d="M65.1777 29.2988C66.0801 29.2988 66.8887 29.1406 67.6035 28.8242C68.3242 28.502 68.9189 28.0566 69.3877 27.4883C69.8564 26.9141 70.1611 26.2402 70.3018 25.4668V25.4404H68.7021L68.6846 25.4668C68.5557 25.9531 68.3271 26.375 67.999 26.7324C67.6709 27.0898 67.2666 27.3652 66.7861 27.5586C66.3057 27.7461 65.7695 27.8398 65.1777 27.8398C64.3633 27.8398 63.6572 27.6289 63.0596 27.207C62.4619 26.7852 62.002 26.1875 61.6797 25.4141C61.3574 24.6406 61.1963 23.7266 61.1963 22.6719V22.6543C61.1963 21.5938 61.3574 20.6768 61.6797 19.9033C62.002 19.1299 62.4619 18.5322 63.0596 18.1104C63.6572 17.6885 64.3604 17.4775 65.1689 17.4775C65.7549 17.4775 66.2852 17.5859 66.7598 17.8027C67.2402 18.0195 67.6475 18.3271 67.9814 18.7256C68.3154 19.1182 68.5527 19.584 68.6934 20.123L68.7021 20.1494H70.293L70.3018 20.1318C70.1787 19.3232 69.8799 18.6113 69.4053 17.9961C68.9307 17.375 68.3271 16.8916 67.5947 16.5459C66.8682 16.1943 66.0596 16.0186 65.1689 16.0186C64.0205 16.0186 63.0273 16.2881 62.1895 16.8271C61.3516 17.3662 60.7041 18.1309 60.2471 19.1211C59.7959 20.1113 59.5703 21.2891 59.5703 22.6543V22.6719C59.5703 24.0312 59.7959 25.2061 60.2471 26.1963C60.7041 27.1865 61.3516 27.9512 62.1895 28.4902C63.0332 29.0293 64.0293 29.2988 65.1777 29.2988ZM72.7363 29H74.2656V23.1377C74.2656 22.6748 74.3711 22.2705 74.582 21.9248C74.793 21.5791 75.083 21.3125 75.4521 21.125C75.8271 20.9316 76.2549 20.835 76.7354 20.835C76.9053 20.835 77.0635 20.8438 77.21 20.8613C77.3623 20.873 77.5146 20.8936 77.667 20.9229V19.4375C77.5967 19.4258 77.4883 19.4141 77.3418 19.4023C77.2012 19.3848 77.0576 19.376 76.9111 19.376C76.2783 19.376 75.7451 19.5137 75.3115 19.7891C74.8838 20.0645 74.5791 20.4512 74.3975 20.9492H74.2656V19.543H72.7363V29ZM83.1338 29.167C83.6904 29.167 84.1914 29.0967 84.6367 28.9561C85.082 28.8096 85.4688 28.6162 85.7969 28.376C86.1309 28.1299 86.4004 27.8574 86.6055 27.5586C86.8164 27.2539 86.9629 26.9375 87.0449 26.6094L87.0625 26.5391H85.5332L85.498 26.6182C85.416 26.8115 85.2725 26.999 85.0674 27.1807C84.8623 27.3623 84.6016 27.5117 84.2852 27.6289C83.9688 27.7461 83.5967 27.8047 83.1689 27.8047C82.5947 27.8047 82.0967 27.6787 81.6748 27.4268C81.2588 27.1689 80.9365 26.8027 80.708 26.3281C80.4795 25.8535 80.3652 25.2793 80.3652 24.6055V23.999C80.3652 23.29 80.4824 22.6924 80.7168 22.2061C80.9512 21.7197 81.2676 21.3535 81.666 21.1074C82.0645 20.8613 82.5186 20.7383 83.0283 20.7383C83.5381 20.7383 83.9893 20.8555 84.3818 21.0898C84.7744 21.3242 85.082 21.6816 85.3047 22.1621C85.5273 22.6426 85.6387 23.2549 85.6387 23.999V24.6055L86.3945 23.4893H79.5918V24.7109H87.1768V24.1133C87.1768 23.1699 87.0098 22.3438 86.6758 21.6348C86.3477 20.9199 85.873 20.3662 85.252 19.9736C84.6367 19.5752 83.8984 19.376 83.0371 19.376C82.1816 19.376 81.4346 19.584 80.7959 20C80.1631 20.4102 79.6709 20.9844 79.3193 21.7227C78.9736 22.4609 78.8008 23.3193 78.8008 24.2979V24.3066C78.8008 25.2969 78.9736 26.1553 79.3193 26.8818C79.6709 27.6084 80.1689 28.1709 80.8135 28.5693C81.458 28.9678 82.2314 29.167 83.1338 29.167ZM92.125 29.167C92.5527 29.167 92.9453 29.1084 93.3027 28.9912C93.6602 28.8682 93.9795 28.6895 94.2607 28.4551C94.5479 28.2207 94.791 27.9365 94.9902 27.6025H95.1309V29H96.6602V22.5225C96.6602 21.8662 96.5195 21.3037 96.2383 20.835C95.957 20.3662 95.5498 20.0059 95.0166 19.7539C94.4834 19.502 93.8301 19.376 93.0566 19.376C92.3828 19.376 91.7822 19.4814 91.2549 19.6924C90.7275 19.8975 90.2969 20.1875 89.9629 20.5625C89.6348 20.9375 89.4326 21.374 89.3564 21.8721L89.3477 21.9248H90.8682L90.877 21.8984C91 21.5234 91.2432 21.2363 91.6064 21.0371C91.9697 20.832 92.4355 20.7295 93.0039 20.7295C93.7129 20.7295 94.2432 20.8848 94.5947 21.1953C94.9521 21.5 95.1309 21.9453 95.1309 22.5312V25.4668C95.1309 25.918 95.0137 26.3223 94.7793 26.6797C94.5508 27.0371 94.2344 27.3213 93.8301 27.5322C93.4258 27.7373 92.9629 27.8398 92.4414 27.8398C91.8906 27.8398 91.4336 27.708 91.0703 27.4443C90.7129 27.1748 90.5342 26.7998 90.5342 26.3193V26.3018C90.5342 25.8389 90.6982 25.4785 91.0264 25.2207C91.3604 24.9629 91.8848 24.8135 92.5996 24.7725L95.8955 24.5615V23.3398L92.415 23.5508C91.3135 23.6152 90.4639 23.8877 89.8662 24.3682C89.2686 24.8428 88.9697 25.499 88.9697 26.3369V26.3545C88.9697 26.9287 89.1074 27.4268 89.3828 27.8486C89.6582 28.2705 90.0332 28.5957 90.5078 28.8242C90.9883 29.0527 91.5273 29.167 92.125 29.167ZM102.769 29.0791C102.921 29.0791 103.07 29.0703 103.217 29.0527C103.363 29.0352 103.507 29.0146 103.647 28.9912V27.6904C103.513 27.7021 103.396 27.7109 103.296 27.7168C103.202 27.7227 103.088 27.7256 102.953 27.7256C102.467 27.7256 102.118 27.6055 101.907 27.3652C101.696 27.125 101.591 26.7295 101.591 26.1787V20.8086H103.647V19.543H101.591V17.0908H100.009V19.543H98.5234V20.8086H100.009V26.5479C100.009 27.4443 100.226 28.0918 100.659 28.4902C101.099 28.8828 101.802 29.0791 102.769 29.0791ZM109.624 29.167C110.181 29.167 110.682 29.0967 111.127 28.9561C111.572 28.8096 111.959 28.6162 112.287 28.376C112.621 28.1299 112.891 27.8574 113.096 27.5586C113.307 27.2539 113.453 26.9375 113.535 26.6094L113.553 26.5391H112.023L111.988 26.6182C111.906 26.8115 111.763 26.999 111.558 27.1807C111.353 27.3623 111.092 27.5117 110.775 27.6289C110.459 27.7461 110.087 27.8047 109.659 27.8047C109.085 27.8047 108.587 27.6787 108.165 27.4268C107.749 27.1689 107.427 26.8027 107.198 26.3281C106.97 25.8535 106.855 25.2793 106.855 24.6055V23.999C106.855 23.29 106.973 22.6924 107.207 22.2061C107.441 21.7197 107.758 21.3535 108.156 21.1074C108.555 20.8613 109.009 20.7383 109.519 20.7383C110.028 20.7383 110.479 20.8555 110.872 21.0898C111.265 21.3242 111.572 21.6816 111.795 22.1621C112.018 22.6426 112.129 23.2549 112.129 23.999V24.6055L112.885 23.4893H106.082V24.7109H113.667V24.1133C113.667 23.1699 113.5 22.3438 113.166 21.6348C112.838 20.9199 112.363 20.3662 111.742 19.9736C111.127 19.5752 110.389 19.376 109.527 19.376C108.672 19.376 107.925 19.584 107.286 20C106.653 20.4102 106.161 20.9844 105.81 21.7227C105.464 22.4609 105.291 23.3193 105.291 24.2979V24.3066C105.291 25.2969 105.464 26.1553 105.81 26.8818C106.161 27.6084 106.659 28.1709 107.304 28.5693C107.948 28.9678 108.722 29.167 109.624 29.167ZM123.625 29.167C124.053 29.167 124.445 29.1084 124.803 28.9912C125.16 28.8682 125.479 28.6895 125.761 28.4551C126.048 28.2207 126.291 27.9365 126.49 27.6025H126.631V29H128.16V22.5225C128.16 21.8662 128.02 21.3037 127.738 20.835C127.457 20.3662 127.05 20.0059 126.517 19.7539C125.983 19.502 125.33 19.376 124.557 19.376C123.883 19.376 123.282 19.4814 122.755 19.6924C122.228 19.8975 121.797 20.1875 121.463 20.5625C121.135 20.9375 120.933 21.374 120.856 21.8721L120.848 21.9248H122.368L122.377 21.8984C122.5 21.5234 122.743 21.2363 123.106 21.0371C123.47 20.832 123.936 20.7295 124.504 20.7295C125.213 20.7295 125.743 20.8848 126.095 21.1953C126.452 21.5 126.631 21.9453 126.631 22.5312V25.4668C126.631 25.918 126.514 26.3223 126.279 26.6797C126.051 27.0371 125.734 27.3213 125.33 27.5322C124.926 27.7373 124.463 27.8398 123.941 27.8398C123.391 27.8398 122.934 27.708 122.57 27.4443C122.213 27.1748 122.034 26.7998 122.034 26.3193V26.3018C122.034 25.8389 122.198 25.4785 122.526 25.2207C122.86 24.9629 123.385 24.8135 124.1 24.7725L127.396 24.5615V23.3398L123.915 23.5508C122.813 23.6152 121.964 23.8877 121.366 24.3682C120.769 24.8428 120.47 25.499 120.47 26.3369V26.3545C120.47 26.9287 120.607 27.4268 120.883 27.8486C121.158 28.2705 121.533 28.5957 122.008 28.8242C122.488 29.0527 123.027 29.167 123.625 29.167ZM135.93 29H137.459V23.4014C137.459 22.8447 137.559 22.3701 137.758 21.9775C137.963 21.5791 138.25 21.2715 138.619 21.0547C138.988 20.8379 139.422 20.7295 139.92 20.7295C140.676 20.7295 141.232 20.9346 141.59 21.3447C141.953 21.7549 142.135 22.3877 142.135 23.2432V29H143.664V22.874C143.664 21.7549 143.377 20.8936 142.803 20.29C142.234 19.6807 141.42 19.376 140.359 19.376C139.662 19.376 139.085 19.5166 138.628 19.7979C138.177 20.0732 137.831 20.46 137.591 20.958H137.459V19.543H135.93V29ZM150.247 29.167C150.804 29.167 151.305 29.0967 151.75 28.9561C152.195 28.8096 152.582 28.6162 152.91 28.376C153.244 28.1299 153.514 27.8574 153.719 27.5586C153.93 27.2539 154.076 26.9375 154.158 26.6094L154.176 26.5391H152.646L152.611 26.6182C152.529 26.8115 152.386 26.999 152.181 27.1807C151.976 27.3623 151.715 27.5117 151.398 27.6289C151.082 27.7461 150.71 27.8047 150.282 27.8047C149.708 27.8047 149.21 27.6787 148.788 27.4268C148.372 27.1689 148.05 26.8027 147.821 26.3281C147.593 25.8535 147.479 25.2793 147.479 24.6055V23.999C147.479 23.29 147.596 22.6924 147.83 22.2061C148.064 21.7197 148.381 21.3535 148.779 21.1074C149.178 20.8613 149.632 20.7383 150.142 20.7383C150.651 20.7383 151.103 20.8555 151.495 21.0898C151.888 21.3242 152.195 21.6816 152.418 22.1621C152.641 22.6426 152.752 23.2549 152.752 23.999V24.6055L153.508 23.4893H146.705V24.7109H154.29V24.1133C154.29 23.1699 154.123 22.3438 153.789 21.6348C153.461 20.9199 152.986 20.3662 152.365 19.9736C151.75 19.5752 151.012 19.376 150.15 19.376C149.295 19.376 148.548 19.584 147.909 20C147.276 20.4102 146.784 20.9844 146.433 21.7227C146.087 22.4609 145.914 23.3193 145.914 24.2979V24.3066C145.914 25.2969 146.087 26.1553 146.433 26.8818C146.784 27.6084 147.282 28.1709 147.927 28.5693C148.571 28.9678 149.345 29.167 150.247 29.167ZM158.465 29H159.994L162.104 21.6787H162.235L164.354 29H165.892L168.537 19.543H167.017L165.162 27.1104H165.021L162.903 19.543H161.453L159.335 27.1104H159.203L157.34 19.543H155.811L158.465 29ZM178.803 29.167C179.518 29.167 180.159 29.0469 180.728 28.8066C181.302 28.5664 181.753 28.2324 182.081 27.8047C182.415 27.3711 182.582 26.876 182.582 26.3193V26.3018C182.582 25.6221 182.365 25.0801 181.932 24.6758C181.498 24.2715 180.836 23.9609 179.945 23.7441L178.486 23.3926C177.936 23.2578 177.534 23.085 177.282 22.874C177.03 22.6631 176.904 22.3965 176.904 22.0742V22.0566C176.904 21.7754 176.989 21.5322 177.159 21.3271C177.329 21.1162 177.558 20.9521 177.845 20.835C178.138 20.7119 178.472 20.6504 178.847 20.6504C179.421 20.6504 179.887 20.7676 180.244 21.002C180.602 21.2363 180.827 21.5439 180.921 21.9248H180.93H182.424V21.916C182.359 21.4062 182.169 20.9609 181.853 20.5801C181.542 20.1934 181.129 19.8975 180.613 19.6924C180.104 19.4814 179.518 19.376 178.855 19.376C178.188 19.376 177.587 19.4961 177.054 19.7363C176.526 19.9707 176.107 20.2959 175.797 20.7119C175.492 21.1279 175.34 21.5996 175.34 22.127V22.1357C175.34 22.8154 175.548 23.3604 175.964 23.7705C176.38 24.1748 177.03 24.4824 177.915 24.6934L179.383 25.0449C179.963 25.1855 180.379 25.3701 180.631 25.5986C180.889 25.8213 181.018 26.0938 181.018 26.416V26.4336C181.018 26.7207 180.924 26.9727 180.736 27.1895C180.555 27.4062 180.3 27.5791 179.972 27.708C179.649 27.8311 179.277 27.8926 178.855 27.8926C178.246 27.8926 177.754 27.7725 177.379 27.5322C177.01 27.292 176.761 26.9727 176.632 26.5742H175.067C175.126 27.0957 175.316 27.5527 175.639 27.9453C175.967 28.332 176.4 28.6338 176.939 28.8506C177.479 29.0615 178.1 29.167 178.803 29.167ZM184.973 29H186.502V19.543H184.973V29ZM185.746 17.7236C186.039 17.7236 186.288 17.6211 186.493 17.416C186.698 17.2051 186.801 16.959 186.801 16.6777C186.801 16.3848 186.698 16.1357 186.493 15.9307C186.288 15.7256 186.039 15.623 185.746 15.623C185.459 15.623 185.213 15.7256 185.008 15.9307C184.803 16.1357 184.7 16.3848 184.7 16.6777C184.7 16.959 184.803 17.2051 185.008 17.416C185.213 17.6211 185.459 17.7236 185.746 17.7236ZM192.698 29.0791C192.851 29.0791 193 29.0703 193.146 29.0527C193.293 29.0352 193.437 29.0146 193.577 28.9912V27.6904C193.442 27.7021 193.325 27.7109 193.226 27.7168C193.132 27.7227 193.018 27.7256 192.883 27.7256C192.396 27.7256 192.048 27.6055 191.837 27.3652C191.626 27.125 191.521 26.7295 191.521 26.1787V20.8086H193.577V19.543H191.521V17.0908H189.938V19.543H188.453V20.8086H189.938V26.5479C189.938 27.4443 190.155 28.0918 190.589 28.4902C191.028 28.8828 191.731 29.0791 192.698 29.0791ZM199.554 29.167C200.11 29.167 200.611 29.0967 201.057 28.9561C201.502 28.8096 201.889 28.6162 202.217 28.376C202.551 28.1299 202.82 27.8574 203.025 27.5586C203.236 27.2539 203.383 26.9375 203.465 26.6094L203.482 26.5391H201.953L201.918 26.6182C201.836 26.8115 201.692 26.999 201.487 27.1807C201.282 27.3623 201.021 27.5117 200.705 27.6289C200.389 27.7461 200.017 27.8047 199.589 27.8047C199.015 27.8047 198.517 27.6787 198.095 27.4268C197.679 27.1689 197.356 26.8027 197.128 26.3281C196.899 25.8535 196.785 25.2793 196.785 24.6055V23.999C196.785 23.29 196.902 22.6924 197.137 22.2061C197.371 21.7197 197.688 21.3535 198.086 21.1074C198.484 20.8613 198.938 20.7383 199.448 20.7383C199.958 20.7383 200.409 20.8555 200.802 21.0898C201.194 21.3242 201.502 21.6816 201.725 22.1621C201.947 22.6426 202.059 23.2549 202.059 23.999V24.6055L202.814 23.4893H196.012V24.7109H203.597V24.1133C203.597 23.1699 203.43 22.3438 203.096 21.6348C202.768 20.9199 202.293 20.3662 201.672 19.9736C201.057 19.5752 200.318 19.376 199.457 19.376C198.602 19.376 197.854 19.584 197.216 20C196.583 20.4102 196.091 20.9844 195.739 21.7227C195.394 22.4609 195.221 23.3193 195.221 24.2979V24.3066C195.221 25.2969 195.394 26.1553 195.739 26.8818C196.091 27.6084 196.589 28.1709 197.233 28.5693C197.878 28.9678 198.651 29.167 199.554 29.167Z" fill="white"/>
<path d="M46 24.2857H38.2857V32H35.7143V24.2857H28V21.7143H35.7143V14H38.2857V21.7143H46V24.2857Z" fill="white"/>
<path fill-rule="evenodd" clip-rule="evenodd" d="M150.997 45.4774C150.571 44.9706 150.054 43.9343 149.133 42.6765C148.611 41.9649 147.316 40.6252 146.931 39.9447C146.596 39.3433 146.632 39.0736 146.712 38.5753C146.853 37.6887 147.819 36.9983 148.849 37.0915C149.628 37.1607 150.288 37.6449 150.882 38.1023C151.24 38.3776 151.681 38.9127 151.947 39.2148C152.191 39.4915 152.251 39.6059 152.512 39.9334C152.857 40.3668 152.965 40.5814 152.833 40.1042C152.727 39.404 152.553 38.2082 152.301 37.1508C152.109 36.3489 152.062 36.2233 151.879 35.6078C151.686 34.9527 151.587 34.4939 151.405 33.7993C151.279 33.308 151.053 32.3042 150.991 31.7395C150.906 30.9673 150.861 29.708 151.387 29.1292C151.8 28.676 152.746 28.539 153.333 28.8186C154.101 29.1842 154.537 30.2346 154.737 30.6539C155.095 31.4078 155.317 32.2788 155.511 33.4223C155.757 34.8779 156.21 36.8981 156.225 37.323C156.261 36.8021 156.123 35.7052 156.219 35.2054C156.306 34.7522 156.711 34.2256 157.218 34.083C157.647 33.963 158.149 33.9193 158.592 34.0054C159.061 34.0958 159.556 34.412 159.741 34.7099C160.284 35.5908 160.294 37.3908 160.317 37.2948C160.446 36.764 160.423 35.5598 160.743 35.0586C160.953 34.7282 161.488 34.4303 161.773 34.3823C162.214 34.3089 162.756 34.2863 163.219 34.371C163.593 34.4402 164.098 34.8581 164.235 35.0586C164.562 35.5442 164.748 36.9179 164.803 37.3993C164.826 37.5983 164.914 36.8459 165.243 36.3602C165.852 35.4581 168.007 35.283 168.09 37.2623C168.127 38.1856 168.12 38.1433 168.12 38.7645C168.12 39.4943 168.102 39.9334 168.06 40.4614C168.013 41.0261 167.884 42.3023 167.697 42.9207C167.568 43.3456 167.14 44.3014 166.719 44.8746C166.719 44.8746 165.108 46.6393 164.932 47.4341C164.755 48.2275 164.814 48.2332 164.779 48.7965C164.745 49.3583 164.961 50.0981 164.961 50.0981C164.961 50.0981 163.758 50.2449 163.11 50.1475C162.523 50.0586 161.797 48.9602 161.61 48.6242C161.352 48.1612 160.801 48.2501 160.587 48.5918C160.249 49.1325 159.523 50.1023 159.01 50.1631C158.008 50.2816 155.929 50.2068 154.302 50.1913C154.302 50.1913 154.579 48.764 153.961 48.2741C153.504 47.9085 152.716 47.1673 152.245 46.7776L150.997 45.4774Z" fill="white"/>
<path fill-rule="evenodd" clip-rule="evenodd" d="M150.997 45.4774C150.571 44.9706 150.054 43.9343 149.133 42.6765C148.611 41.9649 147.316 40.6252 146.931 39.9447C146.596 39.3433 146.632 39.0736 146.712 38.5753C146.853 37.6887 147.819 36.9983 148.849 37.0915C149.628 37.1607 150.288 37.6449 150.882 38.1023C151.24 38.3776 151.681 38.9127 151.947 39.2148C152.191 39.4915 152.251 39.6059 152.512 39.9334C152.857 40.3668 152.965 40.5814 152.833 40.1042C152.727 39.404 152.553 38.2082 152.301 37.1508C152.109 36.3489 152.062 36.2233 151.879 35.6078C151.686 34.9527 151.587 34.4939 151.405 33.7993C151.279 33.308 151.053 32.3042 150.991 31.7395C150.906 30.9673 150.861 29.708 151.387 29.1292C151.8 28.676 152.746 28.539 153.333 28.8186C154.101 29.1842 154.537 30.2346 154.737 30.6539C155.095 31.4078 155.317 32.2788 155.511 33.4223C155.757 34.8779 156.21 36.8981 156.225 37.323C156.261 36.8021 156.123 35.7052 156.219 35.2054C156.306 34.7522 156.711 34.2256 157.218 34.083C157.647 33.963 158.149 33.9193 158.592 34.0054C159.061 34.0958 159.556 34.412 159.741 34.7099C160.284 35.5908 160.294 37.3908 160.317 37.2948C160.446 36.764 160.423 35.5598 160.743 35.0586C160.953 34.7282 161.488 34.4303 161.773 34.3823C162.214 34.3089 162.756 34.2863 163.219 34.371C163.593 34.4402 164.098 34.8581 164.235 35.0586C164.562 35.5442 164.748 36.9179 164.803 37.3993C164.826 37.5983 164.914 36.8459 165.243 36.3602C165.852 35.4581 168.007 35.283 168.09 37.2623C168.127 38.1856 168.12 38.1433 168.12 38.7645C168.12 39.4943 168.102 39.9334 168.06 40.4614C168.013 41.0261 167.884 42.3023 167.697 42.9207C167.568 43.3456 167.14 44.3014 166.719 44.8746C166.719 44.8746 165.108 46.6393 164.932 47.4341C164.755 48.2275 164.814 48.2332 164.779 48.7965C164.745 49.3583 164.961 50.0981 164.961 50.0981C164.961 50.0981 163.758 50.2449 163.11 50.1475C162.523 50.0586 161.797 48.9602 161.61 48.6242C161.352 48.1612 160.801 48.2501 160.587 48.5918C160.249 49.1325 159.523 50.1023 159.01 50.1631C158.008 50.2816 155.929 50.2068 154.302 50.1913C154.302 50.1913 154.579 48.764 153.961 48.2741C153.504 47.9085 152.716 47.1673 152.245 46.7776L150.997 45.4774Z" stroke="black" stroke-width="0.75" stroke-linecap="round" stroke-linejoin="round"/>
<path d="M163.35 45.9778V41.0945" stroke="black" stroke-width="0.75" stroke-linecap="round"/>
<path d="M160.326 45.9944L160.302 41.0913" stroke="black" stroke-width="0.75" stroke-linecap="round"/>
<path d="M157.332 41.136L157.364 45.9727" stroke="black" stroke-width="0.75" stroke-linecap="round"/>
</svg>
