<svg width="243" height="52" viewBox="0 0 243 52" fill="none" xmlns="http://www.w3.org/2000/svg">
<rect width="243" height="45" rx="8" fill="#6366F1"/>
<path d="M64.377 29.2988C65.2793 29.2988 66.0879 29.1406 66.8027 28.8242C67.5234 28.502 68.1182 28.0566 68.5869 27.4883C69.0557 26.9141 69.3604 26.2402 69.501 25.4668V25.4404H67.9014L67.8838 25.4668C67.7549 25.9531 67.5264 26.375 67.1982 26.7324C66.8701 27.0898 66.4658 27.3652 65.9854 27.5586C65.5049 27.7461 64.9688 27.8398 64.377 27.8398C63.5625 27.8398 62.8564 27.6289 62.2588 27.207C61.6611 26.7852 61.2012 26.1875 60.8789 25.4141C60.5566 24.6406 60.3955 23.7266 60.3955 22.6719V22.6543C60.3955 21.5938 60.5566 20.6768 60.8789 19.9033C61.2012 19.1299 61.6611 18.5322 62.2588 18.1104C62.8564 17.6885 63.5596 17.4775 64.3682 17.4775C64.9541 17.4775 65.4844 17.5859 65.959 17.8027C66.4395 18.0195 66.8467 18.3271 67.1807 18.7256C67.5146 19.1182 67.752 19.584 67.8926 20.123L67.9014 20.1494H69.4922L69.501 20.1318C69.3779 19.3232 69.0791 18.6113 68.6045 17.9961C68.1299 17.375 67.5264 16.8916 66.7939 16.5459C66.0674 16.1943 65.2588 16.0186 64.3682 16.0186C63.2197 16.0186 62.2266 16.2881 61.3887 16.8271C60.5508 17.3662 59.9033 18.1309 59.4463 19.1211C58.9951 20.1113 58.7695 21.2891 58.7695 22.6543V22.6719C58.7695 24.0312 58.9951 25.2061 59.4463 26.1963C59.9033 27.1865 60.5508 27.9512 61.3887 28.4902C62.2324 29.0293 63.2285 29.2988 64.377 29.2988ZM71.9355 29H73.4648V23.1377C73.4648 22.6748 73.5703 22.2705 73.7812 21.9248C73.9922 21.5791 74.2822 21.3125 74.6514 21.125C75.0264 20.9316 75.4541 20.835 75.9346 20.835C76.1045 20.835 76.2627 20.8438 76.4092 20.8613C76.5615 20.873 76.7139 20.8936 76.8662 20.9229V19.4375C76.7959 19.4258 76.6875 19.4141 76.541 19.4023C76.4004 19.3848 76.2568 19.376 76.1104 19.376C75.4775 19.376 74.9443 19.5137 74.5107 19.7891C74.083 20.0645 73.7783 20.4512 73.5967 20.9492H73.4648V19.543H71.9355V29ZM82.333 29.167C82.8896 29.167 83.3906 29.0967 83.8359 28.9561C84.2812 28.8096 84.668 28.6162 84.9961 28.376C85.3301 28.1299 85.5996 27.8574 85.8047 27.5586C86.0156 27.2539 86.1621 26.9375 86.2441 26.6094L86.2617 26.5391H84.7324L84.6973 26.6182C84.6152 26.8115 84.4717 26.999 84.2666 27.1807C84.0615 27.3623 83.8008 27.5117 83.4844 27.6289C83.168 27.7461 82.7959 27.8047 82.3682 27.8047C81.7939 27.8047 81.2959 27.6787 80.874 27.4268C80.458 27.1689 80.1357 26.8027 79.9072 26.3281C79.6787 25.8535 79.5645 25.2793 79.5645 24.6055V23.999C79.5645 23.29 79.6816 22.6924 79.916 22.2061C80.1504 21.7197 80.4668 21.3535 80.8652 21.1074C81.2637 20.8613 81.7178 20.7383 82.2275 20.7383C82.7373 20.7383 83.1885 20.8555 83.5811 21.0898C83.9736 21.3242 84.2812 21.6816 84.5039 22.1621C84.7266 22.6426 84.8379 23.2549 84.8379 23.999V24.6055L85.5938 23.4893H78.791V24.7109H86.376V24.1133C86.376 23.1699 86.209 22.3438 85.875 21.6348C85.5469 20.9199 85.0723 20.3662 84.4512 19.9736C83.8359 19.5752 83.0977 19.376 82.2363 19.376C81.3809 19.376 80.6338 19.584 79.9951 20C79.3623 20.4102 78.8701 20.9844 78.5186 21.7227C78.1729 22.4609 78 23.3193 78 24.2979V24.3066C78 25.2969 78.1729 26.1553 78.5186 26.8818C78.8701 27.6084 79.3682 28.1709 80.0127 28.5693C80.6572 28.9678 81.4307 29.167 82.333 29.167ZM91.3242 29.167C91.752 29.167 92.1445 29.1084 92.502 28.9912C92.8594 28.8682 93.1787 28.6895 93.46 28.4551C93.7471 28.2207 93.9902 27.9365 94.1895 27.6025H94.3301V29H95.8594V22.5225C95.8594 21.8662 95.7188 21.3037 95.4375 20.835C95.1562 20.3662 94.749 20.0059 94.2158 19.7539C93.6826 19.502 93.0293 19.376 92.2559 19.376C91.582 19.376 90.9814 19.4814 90.4541 19.6924C89.9268 19.8975 89.4961 20.1875 89.1621 20.5625C88.834 20.9375 88.6318 21.374 88.5557 21.8721L88.5469 21.9248H90.0674L90.0762 21.8984C90.1992 21.5234 90.4424 21.2363 90.8057 21.0371C91.1689 20.832 91.6348 20.7295 92.2031 20.7295C92.9121 20.7295 93.4424 20.8848 93.7939 21.1953C94.1514 21.5 94.3301 21.9453 94.3301 22.5312V25.4668C94.3301 25.918 94.2129 26.3223 93.9785 26.6797C93.75 27.0371 93.4336 27.3213 93.0293 27.5322C92.625 27.7373 92.1621 27.8398 91.6406 27.8398C91.0898 27.8398 90.6328 27.708 90.2695 27.4443C89.9121 27.1748 89.7334 26.7998 89.7334 26.3193V26.3018C89.7334 25.8389 89.8975 25.4785 90.2256 25.2207C90.5596 24.9629 91.084 24.8135 91.7988 24.7725L95.0947 24.5615V23.3398L91.6143 23.5508C90.5127 23.6152 89.6631 23.8877 89.0654 24.3682C88.4678 24.8428 88.1689 25.499 88.1689 26.3369V26.3545C88.1689 26.9287 88.3066 27.4268 88.582 27.8486C88.8574 28.2705 89.2324 28.5957 89.707 28.8242C90.1875 29.0527 90.7266 29.167 91.3242 29.167ZM101.968 29.0791C102.12 29.0791 102.27 29.0703 102.416 29.0527C102.562 29.0352 102.706 29.0146 102.847 28.9912V27.6904C102.712 27.7021 102.595 27.7109 102.495 27.7168C102.401 27.7227 102.287 27.7256 102.152 27.7256C101.666 27.7256 101.317 27.6055 101.106 27.3652C100.896 27.125 100.79 26.7295 100.79 26.1787V20.8086H102.847V19.543H100.79V17.0908H99.208V19.543H97.7227V20.8086H99.208V26.5479C99.208 27.4443 99.4248 28.0918 99.8584 28.4902C100.298 28.8828 101.001 29.0791 101.968 29.0791ZM108.823 29.167C109.38 29.167 109.881 29.0967 110.326 28.9561C110.771 28.8096 111.158 28.6162 111.486 28.376C111.82 28.1299 112.09 27.8574 112.295 27.5586C112.506 27.2539 112.652 26.9375 112.734 26.6094L112.752 26.5391H111.223L111.188 26.6182C111.105 26.8115 110.962 26.999 110.757 27.1807C110.552 27.3623 110.291 27.5117 109.975 27.6289C109.658 27.7461 109.286 27.8047 108.858 27.8047C108.284 27.8047 107.786 27.6787 107.364 27.4268C106.948 27.1689 106.626 26.8027 106.397 26.3281C106.169 25.8535 106.055 25.2793 106.055 24.6055V23.999C106.055 23.29 106.172 22.6924 106.406 22.2061C106.641 21.7197 106.957 21.3535 107.355 21.1074C107.754 20.8613 108.208 20.7383 108.718 20.7383C109.228 20.7383 109.679 20.8555 110.071 21.0898C110.464 21.3242 110.771 21.6816 110.994 22.1621C111.217 22.6426 111.328 23.2549 111.328 23.999V24.6055L112.084 23.4893H105.281V24.7109H112.866V24.1133C112.866 23.1699 112.699 22.3438 112.365 21.6348C112.037 20.9199 111.562 20.3662 110.941 19.9736C110.326 19.5752 109.588 19.376 108.727 19.376C107.871 19.376 107.124 19.584 106.485 20C105.853 20.4102 105.36 20.9844 105.009 21.7227C104.663 22.4609 104.49 23.3193 104.49 24.2979V24.3066C104.49 25.2969 104.663 26.1553 105.009 26.8818C105.36 27.6084 105.858 28.1709 106.503 28.5693C107.147 28.9678 107.921 29.167 108.823 29.167ZM122.824 29.167C123.252 29.167 123.645 29.1084 124.002 28.9912C124.359 28.8682 124.679 28.6895 124.96 28.4551C125.247 28.2207 125.49 27.9365 125.689 27.6025H125.83V29H127.359V22.5225C127.359 21.8662 127.219 21.3037 126.938 20.835C126.656 20.3662 126.249 20.0059 125.716 19.7539C125.183 19.502 124.529 19.376 123.756 19.376C123.082 19.376 122.481 19.4814 121.954 19.6924C121.427 19.8975 120.996 20.1875 120.662 20.5625C120.334 20.9375 120.132 21.374 120.056 21.8721L120.047 21.9248H121.567L121.576 21.8984C121.699 21.5234 121.942 21.2363 122.306 21.0371C122.669 20.832 123.135 20.7295 123.703 20.7295C124.412 20.7295 124.942 20.8848 125.294 21.1953C125.651 21.5 125.83 21.9453 125.83 22.5312V25.4668C125.83 25.918 125.713 26.3223 125.479 26.6797C125.25 27.0371 124.934 27.3213 124.529 27.5322C124.125 27.7373 123.662 27.8398 123.141 27.8398C122.59 27.8398 122.133 27.708 121.77 27.4443C121.412 27.1748 121.233 26.7998 121.233 26.3193V26.3018C121.233 25.8389 121.397 25.4785 121.726 25.2207C122.06 24.9629 122.584 24.8135 123.299 24.7725L126.595 24.5615V23.3398L123.114 23.5508C122.013 23.6152 121.163 23.8877 120.565 24.3682C119.968 24.8428 119.669 25.499 119.669 26.3369V26.3545C119.669 26.9287 119.807 27.4268 120.082 27.8486C120.357 28.2705 120.732 28.5957 121.207 28.8242C121.688 29.0527 122.227 29.167 122.824 29.167ZM135.129 29H136.658V23.4014C136.658 22.8447 136.758 22.3701 136.957 21.9775C137.162 21.5791 137.449 21.2715 137.818 21.0547C138.188 20.8379 138.621 20.7295 139.119 20.7295C139.875 20.7295 140.432 20.9346 140.789 21.3447C141.152 21.7549 141.334 22.3877 141.334 23.2432V29H142.863V22.874C142.863 21.7549 142.576 20.8936 142.002 20.29C141.434 19.6807 140.619 19.376 139.559 19.376C138.861 19.376 138.284 19.5166 137.827 19.7979C137.376 20.0732 137.03 20.46 136.79 20.958H136.658V19.543H135.129V29ZM149.446 29.167C150.003 29.167 150.504 29.0967 150.949 28.9561C151.395 28.8096 151.781 28.6162 152.109 28.376C152.443 28.1299 152.713 27.8574 152.918 27.5586C153.129 27.2539 153.275 26.9375 153.357 26.6094L153.375 26.5391H151.846L151.811 26.6182C151.729 26.8115 151.585 26.999 151.38 27.1807C151.175 27.3623 150.914 27.5117 150.598 27.6289C150.281 27.7461 149.909 27.8047 149.481 27.8047C148.907 27.8047 148.409 27.6787 147.987 27.4268C147.571 27.1689 147.249 26.8027 147.021 26.3281C146.792 25.8535 146.678 25.2793 146.678 24.6055V23.999C146.678 23.29 146.795 22.6924 147.029 22.2061C147.264 21.7197 147.58 21.3535 147.979 21.1074C148.377 20.8613 148.831 20.7383 149.341 20.7383C149.851 20.7383 150.302 20.8555 150.694 21.0898C151.087 21.3242 151.395 21.6816 151.617 22.1621C151.84 22.6426 151.951 23.2549 151.951 23.999V24.6055L152.707 23.4893H145.904V24.7109H153.489V24.1133C153.489 23.1699 153.322 22.3438 152.988 21.6348C152.66 20.9199 152.186 20.3662 151.564 19.9736C150.949 19.5752 150.211 19.376 149.35 19.376C148.494 19.376 147.747 19.584 147.108 20C146.476 20.4102 145.983 20.9844 145.632 21.7227C145.286 22.4609 145.113 23.3193 145.113 24.2979V24.3066C145.113 25.2969 145.286 26.1553 145.632 26.8818C145.983 27.6084 146.481 28.1709 147.126 28.5693C147.771 28.9678 148.544 29.167 149.446 29.167ZM157.664 29H159.193L161.303 21.6787H161.435L163.553 29H165.091L167.736 19.543H166.216L164.361 27.1104H164.221L162.103 19.543H160.652L158.534 27.1104H158.402L156.539 19.543H155.01L157.664 29ZM174.75 32.1641H176.279V27.5059H176.411C176.587 27.8457 176.821 28.1387 177.114 28.3848C177.413 28.6309 177.753 28.8242 178.134 28.9648C178.521 29.0996 178.931 29.167 179.364 29.167C180.167 29.167 180.864 28.9648 181.456 28.5605C182.054 28.1562 182.517 27.5908 182.845 26.8643C183.173 26.1318 183.337 25.2705 183.337 24.2803V24.2627C183.337 23.2783 183.173 22.4199 182.845 21.6875C182.517 20.9551 182.054 20.3867 181.456 19.9824C180.864 19.5781 180.167 19.376 179.364 19.376C178.925 19.376 178.518 19.4434 178.143 19.5781C177.768 19.7129 177.434 19.9062 177.141 20.1582C176.848 20.4043 176.604 20.7031 176.411 21.0547H176.279V19.543H174.75V32.1641ZM179.013 27.8135C178.444 27.8135 177.952 27.6699 177.536 27.3828C177.12 27.0957 176.801 26.6885 176.578 26.1611C176.355 25.6279 176.244 25.001 176.244 24.2803V24.2627C176.244 23.5303 176.355 22.9033 176.578 22.3818C176.801 21.8545 177.12 21.4473 177.536 21.1602C177.952 20.873 178.444 20.7295 179.013 20.7295C179.593 20.7295 180.088 20.8701 180.498 21.1514C180.908 21.4326 181.222 21.8369 181.438 22.3643C181.661 22.8916 181.772 23.5244 181.772 24.2627V24.2803C181.772 25.0127 181.661 25.6426 181.438 26.1699C181.222 26.6973 180.908 27.1045 180.498 27.3916C180.088 27.6729 179.593 27.8135 179.013 27.8135ZM188.285 29.167C188.713 29.167 189.105 29.1084 189.463 28.9912C189.82 28.8682 190.14 28.6895 190.421 28.4551C190.708 28.2207 190.951 27.9365 191.15 27.6025H191.291V29H192.82V22.5225C192.82 21.8662 192.68 21.3037 192.398 20.835C192.117 20.3662 191.71 20.0059 191.177 19.7539C190.644 19.502 189.99 19.376 189.217 19.376C188.543 19.376 187.942 19.4814 187.415 19.6924C186.888 19.8975 186.457 20.1875 186.123 20.5625C185.795 20.9375 185.593 21.374 185.517 21.8721L185.508 21.9248H187.028L187.037 21.8984C187.16 21.5234 187.403 21.2363 187.767 21.0371C188.13 20.832 188.596 20.7295 189.164 20.7295C189.873 20.7295 190.403 20.8848 190.755 21.1953C191.112 21.5 191.291 21.9453 191.291 22.5312V25.4668C191.291 25.918 191.174 26.3223 190.939 26.6797C190.711 27.0371 190.395 27.3213 189.99 27.5322C189.586 27.7373 189.123 27.8398 188.602 27.8398C188.051 27.8398 187.594 27.708 187.23 27.4443C186.873 27.1748 186.694 26.7998 186.694 26.3193V26.3018C186.694 25.8389 186.858 25.4785 187.187 25.2207C187.521 24.9629 188.045 24.8135 188.76 24.7725L192.056 24.5615V23.3398L188.575 23.5508C187.474 23.6152 186.624 23.8877 186.026 24.3682C185.429 24.8428 185.13 25.499 185.13 26.3369V26.3545C185.13 26.9287 185.268 27.4268 185.543 27.8486C185.818 28.2705 186.193 28.5957 186.668 28.8242C187.148 29.0527 187.688 29.167 188.285 29.167ZM199.482 32.3398C200.338 32.3398 201.082 32.1963 201.715 31.9092C202.348 31.6221 202.834 31.2178 203.174 30.6963C203.52 30.1748 203.692 29.5625 203.692 28.8594V19.543H202.163V21.1074H202.058C201.864 20.75 201.621 20.4424 201.328 20.1846C201.041 19.9268 200.71 19.7275 200.335 19.5869C199.96 19.4463 199.55 19.376 199.104 19.376C198.284 19.376 197.575 19.5752 196.978 19.9736C196.38 20.3662 195.917 20.9082 195.589 21.5996C195.267 22.2852 195.105 23.0703 195.105 23.9551V23.9727C195.105 24.8633 195.267 25.6514 195.589 26.3369C195.911 27.0225 196.368 27.5615 196.96 27.9541C197.558 28.3408 198.261 28.5342 199.069 28.5342C199.503 28.5342 199.907 28.4727 200.282 28.3496C200.657 28.2207 200.994 28.0332 201.293 27.7871C201.592 27.541 201.841 27.2451 202.04 26.8994H202.181V28.7803C202.181 29.4775 201.94 30.0195 201.46 30.4062C200.985 30.793 200.326 30.9863 199.482 30.9863C198.803 30.9863 198.258 30.8691 197.848 30.6348C197.438 30.4062 197.188 30.1133 197.101 29.7559L197.092 29.7471H195.51L195.501 29.7559C195.583 30.2715 195.791 30.7227 196.125 31.1094C196.465 31.502 196.919 31.8037 197.487 32.0146C198.056 32.2314 198.721 32.3398 199.482 32.3398ZM199.403 27.1807C198.823 27.1807 198.328 27.0459 197.918 26.7764C197.514 26.501 197.203 26.123 196.986 25.6426C196.775 25.1621 196.67 24.6055 196.67 23.9727V23.9551C196.67 23.3281 196.775 22.7715 196.986 22.2852C197.203 21.7988 197.514 21.418 197.918 21.1426C198.328 20.8672 198.823 20.7295 199.403 20.7295C199.989 20.7295 200.49 20.8672 200.906 21.1426C201.322 21.418 201.642 21.7988 201.864 22.2852C202.093 22.7715 202.207 23.3281 202.207 23.9551V23.9727C202.207 24.6055 202.093 25.1621 201.864 25.6426C201.642 26.123 201.322 26.501 200.906 26.7764C200.49 27.0459 199.989 27.1807 199.403 27.1807ZM210.354 29.167C210.911 29.167 211.412 29.0967 211.857 28.9561C212.303 28.8096 212.689 28.6162 213.018 28.376C213.352 28.1299 213.621 27.8574 213.826 27.5586C214.037 27.2539 214.184 26.9375 214.266 26.6094L214.283 26.5391H212.754L212.719 26.6182C212.637 26.8115 212.493 26.999 212.288 27.1807C212.083 27.3623 211.822 27.5117 211.506 27.6289C211.189 27.7461 210.817 27.8047 210.39 27.8047C209.815 27.8047 209.317 27.6787 208.896 27.4268C208.479 27.1689 208.157 26.8027 207.929 26.3281C207.7 25.8535 207.586 25.2793 207.586 24.6055V23.999C207.586 23.29 207.703 22.6924 207.938 22.2061C208.172 21.7197 208.488 21.3535 208.887 21.1074C209.285 20.8613 209.739 20.7383 210.249 20.7383C210.759 20.7383 211.21 20.8555 211.603 21.0898C211.995 21.3242 212.303 21.6816 212.525 22.1621C212.748 22.6426 212.859 23.2549 212.859 23.999V24.6055L213.615 23.4893H206.812V24.7109H214.397V24.1133C214.397 23.1699 214.23 22.3438 213.896 21.6348C213.568 20.9199 213.094 20.3662 212.473 19.9736C211.857 19.5752 211.119 19.376 210.258 19.376C209.402 19.376 208.655 19.584 208.017 20C207.384 20.4102 206.892 20.9844 206.54 21.7227C206.194 22.4609 206.021 23.3193 206.021 24.2979V24.3066C206.021 25.2969 206.194 26.1553 206.54 26.8818C206.892 27.6084 207.39 28.1709 208.034 28.5693C208.679 28.9678 209.452 29.167 210.354 29.167Z" fill="white"/>
<path d="M45.5 24.2857H37.7857V32H35.2143V24.2857H27.5V21.7143H35.2143V14H37.7857V21.7143H45.5V24.2857Z" fill="white"/>
<path fill-rule="evenodd" clip-rule="evenodd" d="M150.997 45.4774C150.571 44.9706 150.054 43.9343 149.133 42.6765C148.611 41.9649 147.316 40.6252 146.931 39.9447C146.596 39.3433 146.632 39.0736 146.712 38.5753C146.853 37.6887 147.819 36.9983 148.849 37.0915C149.628 37.1607 150.288 37.6449 150.882 38.1023C151.24 38.3776 151.681 38.9127 151.947 39.2148C152.191 39.4915 152.251 39.6059 152.512 39.9334C152.857 40.3668 152.965 40.5814 152.833 40.1042C152.727 39.404 152.553 38.2082 152.301 37.1508C152.109 36.3489 152.062 36.2233 151.879 35.6078C151.686 34.9527 151.587 34.4939 151.405 33.7993C151.279 33.308 151.053 32.3042 150.991 31.7395C150.906 30.9673 150.861 29.708 151.387 29.1292C151.8 28.676 152.746 28.539 153.333 28.8186C154.101 29.1842 154.537 30.2346 154.737 30.6539C155.095 31.4078 155.317 32.2788 155.511 33.4223C155.757 34.8779 156.21 36.8981 156.225 37.323C156.261 36.8021 156.123 35.7052 156.219 35.2054C156.306 34.7522 156.711 34.2256 157.218 34.083C157.647 33.963 158.149 33.9193 158.592 34.0054C159.061 34.0958 159.556 34.412 159.741 34.7099C160.284 35.5908 160.294 37.3908 160.317 37.2948C160.446 36.764 160.423 35.5598 160.743 35.0586C160.953 34.7282 161.488 34.4303 161.773 34.3823C162.214 34.3089 162.756 34.2863 163.219 34.371C163.593 34.4402 164.098 34.8581 164.235 35.0586C164.562 35.5442 164.748 36.9179 164.803 37.3993C164.826 37.5983 164.914 36.8459 165.243 36.3602C165.852 35.4581 168.007 35.283 168.09 37.2623C168.127 38.1856 168.12 38.1433 168.12 38.7645C168.12 39.4943 168.102 39.9334 168.06 40.4614C168.013 41.0261 167.884 42.3023 167.697 42.9207C167.568 43.3456 167.14 44.3014 166.719 44.8746C166.719 44.8746 165.108 46.6393 164.932 47.4341C164.755 48.2275 164.814 48.2332 164.779 48.7965C164.745 49.3583 164.961 50.0981 164.961 50.0981C164.961 50.0981 163.758 50.2449 163.11 50.1475C162.523 50.0586 161.797 48.9602 161.61 48.6242C161.352 48.1612 160.801 48.2501 160.587 48.5918C160.249 49.1325 159.523 50.1023 159.01 50.1631C158.008 50.2816 155.929 50.2068 154.302 50.1913C154.302 50.1913 154.579 48.764 153.961 48.2741C153.504 47.9085 152.716 47.1673 152.245 46.7776L150.997 45.4774Z" fill="white"/>
<path fill-rule="evenodd" clip-rule="evenodd" d="M150.997 45.4774C150.571 44.9706 150.054 43.9343 149.133 42.6765C148.611 41.9649 147.316 40.6252 146.931 39.9447C146.596 39.3433 146.632 39.0736 146.712 38.5753C146.853 37.6887 147.819 36.9983 148.849 37.0915C149.628 37.1607 150.288 37.6449 150.882 38.1023C151.24 38.3776 151.681 38.9127 151.947 39.2148C152.191 39.4915 152.251 39.6059 152.512 39.9334C152.857 40.3668 152.965 40.5814 152.833 40.1042C152.727 39.404 152.553 38.2082 152.301 37.1508C152.109 36.3489 152.062 36.2233 151.879 35.6078C151.686 34.9527 151.587 34.4939 151.405 33.7993C151.279 33.308 151.053 32.3042 150.991 31.7395C150.906 30.9673 150.861 29.708 151.387 29.1292C151.8 28.676 152.746 28.539 153.333 28.8186C154.101 29.1842 154.537 30.2346 154.737 30.6539C155.095 31.4078 155.317 32.2788 155.511 33.4223C155.757 34.8779 156.21 36.8981 156.225 37.323C156.261 36.8021 156.123 35.7052 156.219 35.2054C156.306 34.7522 156.711 34.2256 157.218 34.083C157.647 33.963 158.149 33.9193 158.592 34.0054C159.061 34.0958 159.556 34.412 159.741 34.7099C160.284 35.5908 160.294 37.3908 160.317 37.2948C160.446 36.764 160.423 35.5598 160.743 35.0586C160.953 34.7282 161.488 34.4303 161.773 34.3823C162.214 34.3089 162.756 34.2863 163.219 34.371C163.593 34.4402 164.098 34.8581 164.235 35.0586C164.562 35.5442 164.748 36.9179 164.803 37.3993C164.826 37.5983 164.914 36.8459 165.243 36.3602C165.852 35.4581 168.007 35.283 168.09 37.2623C168.127 38.1856 168.12 38.1433 168.12 38.7645C168.12 39.4943 168.102 39.9334 168.06 40.4614C168.013 41.0261 167.884 42.3023 167.697 42.9207C167.568 43.3456 167.14 44.3014 166.719 44.8746C166.719 44.8746 165.108 46.6393 164.932 47.4341C164.755 48.2275 164.814 48.2332 164.779 48.7965C164.745 49.3583 164.961 50.0981 164.961 50.0981C164.961 50.0981 163.758 50.2449 163.11 50.1475C162.523 50.0586 161.797 48.9602 161.61 48.6242C161.352 48.1612 160.801 48.2501 160.587 48.5918C160.249 49.1325 159.523 50.1023 159.01 50.1631C158.008 50.2816 155.929 50.2068 154.302 50.1913C154.302 50.1913 154.579 48.764 153.961 48.2741C153.504 47.9085 152.716 47.1673 152.245 46.7776L150.997 45.4774Z" stroke="black" stroke-width="0.75" stroke-linecap="round" stroke-linejoin="round"/>
<path d="M163.35 45.9778V41.0945" stroke="black" stroke-width="0.75" stroke-linecap="round"/>
<path d="M160.326 45.9944L160.302 41.0913" stroke="black" stroke-width="0.75" stroke-linecap="round"/>
<path d="M157.332 41.136L157.364 45.9727" stroke="black" stroke-width="0.75" stroke-linecap="round"/>
</svg>
