<svg width="235" height="52" viewBox="0 0 235 52" fill="none" xmlns="http://www.w3.org/2000/svg">
<rect x="0.5" width="234" height="45" rx="8" fill="#6366F1"/>
<path d="M65.6777 29.2988C66.5801 29.2988 67.3887 29.1406 68.1035 28.8242C68.8242 28.502 69.4189 28.0566 69.8877 27.4883C70.3564 26.9141 70.6611 26.2402 70.8018 25.4668V25.4404H69.2021L69.1846 25.4668C69.0557 25.9531 68.8271 26.375 68.499 26.7324C68.1709 27.0898 67.7666 27.3652 67.2861 27.5586C66.8057 27.7461 66.2695 27.8398 65.6777 27.8398C64.8633 27.8398 64.1572 27.6289 63.5596 27.207C62.9619 26.7852 62.502 26.1875 62.1797 25.4141C61.8574 24.6406 61.6963 23.7266 61.6963 22.6719V22.6543C61.6963 21.5938 61.8574 20.6768 62.1797 19.9033C62.502 19.1299 62.9619 18.5322 63.5596 18.1104C64.1572 17.6885 64.8604 17.4775 65.6689 17.4775C66.2549 17.4775 66.7852 17.5859 67.2598 17.8027C67.7402 18.0195 68.1475 18.3271 68.4814 18.7256C68.8154 19.1182 69.0527 19.584 69.1934 20.123L69.2021 20.1494H70.793L70.8018 20.1318C70.6787 19.3232 70.3799 18.6113 69.9053 17.9961C69.4307 17.375 68.8271 16.8916 68.0947 16.5459C67.3682 16.1943 66.5596 16.0186 65.6689 16.0186C64.5205 16.0186 63.5273 16.2881 62.6895 16.8271C61.8516 17.3662 61.2041 18.1309 60.7471 19.1211C60.2959 20.1113 60.0703 21.2891 60.0703 22.6543V22.6719C60.0703 24.0312 60.2959 25.2061 60.7471 26.1963C61.2041 27.1865 61.8516 27.9512 62.6895 28.4902C63.5332 29.0293 64.5293 29.2988 65.6777 29.2988ZM73.2363 29H74.7656V23.1377C74.7656 22.6748 74.8711 22.2705 75.082 21.9248C75.293 21.5791 75.583 21.3125 75.9521 21.125C76.3271 20.9316 76.7549 20.835 77.2354 20.835C77.4053 20.835 77.5635 20.8438 77.71 20.8613C77.8623 20.873 78.0146 20.8936 78.167 20.9229V19.4375C78.0967 19.4258 77.9883 19.4141 77.8418 19.4023C77.7012 19.3848 77.5576 19.376 77.4111 19.376C76.7783 19.376 76.2451 19.5137 75.8115 19.7891C75.3838 20.0645 75.0791 20.4512 74.8975 20.9492H74.7656V19.543H73.2363V29ZM83.6338 29.167C84.1904 29.167 84.6914 29.0967 85.1367 28.9561C85.582 28.8096 85.9688 28.6162 86.2969 28.376C86.6309 28.1299 86.9004 27.8574 87.1055 27.5586C87.3164 27.2539 87.4629 26.9375 87.5449 26.6094L87.5625 26.5391H86.0332L85.998 26.6182C85.916 26.8115 85.7725 26.999 85.5674 27.1807C85.3623 27.3623 85.1016 27.5117 84.7852 27.6289C84.4688 27.7461 84.0967 27.8047 83.6689 27.8047C83.0947 27.8047 82.5967 27.6787 82.1748 27.4268C81.7588 27.1689 81.4365 26.8027 81.208 26.3281C80.9795 25.8535 80.8652 25.2793 80.8652 24.6055V23.999C80.8652 23.29 80.9824 22.6924 81.2168 22.2061C81.4512 21.7197 81.7676 21.3535 82.166 21.1074C82.5645 20.8613 83.0186 20.7383 83.5283 20.7383C84.0381 20.7383 84.4893 20.8555 84.8818 21.0898C85.2744 21.3242 85.582 21.6816 85.8047 22.1621C86.0273 22.6426 86.1387 23.2549 86.1387 23.999V24.6055L86.8945 23.4893H80.0918V24.7109H87.6768V24.1133C87.6768 23.1699 87.5098 22.3438 87.1758 21.6348C86.8477 20.9199 86.373 20.3662 85.752 19.9736C85.1367 19.5752 84.3984 19.376 83.5371 19.376C82.6816 19.376 81.9346 19.584 81.2959 20C80.6631 20.4102 80.1709 20.9844 79.8193 21.7227C79.4736 22.4609 79.3008 23.3193 79.3008 24.2979V24.3066C79.3008 25.2969 79.4736 26.1553 79.8193 26.8818C80.1709 27.6084 80.6689 28.1709 81.3135 28.5693C81.958 28.9678 82.7314 29.167 83.6338 29.167ZM92.625 29.167C93.0527 29.167 93.4453 29.1084 93.8027 28.9912C94.1602 28.8682 94.4795 28.6895 94.7607 28.4551C95.0479 28.2207 95.291 27.9365 95.4902 27.6025H95.6309V29H97.1602V22.5225C97.1602 21.8662 97.0195 21.3037 96.7383 20.835C96.457 20.3662 96.0498 20.0059 95.5166 19.7539C94.9834 19.502 94.3301 19.376 93.5566 19.376C92.8828 19.376 92.2822 19.4814 91.7549 19.6924C91.2275 19.8975 90.7969 20.1875 90.4629 20.5625C90.1348 20.9375 89.9326 21.374 89.8564 21.8721L89.8477 21.9248H91.3682L91.377 21.8984C91.5 21.5234 91.7432 21.2363 92.1064 21.0371C92.4697 20.832 92.9355 20.7295 93.5039 20.7295C94.2129 20.7295 94.7432 20.8848 95.0947 21.1953C95.4521 21.5 95.6309 21.9453 95.6309 22.5312V25.4668C95.6309 25.918 95.5137 26.3223 95.2793 26.6797C95.0508 27.0371 94.7344 27.3213 94.3301 27.5322C93.9258 27.7373 93.4629 27.8398 92.9414 27.8398C92.3906 27.8398 91.9336 27.708 91.5703 27.4443C91.2129 27.1748 91.0342 26.7998 91.0342 26.3193V26.3018C91.0342 25.8389 91.1982 25.4785 91.5264 25.2207C91.8604 24.9629 92.3848 24.8135 93.0996 24.7725L96.3955 24.5615V23.3398L92.915 23.5508C91.8135 23.6152 90.9639 23.8877 90.3662 24.3682C89.7686 24.8428 89.4697 25.499 89.4697 26.3369V26.3545C89.4697 26.9287 89.6074 27.4268 89.8828 27.8486C90.1582 28.2705 90.5332 28.5957 91.0078 28.8242C91.4883 29.0527 92.0273 29.167 92.625 29.167ZM103.269 29.0791C103.421 29.0791 103.57 29.0703 103.717 29.0527C103.863 29.0352 104.007 29.0146 104.147 28.9912V27.6904C104.013 27.7021 103.896 27.7109 103.796 27.7168C103.702 27.7227 103.588 27.7256 103.453 27.7256C102.967 27.7256 102.618 27.6055 102.407 27.3652C102.196 27.125 102.091 26.7295 102.091 26.1787V20.8086H104.147V19.543H102.091V17.0908H100.509V19.543H99.0234V20.8086H100.509V26.5479C100.509 27.4443 100.726 28.0918 101.159 28.4902C101.599 28.8828 102.302 29.0791 103.269 29.0791ZM110.124 29.167C110.681 29.167 111.182 29.0967 111.627 28.9561C112.072 28.8096 112.459 28.6162 112.787 28.376C113.121 28.1299 113.391 27.8574 113.596 27.5586C113.807 27.2539 113.953 26.9375 114.035 26.6094L114.053 26.5391H112.523L112.488 26.6182C112.406 26.8115 112.263 26.999 112.058 27.1807C111.853 27.3623 111.592 27.5117 111.275 27.6289C110.959 27.7461 110.587 27.8047 110.159 27.8047C109.585 27.8047 109.087 27.6787 108.665 27.4268C108.249 27.1689 107.927 26.8027 107.698 26.3281C107.47 25.8535 107.355 25.2793 107.355 24.6055V23.999C107.355 23.29 107.473 22.6924 107.707 22.2061C107.941 21.7197 108.258 21.3535 108.656 21.1074C109.055 20.8613 109.509 20.7383 110.019 20.7383C110.528 20.7383 110.979 20.8555 111.372 21.0898C111.765 21.3242 112.072 21.6816 112.295 22.1621C112.518 22.6426 112.629 23.2549 112.629 23.999V24.6055L113.385 23.4893H106.582V24.7109H114.167V24.1133C114.167 23.1699 114 22.3438 113.666 21.6348C113.338 20.9199 112.863 20.3662 112.242 19.9736C111.627 19.5752 110.889 19.376 110.027 19.376C109.172 19.376 108.425 19.584 107.786 20C107.153 20.4102 106.661 20.9844 106.31 21.7227C105.964 22.4609 105.791 23.3193 105.791 24.2979V24.3066C105.791 25.2969 105.964 26.1553 106.31 26.8818C106.661 27.6084 107.159 28.1709 107.804 28.5693C108.448 28.9678 109.222 29.167 110.124 29.167ZM124.125 29.167C124.553 29.167 124.945 29.1084 125.303 28.9912C125.66 28.8682 125.979 28.6895 126.261 28.4551C126.548 28.2207 126.791 27.9365 126.99 27.6025H127.131V29H128.66V22.5225C128.66 21.8662 128.52 21.3037 128.238 20.835C127.957 20.3662 127.55 20.0059 127.017 19.7539C126.483 19.502 125.83 19.376 125.057 19.376C124.383 19.376 123.782 19.4814 123.255 19.6924C122.728 19.8975 122.297 20.1875 121.963 20.5625C121.635 20.9375 121.433 21.374 121.356 21.8721L121.348 21.9248H122.868L122.877 21.8984C123 21.5234 123.243 21.2363 123.606 21.0371C123.97 20.832 124.436 20.7295 125.004 20.7295C125.713 20.7295 126.243 20.8848 126.595 21.1953C126.952 21.5 127.131 21.9453 127.131 22.5312V25.4668C127.131 25.918 127.014 26.3223 126.779 26.6797C126.551 27.0371 126.234 27.3213 125.83 27.5322C125.426 27.7373 124.963 27.8398 124.441 27.8398C123.891 27.8398 123.434 27.708 123.07 27.4443C122.713 27.1748 122.534 26.7998 122.534 26.3193V26.3018C122.534 25.8389 122.698 25.4785 123.026 25.2207C123.36 24.9629 123.885 24.8135 124.6 24.7725L127.896 24.5615V23.3398L124.415 23.5508C123.313 23.6152 122.464 23.8877 121.866 24.3682C121.269 24.8428 120.97 25.499 120.97 26.3369V26.3545C120.97 26.9287 121.107 27.4268 121.383 27.8486C121.658 28.2705 122.033 28.5957 122.508 28.8242C122.988 29.0527 123.527 29.167 124.125 29.167ZM136.43 29H137.959V23.4014C137.959 22.8447 138.059 22.3701 138.258 21.9775C138.463 21.5791 138.75 21.2715 139.119 21.0547C139.488 20.8379 139.922 20.7295 140.42 20.7295C141.176 20.7295 141.732 20.9346 142.09 21.3447C142.453 21.7549 142.635 22.3877 142.635 23.2432V29H144.164V22.874C144.164 21.7549 143.877 20.8936 143.303 20.29C142.734 19.6807 141.92 19.376 140.859 19.376C140.162 19.376 139.585 19.5166 139.128 19.7979C138.677 20.0732 138.331 20.46 138.091 20.958H137.959V19.543H136.43V29ZM150.747 29.167C151.304 29.167 151.805 29.0967 152.25 28.9561C152.695 28.8096 153.082 28.6162 153.41 28.376C153.744 28.1299 154.014 27.8574 154.219 27.5586C154.43 27.2539 154.576 26.9375 154.658 26.6094L154.676 26.5391H153.146L153.111 26.6182C153.029 26.8115 152.886 26.999 152.681 27.1807C152.476 27.3623 152.215 27.5117 151.898 27.6289C151.582 27.7461 151.21 27.8047 150.782 27.8047C150.208 27.8047 149.71 27.6787 149.288 27.4268C148.872 27.1689 148.55 26.8027 148.321 26.3281C148.093 25.8535 147.979 25.2793 147.979 24.6055V23.999C147.979 23.29 148.096 22.6924 148.33 22.2061C148.564 21.7197 148.881 21.3535 149.279 21.1074C149.678 20.8613 150.132 20.7383 150.642 20.7383C151.151 20.7383 151.603 20.8555 151.995 21.0898C152.388 21.3242 152.695 21.6816 152.918 22.1621C153.141 22.6426 153.252 23.2549 153.252 23.999V24.6055L154.008 23.4893H147.205V24.7109H154.79V24.1133C154.79 23.1699 154.623 22.3438 154.289 21.6348C153.961 20.9199 153.486 20.3662 152.865 19.9736C152.25 19.5752 151.512 19.376 150.65 19.376C149.795 19.376 149.048 19.584 148.409 20C147.776 20.4102 147.284 20.9844 146.933 21.7227C146.587 22.4609 146.414 23.3193 146.414 24.2979V24.3066C146.414 25.2969 146.587 26.1553 146.933 26.8818C147.284 27.6084 147.782 28.1709 148.427 28.5693C149.071 28.9678 149.845 29.167 150.747 29.167ZM158.965 29H160.494L162.604 21.6787H162.735L164.854 29H166.392L169.037 19.543H167.517L165.662 27.1104H165.521L163.403 19.543H161.953L159.835 27.1104H159.703L157.84 19.543H156.311L158.965 29ZM179.303 29.167C180.018 29.167 180.659 29.0469 181.228 28.8066C181.802 28.5664 182.253 28.2324 182.581 27.8047C182.915 27.3711 183.082 26.876 183.082 26.3193V26.3018C183.082 25.6221 182.865 25.0801 182.432 24.6758C181.998 24.2715 181.336 23.9609 180.445 23.7441L178.986 23.3926C178.436 23.2578 178.034 23.085 177.782 22.874C177.53 22.6631 177.404 22.3965 177.404 22.0742V22.0566C177.404 21.7754 177.489 21.5322 177.659 21.3271C177.829 21.1162 178.058 20.9521 178.345 20.835C178.638 20.7119 178.972 20.6504 179.347 20.6504C179.921 20.6504 180.387 20.7676 180.744 21.002C181.102 21.2363 181.327 21.5439 181.421 21.9248H181.43H182.924V21.916C182.859 21.4062 182.669 20.9609 182.353 20.5801C182.042 20.1934 181.629 19.8975 181.113 19.6924C180.604 19.4814 180.018 19.376 179.355 19.376C178.688 19.376 178.087 19.4961 177.554 19.7363C177.026 19.9707 176.607 20.2959 176.297 20.7119C175.992 21.1279 175.84 21.5996 175.84 22.127V22.1357C175.84 22.8154 176.048 23.3604 176.464 23.7705C176.88 24.1748 177.53 24.4824 178.415 24.6934L179.883 25.0449C180.463 25.1855 180.879 25.3701 181.131 25.5986C181.389 25.8213 181.518 26.0938 181.518 26.416V26.4336C181.518 26.7207 181.424 26.9727 181.236 27.1895C181.055 27.4062 180.8 27.5791 180.472 27.708C180.149 27.8311 179.777 27.8926 179.355 27.8926C178.746 27.8926 178.254 27.7725 177.879 27.5322C177.51 27.292 177.261 26.9727 177.132 26.5742H175.567C175.626 27.0957 175.816 27.5527 176.139 27.9453C176.467 28.332 176.9 28.6338 177.439 28.8506C177.979 29.0615 178.6 29.167 179.303 29.167ZM185.473 29H187.002V19.543H185.473V29ZM186.246 17.7236C186.539 17.7236 186.788 17.6211 186.993 17.416C187.198 17.2051 187.301 16.959 187.301 16.6777C187.301 16.3848 187.198 16.1357 186.993 15.9307C186.788 15.7256 186.539 15.623 186.246 15.623C185.959 15.623 185.713 15.7256 185.508 15.9307C185.303 16.1357 185.2 16.3848 185.2 16.6777C185.2 16.959 185.303 17.2051 185.508 17.416C185.713 17.6211 185.959 17.7236 186.246 17.7236ZM193.198 29.0791C193.351 29.0791 193.5 29.0703 193.646 29.0527C193.793 29.0352 193.937 29.0146 194.077 28.9912V27.6904C193.942 27.7021 193.825 27.7109 193.726 27.7168C193.632 27.7227 193.518 27.7256 193.383 27.7256C192.896 27.7256 192.548 27.6055 192.337 27.3652C192.126 27.125 192.021 26.7295 192.021 26.1787V20.8086H194.077V19.543H192.021V17.0908H190.438V19.543H188.953V20.8086H190.438V26.5479C190.438 27.4443 190.655 28.0918 191.089 28.4902C191.528 28.8828 192.231 29.0791 193.198 29.0791ZM200.054 29.167C200.61 29.167 201.111 29.0967 201.557 28.9561C202.002 28.8096 202.389 28.6162 202.717 28.376C203.051 28.1299 203.32 27.8574 203.525 27.5586C203.736 27.2539 203.883 26.9375 203.965 26.6094L203.982 26.5391H202.453L202.418 26.6182C202.336 26.8115 202.192 26.999 201.987 27.1807C201.782 27.3623 201.521 27.5117 201.205 27.6289C200.889 27.7461 200.517 27.8047 200.089 27.8047C199.515 27.8047 199.017 27.6787 198.595 27.4268C198.179 27.1689 197.856 26.8027 197.628 26.3281C197.399 25.8535 197.285 25.2793 197.285 24.6055V23.999C197.285 23.29 197.402 22.6924 197.637 22.2061C197.871 21.7197 198.188 21.3535 198.586 21.1074C198.984 20.8613 199.438 20.7383 199.948 20.7383C200.458 20.7383 200.909 20.8555 201.302 21.0898C201.694 21.3242 202.002 21.6816 202.225 22.1621C202.447 22.6426 202.559 23.2549 202.559 23.999V24.6055L203.314 23.4893H196.512V24.7109H204.097V24.1133C204.097 23.1699 203.93 22.3438 203.596 21.6348C203.268 20.9199 202.793 20.3662 202.172 19.9736C201.557 19.5752 200.818 19.376 199.957 19.376C199.102 19.376 198.354 19.584 197.716 20C197.083 20.4102 196.591 20.9844 196.239 21.7227C195.894 22.4609 195.721 23.3193 195.721 24.2979V24.3066C195.721 25.2969 195.894 26.1553 196.239 26.8818C196.591 27.6084 197.089 28.1709 197.733 28.5693C198.378 28.9678 199.151 29.167 200.054 29.167Z" fill="white"/>
<path d="M46.5 24.2857H38.7857V32H36.2143V24.2857H28.5V21.7143H36.2143V14H38.7857V21.7143H46.5V24.2857Z" fill="white"/>
<g clip-path="url(#clip0_240_51)">
<path fill-rule="evenodd" clip-rule="evenodd" d="M151.497 45.4774C151.071 44.9706 150.554 43.9343 149.633 42.6765C149.111 41.9649 147.816 40.6252 147.431 39.9447C147.096 39.3433 147.132 39.0736 147.212 38.5753C147.353 37.6887 148.319 36.9983 149.349 37.0915C150.128 37.1607 150.788 37.6449 151.382 38.1023C151.74 38.3776 152.181 38.9127 152.447 39.2148C152.691 39.4915 152.751 39.6059 153.012 39.9334C153.357 40.3668 153.465 40.5814 153.333 40.1042C153.227 39.404 153.053 38.2082 152.801 37.1508C152.609 36.3489 152.562 36.2233 152.379 35.6078C152.186 34.9527 152.087 34.4939 151.905 33.7993C151.779 33.308 151.553 32.3042 151.491 31.7395C151.406 30.9673 151.361 29.708 151.887 29.1292C152.3 28.676 153.246 28.539 153.833 28.8186C154.601 29.1842 155.037 30.2346 155.237 30.6539C155.595 31.4078 155.817 32.2788 156.011 33.4223C156.257 34.8779 156.71 36.8981 156.725 37.323C156.761 36.8021 156.623 35.7052 156.719 35.2054C156.806 34.7522 157.211 34.2256 157.718 34.083C158.147 33.963 158.649 33.9193 159.092 34.0054C159.561 34.0958 160.056 34.412 160.241 34.7099C160.784 35.5908 160.794 37.3908 160.817 37.2948C160.946 36.764 160.923 35.5598 161.243 35.0586C161.453 34.7282 161.988 34.4303 162.273 34.3823C162.714 34.3089 163.256 34.2863 163.719 34.371C164.093 34.4402 164.598 34.8581 164.735 35.0586C165.062 35.5442 165.248 36.9179 165.303 37.3993C165.326 37.5983 165.414 36.8459 165.743 36.3602C166.352 35.4581 168.507 35.283 168.59 37.2623C168.627 38.1856 168.62 38.1433 168.62 38.7645C168.62 39.4943 168.602 39.9334 168.56 40.4614C168.513 41.0261 168.384 42.3023 168.197 42.9207C168.068 43.3456 167.64 44.3014 167.219 44.8746C167.219 44.8746 165.608 46.6393 165.432 47.4341C165.255 48.2275 165.314 48.2332 165.279 48.7965C165.245 49.3583 165.461 50.0981 165.461 50.0981C165.461 50.0981 164.258 50.2449 163.61 50.1475C163.023 50.0586 162.297 48.9602 162.11 48.6242C161.852 48.1612 161.301 48.2501 161.087 48.5918C160.749 49.1325 160.023 50.1023 159.51 50.1631C158.508 50.2816 156.429 50.2068 154.802 50.1913C154.802 50.1913 155.079 48.764 154.461 48.2741C154.004 47.9085 153.216 47.1673 152.745 46.7776L151.497 45.4774Z" fill="white"/>
<path fill-rule="evenodd" clip-rule="evenodd" d="M151.497 45.4774C151.071 44.9706 150.554 43.9343 149.633 42.6765C149.111 41.9649 147.816 40.6252 147.431 39.9447C147.096 39.3433 147.132 39.0736 147.212 38.5753C147.353 37.6887 148.319 36.9983 149.349 37.0915C150.128 37.1607 150.788 37.6449 151.382 38.1023C151.74 38.3776 152.181 38.9127 152.447 39.2148C152.691 39.4915 152.751 39.6059 153.012 39.9334C153.357 40.3668 153.465 40.5814 153.333 40.1042C153.227 39.404 153.053 38.2082 152.801 37.1508C152.609 36.3489 152.562 36.2233 152.379 35.6078C152.186 34.9527 152.087 34.4939 151.905 33.7993C151.779 33.308 151.553 32.3042 151.491 31.7395C151.406 30.9673 151.361 29.708 151.887 29.1292C152.3 28.676 153.246 28.539 153.833 28.8186C154.601 29.1842 155.037 30.2346 155.237 30.6539C155.595 31.4078 155.817 32.2788 156.011 33.4223C156.257 34.8779 156.71 36.8981 156.725 37.323C156.761 36.8021 156.623 35.7052 156.719 35.2054C156.806 34.7522 157.211 34.2256 157.718 34.083C158.147 33.963 158.649 33.9193 159.092 34.0054C159.561 34.0958 160.056 34.412 160.241 34.7099C160.784 35.5908 160.794 37.3908 160.817 37.2948C160.946 36.764 160.923 35.5598 161.243 35.0586C161.453 34.7282 161.988 34.4303 162.273 34.3823C162.714 34.3089 163.256 34.2863 163.719 34.371C164.093 34.4402 164.598 34.8581 164.735 35.0586C165.062 35.5442 165.248 36.9179 165.303 37.3993C165.326 37.5983 165.414 36.8459 165.743 36.3602C166.352 35.4581 168.507 35.283 168.59 37.2623C168.627 38.1856 168.62 38.1433 168.62 38.7645C168.62 39.4943 168.602 39.9334 168.56 40.4614C168.513 41.0261 168.384 42.3023 168.197 42.9207C168.068 43.3456 167.64 44.3014 167.219 44.8746C167.219 44.8746 165.608 46.6393 165.432 47.4341C165.255 48.2275 165.314 48.2332 165.279 48.7965C165.245 49.3583 165.461 50.0981 165.461 50.0981C165.461 50.0981 164.258 50.2449 163.61 50.1475C163.023 50.0586 162.297 48.9602 162.11 48.6242C161.852 48.1612 161.301 48.2501 161.087 48.5918C160.749 49.1325 160.023 50.1023 159.51 50.1631C158.508 50.2816 156.429 50.2068 154.802 50.1913C154.802 50.1913 155.079 48.764 154.461 48.2741C154.004 47.9085 153.216 47.1673 152.745 46.7776L151.497 45.4774Z" stroke="black" stroke-width="0.75" stroke-linecap="round" stroke-linejoin="round"/>
<path d="M163.85 45.9778V41.0945" stroke="black" stroke-width="0.75" stroke-linecap="round"/>
<path d="M160.826 45.9944L160.802 41.0913" stroke="black" stroke-width="0.75" stroke-linecap="round"/>
<path d="M157.832 41.136L157.864 45.9727" stroke="black" stroke-width="0.75" stroke-linecap="round"/>
</g>
<defs>
<clipPath id="clip0_240_51">
<rect width="24" height="24" fill="white" transform="translate(146.5 28)"/>
</clipPath>
</defs>
</svg>
