<svg width="645" height="209" viewBox="0 0 645 209" fill="none" xmlns="http://www.w3.org/2000/svg">
<rect x="0.5" y="0.5" width="644" height="208" rx="7.5" fill="#F5F5F5" stroke="#D4D4D4"/>
<path d="M42.3223 56.3418C43.8353 56.3418 45.1934 56.0547 46.3965 55.4805C47.5996 54.8971 48.5794 54.0905 49.3359 53.0605C50.0924 52.0306 50.5527 50.8457 50.7168 49.5059L50.7441 49.3555H47.2852L47.2441 49.4922C47.0345 50.3034 46.7018 50.9915 46.2461 51.5566C45.7904 52.1217 45.2298 52.5547 44.5645 52.8555C43.9082 53.1471 43.1608 53.293 42.3223 53.293C41.1829 53.293 40.1849 53.0013 39.3281 52.418C38.4805 51.8255 37.8242 50.9961 37.3594 49.9297C36.8945 48.8542 36.6621 47.5872 36.6621 46.1289V46.1152C36.6621 44.6478 36.8945 43.3854 37.3594 42.3281C37.8242 41.2617 38.4805 40.4368 39.3281 39.8535C40.1758 39.2702 41.1738 38.9785 42.3223 38.9785C43.179 38.9785 43.9401 39.1289 44.6055 39.4297C45.2708 39.7305 45.8223 40.1543 46.2598 40.7012C46.6973 41.248 47.0117 41.8997 47.2031 42.6562L47.2715 42.916H50.7305L50.7168 42.7793C50.5436 41.4395 50.0788 40.2546 49.3223 39.2246C48.5658 38.1947 47.5859 37.388 46.3828 36.8047C45.1888 36.2214 43.8353 35.9297 42.3223 35.9297C40.4355 35.9297 38.7995 36.3444 37.4141 37.1738C36.0286 37.9941 34.9577 39.1654 34.2012 40.6875C33.4447 42.2096 33.0664 44.0189 33.0664 46.1152V46.1289C33.0664 48.2253 33.4401 50.0391 34.1875 51.5703C34.944 53.0924 36.015 54.2682 37.4004 55.0977C38.7949 55.9271 40.4355 56.3418 42.3223 56.3418ZM59.4941 56.2871C60.916 56.2871 62.151 55.9863 63.1992 55.3848C64.2474 54.7832 65.0586 53.9219 65.6328 52.8008C66.2161 51.6706 66.5078 50.3216 66.5078 48.7539V48.7266C66.5078 47.168 66.2161 45.8281 65.6328 44.707C65.0495 43.5859 64.2292 42.7246 63.1719 42.123C62.1237 41.5124 60.8932 41.207 59.4805 41.207C58.0768 41.207 56.8509 41.5124 55.8027 42.123C54.7546 42.7246 53.9388 43.5905 53.3555 44.7207C52.7721 45.8418 52.4805 47.1771 52.4805 48.7266V48.7539C52.4805 50.3125 52.7676 51.6569 53.3418 52.7871C53.9251 53.9082 54.7409 54.7741 55.7891 55.3848C56.8372 55.9863 58.0723 56.2871 59.4941 56.2871ZM59.5078 53.5391C58.7878 53.5391 58.1589 53.3522 57.6211 52.9785C57.0924 52.6048 56.6777 52.0625 56.377 51.3516C56.0853 50.6315 55.9395 49.7656 55.9395 48.7539V48.7266C55.9395 47.724 56.0853 46.8672 56.377 46.1562C56.6777 45.4453 57.0924 44.903 57.6211 44.5293C58.1589 44.1556 58.7786 43.9688 59.4805 43.9688C60.2005 43.9688 60.8249 44.1556 61.3535 44.5293C61.8913 44.903 62.306 45.4453 62.5977 46.1562C62.8893 46.8672 63.0352 47.724 63.0352 48.7266V48.7539C63.0352 49.7656 62.8893 50.6315 62.5977 51.3516C62.3151 52.0625 61.9095 52.6048 61.3809 52.9785C60.8522 53.3522 60.2279 53.5391 59.5078 53.5391ZM68.6953 56H72.0859V47.5918C72.0859 46.89 72.2181 46.2793 72.4824 45.7598C72.7467 45.2311 73.1204 44.821 73.6035 44.5293C74.0866 44.2285 74.6517 44.0781 75.2988 44.0781C76.265 44.0781 76.9896 44.3607 77.4727 44.9258C77.9557 45.4818 78.1973 46.2747 78.1973 47.3047V56H81.6016V46.6211C81.6016 44.944 81.1641 43.6224 80.2891 42.6562C79.4232 41.6901 78.1927 41.207 76.5977 41.207C75.5039 41.207 74.5833 41.4395 73.8359 41.9043C73.0977 42.3691 72.5417 42.9935 72.168 43.7773H72.0859V41.5078H68.6953V56ZM90.8711 61.0723C92.2747 61.0723 93.487 60.8444 94.5078 60.3887C95.5286 59.9329 96.3171 59.2904 96.873 58.4609C97.429 57.6406 97.707 56.6836 97.707 55.5898V41.5078H94.3027V43.9688H94.2207C93.9473 43.4128 93.5918 42.9297 93.1543 42.5195C92.7259 42.1094 92.2246 41.7904 91.6504 41.5625C91.0762 41.3255 90.4473 41.207 89.7637 41.207C88.5423 41.207 87.4805 41.5078 86.5781 42.1094C85.6758 42.7109 84.974 43.5632 84.4727 44.666C83.9805 45.7598 83.7344 47.0723 83.7344 48.6035V48.6172C83.7344 50.1211 83.9759 51.4199 84.459 52.5137C84.9512 53.5983 85.6439 54.4368 86.5371 55.0293C87.4395 55.6217 88.4967 55.918 89.709 55.918C90.4017 55.918 91.0397 55.8132 91.623 55.6035C92.2155 55.3939 92.7305 55.1022 93.168 54.7285C93.6146 54.3548 93.9701 53.9082 94.2344 53.3887H94.3027V55.4805C94.3027 56.401 94.0065 57.1348 93.4141 57.6816C92.8216 58.2285 91.9694 58.502 90.8574 58.502C89.9824 58.502 89.2578 58.3607 88.6836 58.0781C88.1185 57.8047 87.7448 57.4583 87.5625 57.0391L87.5078 56.9297H84.1719L84.1992 57.0527C84.3359 57.8092 84.6868 58.4928 85.252 59.1035C85.8171 59.7142 86.5736 60.1927 87.5215 60.5391C88.4785 60.8945 89.5951 61.0723 90.8711 61.0723ZM90.7754 53.293C90.0462 53.293 89.4128 53.1061 88.875 52.7324C88.3372 52.3587 87.9225 51.8301 87.6309 51.1465C87.3392 50.4538 87.1934 49.6335 87.1934 48.6855V48.6719C87.1934 47.724 87.3392 46.9082 87.6309 46.2246C87.9225 45.541 88.3372 45.0124 88.875 44.6387C89.4128 44.265 90.0462 44.0781 90.7754 44.0781C91.4772 44.0781 92.0924 44.265 92.6211 44.6387C93.1497 45.0124 93.5645 45.5456 93.8652 46.2383C94.166 46.9219 94.3164 47.7331 94.3164 48.6719V48.6855C94.3164 49.6152 94.166 50.4264 93.8652 51.1191C93.5736 51.8118 93.1634 52.3496 92.6348 52.7324C92.1061 53.1061 91.4863 53.293 90.7754 53.293ZM100.496 56H103.887V47.5918C103.887 46.8717 104.01 46.2611 104.256 45.7598C104.502 45.2585 104.857 44.8802 105.322 44.625C105.787 44.3607 106.339 44.2285 106.977 44.2285C107.268 44.2285 107.537 44.2467 107.783 44.2832C108.038 44.3197 108.234 44.3652 108.371 44.4199V41.3438C108.243 41.3073 108.084 41.2754 107.893 41.248C107.701 41.2207 107.501 41.207 107.291 41.207C106.452 41.207 105.742 41.4577 105.158 41.959C104.584 42.4512 104.188 43.1348 103.969 44.0098H103.887V41.5078H100.496V56ZM114.072 56.2461C114.71 56.2461 115.307 56.1458 115.863 55.9453C116.428 55.7448 116.93 55.4577 117.367 55.084C117.805 54.7103 118.16 54.2728 118.434 53.7715H118.516V56H121.906V46.0332C121.906 45.0579 121.66 44.2103 121.168 43.4902C120.685 42.7702 119.997 42.2096 119.104 41.8086C118.219 41.4076 117.171 41.207 115.959 41.207C114.738 41.207 113.68 41.403 112.787 41.7949C111.903 42.1868 111.21 42.7246 110.709 43.4082C110.208 44.0827 109.921 44.8483 109.848 45.7051L109.834 45.8691H112.979L113.006 45.7461C113.124 45.2083 113.425 44.7708 113.908 44.4336C114.391 44.0872 115.034 43.9141 115.836 43.9141C116.702 43.9141 117.363 44.1283 117.818 44.5566C118.283 44.9759 118.516 45.5501 118.516 46.2793V50.627C118.516 51.2012 118.365 51.7161 118.064 52.1719C117.764 52.6276 117.354 52.9876 116.834 53.252C116.324 53.5163 115.74 53.6484 115.084 53.6484C114.337 53.6484 113.735 53.4798 113.279 53.1426C112.833 52.7962 112.609 52.3268 112.609 51.7344V51.7207C112.609 51.1465 112.833 50.6862 113.279 50.3398C113.726 49.9935 114.368 49.793 115.207 49.7383L120.266 49.4238V47.168L114.729 47.5098C112.979 47.61 111.62 48.0384 110.654 48.7949C109.697 49.5423 109.219 50.5586 109.219 51.8438V51.8711C109.219 52.7279 109.419 53.4889 109.82 54.1543C110.23 54.8105 110.8 55.3255 111.529 55.6992C112.268 56.0638 113.115 56.2461 114.072 56.2461ZM130.041 56.2871C130.396 56.2871 130.715 56.2734 130.998 56.2461C131.29 56.2188 131.536 56.1914 131.736 56.1641V53.6074C131.618 53.6165 131.49 53.6302 131.354 53.6484C131.226 53.6576 131.076 53.6621 130.902 53.6621C130.292 53.6621 129.827 53.5299 129.508 53.2656C129.198 52.9922 129.043 52.5046 129.043 51.8027V44.1328H131.736V41.5078H129.043V37.8301H125.584V41.5078H123.533V44.1328H125.584V52.0762C125.584 53.571 125.949 54.6465 126.678 55.3027C127.416 55.959 128.537 56.2871 130.041 56.2871ZM139.01 56.2871C140.113 56.2871 141.033 56.0547 141.771 55.5898C142.51 55.125 143.066 54.5052 143.439 53.7305H143.508V56H146.912V41.5078H143.508V49.9023C143.508 50.6042 143.376 51.2194 143.111 51.748C142.847 52.2767 142.473 52.6914 141.99 52.9922C141.516 53.2839 140.956 53.4297 140.309 53.4297C139.333 53.4297 138.604 53.1517 138.121 52.5957C137.638 52.0306 137.396 51.2331 137.396 50.2031V41.5078H134.006V50.8867C134.006 51.9987 134.202 52.9603 134.594 53.7715C134.986 54.5827 135.551 55.207 136.289 55.6445C137.036 56.0729 137.943 56.2871 139.01 56.2871ZM149.811 56H153.215V36.2715H149.811V56ZM160.393 56.2461C161.031 56.2461 161.628 56.1458 162.184 55.9453C162.749 55.7448 163.25 55.4577 163.688 55.084C164.125 54.7103 164.48 54.2728 164.754 53.7715H164.836V56H168.227V46.0332C168.227 45.0579 167.98 44.2103 167.488 43.4902C167.005 42.7702 166.317 42.2096 165.424 41.8086C164.54 41.4076 163.492 41.207 162.279 41.207C161.058 41.207 160.001 41.403 159.107 41.7949C158.223 42.1868 157.531 42.7246 157.029 43.4082C156.528 44.0827 156.241 44.8483 156.168 45.7051L156.154 45.8691H159.299L159.326 45.7461C159.445 45.2083 159.745 44.7708 160.229 44.4336C160.712 44.0872 161.354 43.9141 162.156 43.9141C163.022 43.9141 163.683 44.1283 164.139 44.5566C164.604 44.9759 164.836 45.5501 164.836 46.2793V50.627C164.836 51.2012 164.686 51.7161 164.385 52.1719C164.084 52.6276 163.674 52.9876 163.154 53.252C162.644 53.5163 162.061 53.6484 161.404 53.6484C160.657 53.6484 160.055 53.4798 159.6 53.1426C159.153 52.7962 158.93 52.3268 158.93 51.7344V51.7207C158.93 51.1465 159.153 50.6862 159.6 50.3398C160.046 49.9935 160.689 49.793 161.527 49.7383L166.586 49.4238V47.168L161.049 47.5098C159.299 47.61 157.941 48.0384 156.975 48.7949C156.018 49.5423 155.539 50.5586 155.539 51.8438V51.8711C155.539 52.7279 155.74 53.4889 156.141 54.1543C156.551 54.8105 157.12 55.3255 157.85 55.6992C158.588 56.0638 159.436 56.2461 160.393 56.2461ZM176.361 56.2871C176.717 56.2871 177.036 56.2734 177.318 56.2461C177.61 56.2188 177.856 56.1914 178.057 56.1641V53.6074C177.938 53.6165 177.811 53.6302 177.674 53.6484C177.546 53.6576 177.396 53.6621 177.223 53.6621C176.612 53.6621 176.147 53.5299 175.828 53.2656C175.518 52.9922 175.363 52.5046 175.363 51.8027V44.1328H178.057V41.5078H175.363V37.8301H171.904V41.5078H169.854V44.1328H171.904V52.0762C171.904 53.571 172.269 54.6465 172.998 55.3027C173.736 55.959 174.857 56.2871 176.361 56.2871ZM180.49 56H183.895V41.5078H180.49V56ZM182.186 39.4297C182.723 39.4297 183.174 39.2474 183.539 38.8828C183.904 38.5182 184.086 38.0807 184.086 37.5703C184.086 37.0508 183.904 36.6133 183.539 36.2578C183.174 35.8932 182.723 35.7109 182.186 35.7109C181.657 35.7109 181.21 35.8932 180.846 36.2578C180.481 36.6133 180.299 37.0508 180.299 37.5703C180.299 38.0807 180.481 38.5182 180.846 38.8828C181.21 39.2474 181.657 39.4297 182.186 39.4297ZM193.205 56.2871C194.627 56.2871 195.862 55.9863 196.91 55.3848C197.958 54.7832 198.77 53.9219 199.344 52.8008C199.927 51.6706 200.219 50.3216 200.219 48.7539V48.7266C200.219 47.168 199.927 45.8281 199.344 44.707C198.76 43.5859 197.94 42.7246 196.883 42.123C195.835 41.5124 194.604 41.207 193.191 41.207C191.788 41.207 190.562 41.5124 189.514 42.123C188.465 42.7246 187.65 43.5905 187.066 44.7207C186.483 45.8418 186.191 47.1771 186.191 48.7266V48.7539C186.191 50.3125 186.479 51.6569 187.053 52.7871C187.636 53.9082 188.452 54.7741 189.5 55.3848C190.548 55.9863 191.783 56.2871 193.205 56.2871ZM193.219 53.5391C192.499 53.5391 191.87 53.3522 191.332 52.9785C190.803 52.6048 190.389 52.0625 190.088 51.3516C189.796 50.6315 189.65 49.7656 189.65 48.7539V48.7266C189.65 47.724 189.796 46.8672 190.088 46.1562C190.389 45.4453 190.803 44.903 191.332 44.5293C191.87 44.1556 192.49 43.9688 193.191 43.9688C193.911 43.9688 194.536 44.1556 195.064 44.5293C195.602 44.903 196.017 45.4453 196.309 46.1562C196.6 46.8672 196.746 47.724 196.746 48.7266V48.7539C196.746 49.7656 196.6 50.6315 196.309 51.3516C196.026 52.0625 195.62 52.6048 195.092 52.9785C194.563 53.3522 193.939 53.5391 193.219 53.5391ZM202.406 56H205.797V47.5918C205.797 46.89 205.929 46.2793 206.193 45.7598C206.458 45.2311 206.831 44.821 207.314 44.5293C207.798 44.2285 208.363 44.0781 209.01 44.0781C209.976 44.0781 210.701 44.3607 211.184 44.9258C211.667 45.4818 211.908 46.2747 211.908 47.3047V56H215.312V46.6211C215.312 44.944 214.875 43.6224 214 42.6562C213.134 41.6901 211.904 41.207 210.309 41.207C209.215 41.207 208.294 41.4395 207.547 41.9043C206.809 42.3691 206.253 42.9935 205.879 43.7773H205.797V41.5078H202.406V56ZM223.707 56.2871C224.892 56.2871 225.94 56.1003 226.852 55.7266C227.772 55.3438 228.492 54.8105 229.012 54.127C229.531 53.4342 229.791 52.6322 229.791 51.7207V51.707C229.791 50.6589 229.472 49.8249 228.834 49.2051C228.196 48.5762 227.125 48.0931 225.621 47.7559L223.215 47.2227C222.467 47.0495 221.934 46.8216 221.615 46.5391C221.305 46.2565 221.15 45.9102 221.15 45.5V45.4863C221.15 45.1309 221.246 44.821 221.438 44.5566C221.638 44.2923 221.921 44.0872 222.285 43.9414C222.659 43.7956 223.096 43.7227 223.598 43.7227C224.391 43.7227 225.015 43.9141 225.471 44.2969C225.926 44.6706 226.191 45.1491 226.264 45.7324L226.277 45.8418H229.449L229.436 45.6914C229.399 44.8529 229.144 44.0964 228.67 43.4219C228.205 42.7474 227.544 42.2096 226.688 41.8086C225.831 41.4076 224.801 41.207 223.598 41.207C222.44 41.207 221.424 41.3939 220.549 41.7676C219.674 42.1413 218.995 42.6608 218.512 43.3262C218.029 43.9915 217.787 44.7663 217.787 45.6504V45.6641C217.787 46.7396 218.133 47.6191 218.826 48.3027C219.528 48.9863 220.572 49.4785 221.957 49.7793L224.363 50.3125C225.12 50.4857 225.644 50.709 225.936 50.9824C226.227 51.2467 226.373 51.5931 226.373 52.0215V52.0352C226.373 52.3906 226.264 52.7005 226.045 52.9648C225.835 53.2292 225.535 53.4297 225.143 53.5664C224.751 53.7031 224.277 53.7715 223.721 53.7715C222.855 53.7715 222.18 53.5983 221.697 53.252C221.223 52.9056 220.923 52.418 220.795 51.7891L220.768 51.666H217.418L217.432 51.7891C217.541 52.6823 217.846 53.4707 218.348 54.1543C218.858 54.8288 219.56 55.3529 220.453 55.7266C221.355 56.1003 222.44 56.2871 223.707 56.2871ZM233.264 49.3965H236.23L236.49 36.2715H232.99L233.264 49.3965ZM234.74 56.1504C235.296 56.1504 235.766 55.9635 236.148 55.5898C236.531 55.2161 236.723 54.7604 236.723 54.2227C236.723 53.6758 236.531 53.2201 236.148 52.8555C235.766 52.4818 235.296 52.2949 234.74 52.2949C234.193 52.2949 233.724 52.4818 233.332 52.8555C232.949 53.2201 232.758 53.6758 232.758 54.2227C232.758 54.7604 232.949 55.2161 233.332 55.5898C233.724 55.9635 234.193 56.1504 234.74 56.1504ZM251.83 56H255.344V48.2207L262.262 36.2715H258.406L253.635 44.8574H253.539L248.768 36.2715H244.912L251.83 48.2207V56ZM267.58 56.2871C269.002 56.2871 270.237 55.9863 271.285 55.3848C272.333 54.7832 273.145 53.9219 273.719 52.8008C274.302 51.6706 274.594 50.3216 274.594 48.7539V48.7266C274.594 47.168 274.302 45.8281 273.719 44.707C273.135 43.5859 272.315 42.7246 271.258 42.123C270.21 41.5124 268.979 41.207 267.566 41.207C266.163 41.207 264.937 41.5124 263.889 42.123C262.84 42.7246 262.025 43.5905 261.441 44.7207C260.858 45.8418 260.566 47.1771 260.566 48.7266V48.7539C260.566 50.3125 260.854 51.6569 261.428 52.7871C262.011 53.9082 262.827 54.7741 263.875 55.3848C264.923 55.9863 266.158 56.2871 267.58 56.2871ZM267.594 53.5391C266.874 53.5391 266.245 53.3522 265.707 52.9785C265.178 52.6048 264.764 52.0625 264.463 51.3516C264.171 50.6315 264.025 49.7656 264.025 48.7539V48.7266C264.025 47.724 264.171 46.8672 264.463 46.1562C264.764 45.4453 265.178 44.903 265.707 44.5293C266.245 44.1556 266.865 43.9688 267.566 43.9688C268.286 43.9688 268.911 44.1556 269.439 44.5293C269.977 44.903 270.392 45.4453 270.684 46.1562C270.975 46.8672 271.121 47.724 271.121 48.7266V48.7539C271.121 49.7656 270.975 50.6315 270.684 51.3516C270.401 52.0625 269.995 52.6048 269.467 52.9785C268.938 53.3522 268.314 53.5391 267.594 53.5391ZM281.717 56.2871C282.82 56.2871 283.74 56.0547 284.479 55.5898C285.217 55.125 285.773 54.5052 286.146 53.7305H286.215V56H289.619V41.5078H286.215V49.9023C286.215 50.6042 286.083 51.2194 285.818 51.748C285.554 52.2767 285.18 52.6914 284.697 52.9922C284.223 53.2839 283.663 53.4297 283.016 53.4297C282.04 53.4297 281.311 53.1517 280.828 52.5957C280.345 52.0306 280.104 51.2331 280.104 50.2031V41.5078H276.713V50.8867C276.713 51.9987 276.909 52.9603 277.301 53.7715C277.693 54.5827 278.258 55.207 278.996 55.6445C279.743 56.0729 280.65 56.2871 281.717 56.2871ZM292.422 56H295.812V47.5918C295.812 46.8717 295.936 46.2611 296.182 45.7598C296.428 45.2585 296.783 44.8802 297.248 44.625C297.713 44.3607 298.264 44.2285 298.902 44.2285C299.194 44.2285 299.463 44.2467 299.709 44.2832C299.964 44.3197 300.16 44.3652 300.297 44.4199V41.3438C300.169 41.3073 300.01 41.2754 299.818 41.248C299.627 41.2207 299.426 41.207 299.217 41.207C298.378 41.207 297.667 41.4577 297.084 41.959C296.51 42.4512 296.113 43.1348 295.895 44.0098H295.812V41.5078H292.422V56ZM314.078 56.2871C315.299 56.2871 316.37 56.0547 317.291 55.5898C318.212 55.1159 318.945 54.4779 319.492 53.6758C320.039 52.8737 320.358 51.9714 320.449 50.9688L320.463 50.873H317.25L317.223 50.9961C317.068 51.7526 316.721 52.3678 316.184 52.8418C315.655 53.3066 314.958 53.5391 314.092 53.5391C313.381 53.5391 312.757 53.3522 312.219 52.9785C311.69 52.5957 311.275 52.0488 310.975 51.3379C310.683 50.627 310.537 49.7702 310.537 48.7676V48.7539C310.537 47.7604 310.683 46.9082 310.975 46.1973C311.266 45.4863 311.676 44.9395 312.205 44.5566C312.743 44.1647 313.367 43.9688 314.078 43.9688C314.98 43.9688 315.691 44.2194 316.211 44.7207C316.74 45.2129 317.072 45.8099 317.209 46.5117L317.236 46.6211H320.436V46.5254C320.363 45.5592 320.062 44.6751 319.533 43.873C319.005 43.071 318.275 42.4284 317.346 41.9453C316.416 41.4531 315.313 41.207 314.037 41.207C312.633 41.207 311.408 41.5124 310.359 42.123C309.32 42.7337 308.514 43.6042 307.939 44.7344C307.365 45.8555 307.078 47.1862 307.078 48.7266V48.7402C307.078 50.2897 307.361 51.6296 307.926 52.7598C308.5 53.89 309.311 54.7604 310.359 55.3711C311.408 55.9818 312.647 56.2871 314.078 56.2871ZM328.912 56.2871C330.334 56.2871 331.569 55.9863 332.617 55.3848C333.665 54.7832 334.477 53.9219 335.051 52.8008C335.634 51.6706 335.926 50.3216 335.926 48.7539V48.7266C335.926 47.168 335.634 45.8281 335.051 44.707C334.467 43.5859 333.647 42.7246 332.59 42.123C331.542 41.5124 330.311 41.207 328.898 41.207C327.495 41.207 326.269 41.5124 325.221 42.123C324.173 42.7246 323.357 43.5905 322.773 44.7207C322.19 45.8418 321.898 47.1771 321.898 48.7266V48.7539C321.898 50.3125 322.186 51.6569 322.76 52.7871C323.343 53.9082 324.159 54.7741 325.207 55.3848C326.255 55.9863 327.49 56.2871 328.912 56.2871ZM328.926 53.5391C328.206 53.5391 327.577 53.3522 327.039 52.9785C326.51 52.6048 326.096 52.0625 325.795 51.3516C325.503 50.6315 325.357 49.7656 325.357 48.7539V48.7266C325.357 47.724 325.503 46.8672 325.795 46.1562C326.096 45.4453 326.51 44.903 327.039 44.5293C327.577 44.1556 328.197 43.9688 328.898 43.9688C329.618 43.9688 330.243 44.1556 330.771 44.5293C331.309 44.903 331.724 45.4453 332.016 46.1562C332.307 46.8672 332.453 47.724 332.453 48.7266V48.7539C332.453 49.7656 332.307 50.6315 332.016 51.3516C331.733 52.0625 331.327 52.6048 330.799 52.9785C330.27 53.3522 329.646 53.5391 328.926 53.5391ZM338.113 56H341.504V47.127C341.504 46.5345 341.622 46.0104 341.859 45.5547C342.105 45.099 342.438 44.7389 342.857 44.4746C343.277 44.2103 343.76 44.0781 344.307 44.0781C345.1 44.0781 345.724 44.3151 346.18 44.7891C346.645 45.2539 346.877 45.8965 346.877 46.7168V56H350.186V47.0449C350.186 46.4616 350.299 45.9466 350.527 45.5C350.764 45.0534 351.088 44.707 351.498 44.4609C351.917 44.2057 352.4 44.0781 352.947 44.0781C353.786 44.0781 354.428 44.3242 354.875 44.8164C355.322 45.3086 355.545 46.0013 355.545 46.8945V56H358.949V46.0605C358.949 45.0853 358.749 44.2376 358.348 43.5176C357.956 42.7884 357.404 42.2233 356.693 41.8223C355.992 41.4121 355.162 41.207 354.205 41.207C353.512 41.207 352.865 41.3301 352.264 41.5762C351.671 41.8132 351.152 42.1504 350.705 42.5879C350.268 43.0163 349.93 43.5312 349.693 44.1328H349.625C349.452 43.513 349.174 42.9889 348.791 42.5605C348.417 42.123 347.962 41.7904 347.424 41.5625C346.886 41.3255 346.28 41.207 345.605 41.207C344.648 41.207 343.814 41.4486 343.104 41.9316C342.393 42.4056 341.887 43.0391 341.586 43.832H341.504V41.5078H338.113V56ZM361.684 56H365.074V47.127C365.074 46.5345 365.193 46.0104 365.43 45.5547C365.676 45.099 366.008 44.7389 366.428 44.4746C366.847 44.2103 367.33 44.0781 367.877 44.0781C368.67 44.0781 369.294 44.3151 369.75 44.7891C370.215 45.2539 370.447 45.8965 370.447 46.7168V56H373.756V47.0449C373.756 46.4616 373.87 45.9466 374.098 45.5C374.335 45.0534 374.658 44.707 375.068 44.4609C375.488 44.2057 375.971 44.0781 376.518 44.0781C377.356 44.0781 377.999 44.3242 378.445 44.8164C378.892 45.3086 379.115 46.0013 379.115 46.8945V56H382.52V46.0605C382.52 45.0853 382.319 44.2376 381.918 43.5176C381.526 42.7884 380.975 42.2233 380.264 41.8223C379.562 41.4121 378.732 41.207 377.775 41.207C377.083 41.207 376.436 41.3301 375.834 41.5762C375.242 41.8132 374.722 42.1504 374.275 42.5879C373.838 43.0163 373.501 43.5312 373.264 44.1328H373.195C373.022 43.513 372.744 42.9889 372.361 42.5605C371.988 42.123 371.532 41.7904 370.994 41.5625C370.456 41.3255 369.85 41.207 369.176 41.207C368.219 41.207 367.385 41.4486 366.674 41.9316C365.963 42.4056 365.457 43.0391 365.156 43.832H365.074V41.5078H361.684V56ZM391.625 56.2871C392.564 56.2871 393.402 56.1641 394.141 55.918C394.879 55.6628 395.517 55.321 396.055 54.8926C396.592 54.4642 397.021 53.9857 397.34 53.457C397.659 52.9193 397.878 52.3724 397.996 51.8164L398.023 51.666H394.852L394.824 51.7617C394.715 52.0898 394.519 52.3952 394.236 52.6777C393.963 52.9603 393.612 53.1927 393.184 53.375C392.755 53.5482 392.258 53.6348 391.693 53.6348C390.937 53.6348 390.285 53.4707 389.738 53.1426C389.191 52.8053 388.768 52.3268 388.467 51.707C388.175 51.0781 388.029 50.3216 388.029 49.4375V48.125C388.029 47.2135 388.175 46.4388 388.467 45.8008C388.768 45.1628 389.178 44.6842 389.697 44.3652C390.226 44.0371 390.827 43.873 391.502 43.873C392.167 43.873 392.755 44.0326 393.266 44.3516C393.776 44.6615 394.177 45.1309 394.469 45.7598C394.76 46.3887 394.906 47.1771 394.906 48.125V49.4375L396.547 47.3184H386.334V49.5879H398.174V48.4941C398.174 47.0358 397.9 45.7598 397.354 44.666C396.816 43.5723 396.041 42.7246 395.029 42.123C394.027 41.5124 392.837 41.207 391.461 41.207C390.076 41.207 388.872 41.5215 387.852 42.1504C386.84 42.7793 386.051 43.6634 385.486 44.8027C384.93 45.9329 384.652 47.2591 384.652 48.7812V48.7949C384.652 50.3262 384.93 51.6523 385.486 52.7734C386.042 53.8945 386.84 54.7604 387.879 55.3711C388.927 55.9818 390.176 56.2871 391.625 56.2871ZM400.348 56H403.738V47.5918C403.738 46.89 403.87 46.2793 404.135 45.7598C404.399 45.2311 404.773 44.821 405.256 44.5293C405.739 44.2285 406.304 44.0781 406.951 44.0781C407.917 44.0781 408.642 44.3607 409.125 44.9258C409.608 45.4818 409.85 46.2747 409.85 47.3047V56H413.254V46.6211C413.254 44.944 412.816 43.6224 411.941 42.6562C411.076 41.6901 409.845 41.207 408.25 41.207C407.156 41.207 406.236 41.4395 405.488 41.9043C404.75 42.3691 404.194 42.9935 403.82 43.7773H403.738V41.5078H400.348V56ZM421.361 56.2871C421.717 56.2871 422.036 56.2734 422.318 56.2461C422.61 56.2188 422.856 56.1914 423.057 56.1641V53.6074C422.938 53.6165 422.811 53.6302 422.674 53.6484C422.546 53.6576 422.396 53.6621 422.223 53.6621C421.612 53.6621 421.147 53.5299 420.828 53.2656C420.518 52.9922 420.363 52.5046 420.363 51.8027V44.1328H423.057V41.5078H420.363V37.8301H416.904V41.5078H414.854V44.1328H416.904V52.0762C416.904 53.571 417.269 54.6465 417.998 55.3027C418.736 55.959 419.857 56.2871 421.361 56.2871ZM436.688 56.2871C437.872 56.2871 438.921 56.1003 439.832 55.7266C440.753 55.3438 441.473 54.8105 441.992 54.127C442.512 53.4342 442.771 52.6322 442.771 51.7207V51.707C442.771 50.6589 442.452 49.8249 441.814 49.2051C441.176 48.5762 440.105 48.0931 438.602 47.7559L436.195 47.2227C435.448 47.0495 434.915 46.8216 434.596 46.5391C434.286 46.2565 434.131 45.9102 434.131 45.5V45.4863C434.131 45.1309 434.227 44.821 434.418 44.5566C434.618 44.2923 434.901 44.0872 435.266 43.9414C435.639 43.7956 436.077 43.7227 436.578 43.7227C437.371 43.7227 437.995 43.9141 438.451 44.2969C438.907 44.6706 439.171 45.1491 439.244 45.7324L439.258 45.8418H442.43L442.416 45.6914C442.38 44.8529 442.124 44.0964 441.65 43.4219C441.186 42.7474 440.525 42.2096 439.668 41.8086C438.811 41.4076 437.781 41.207 436.578 41.207C435.421 41.207 434.404 41.3939 433.529 41.7676C432.654 42.1413 431.975 42.6608 431.492 43.3262C431.009 43.9915 430.768 44.7663 430.768 45.6504V45.6641C430.768 46.7396 431.114 47.6191 431.807 48.3027C432.508 48.9863 433.552 49.4785 434.938 49.7793L437.344 50.3125C438.1 50.4857 438.624 50.709 438.916 50.9824C439.208 51.2467 439.354 51.5931 439.354 52.0215V52.0352C439.354 52.3906 439.244 52.7005 439.025 52.9648C438.816 53.2292 438.515 53.4297 438.123 53.5664C437.731 53.7031 437.257 53.7715 436.701 53.7715C435.835 53.7715 435.161 53.5983 434.678 53.252C434.204 52.9056 433.903 52.418 433.775 51.7891L433.748 51.666H430.398L430.412 51.7891C430.521 52.6823 430.827 53.4707 431.328 54.1543C431.839 54.8288 432.54 55.3529 433.434 55.7266C434.336 56.1003 435.421 56.2871 436.688 56.2871ZM451.316 56.2871C452.255 56.2871 453.094 56.1641 453.832 55.918C454.57 55.6628 455.208 55.321 455.746 54.8926C456.284 54.4642 456.712 53.9857 457.031 53.457C457.35 52.9193 457.569 52.3724 457.688 51.8164L457.715 51.666H454.543L454.516 51.7617C454.406 52.0898 454.21 52.3952 453.928 52.6777C453.654 52.9603 453.303 53.1927 452.875 53.375C452.447 53.5482 451.95 53.6348 451.385 53.6348C450.628 53.6348 449.977 53.4707 449.43 53.1426C448.883 52.8053 448.459 52.3268 448.158 51.707C447.867 51.0781 447.721 50.3216 447.721 49.4375V48.125C447.721 47.2135 447.867 46.4388 448.158 45.8008C448.459 45.1628 448.869 44.6842 449.389 44.3652C449.917 44.0371 450.519 43.873 451.193 43.873C451.859 43.873 452.447 44.0326 452.957 44.3516C453.467 44.6615 453.868 45.1309 454.16 45.7598C454.452 46.3887 454.598 47.1771 454.598 48.125V49.4375L456.238 47.3184H446.025V49.5879H457.865V48.4941C457.865 47.0358 457.592 45.7598 457.045 44.666C456.507 43.5723 455.732 42.7246 454.721 42.123C453.718 41.5124 452.529 41.207 451.152 41.207C449.767 41.207 448.564 41.5215 447.543 42.1504C446.531 42.7793 445.743 43.6634 445.178 44.8027C444.622 45.9329 444.344 47.2591 444.344 48.7812V48.7949C444.344 50.3262 444.622 51.6523 445.178 52.7734C445.734 53.8945 446.531 54.7604 447.57 55.3711C448.618 55.9818 449.867 56.2871 451.316 56.2871ZM466.438 56.2871C467.659 56.2871 468.73 56.0547 469.65 55.5898C470.571 55.1159 471.305 54.4779 471.852 53.6758C472.398 52.8737 472.717 51.9714 472.809 50.9688L472.822 50.873H469.609L469.582 50.9961C469.427 51.7526 469.081 52.3678 468.543 52.8418C468.014 53.3066 467.317 53.5391 466.451 53.5391C465.74 53.5391 465.116 53.3522 464.578 52.9785C464.049 52.5957 463.635 52.0488 463.334 51.3379C463.042 50.627 462.896 49.7702 462.896 48.7676V48.7539C462.896 47.7604 463.042 46.9082 463.334 46.1973C463.626 45.4863 464.036 44.9395 464.564 44.5566C465.102 44.1647 465.727 43.9688 466.438 43.9688C467.34 43.9688 468.051 44.2194 468.57 44.7207C469.099 45.2129 469.432 45.8099 469.568 46.5117L469.596 46.6211H472.795V46.5254C472.722 45.5592 472.421 44.6751 471.893 43.873C471.364 43.071 470.635 42.4284 469.705 41.9453C468.775 41.4531 467.673 41.207 466.396 41.207C464.993 41.207 463.767 41.5124 462.719 42.123C461.68 42.7337 460.873 43.6042 460.299 44.7344C459.725 45.8555 459.438 47.1862 459.438 48.7266V48.7402C459.438 50.2897 459.72 51.6296 460.285 52.7598C460.859 53.89 461.671 54.7604 462.719 55.3711C463.767 55.9818 465.007 56.2871 466.438 56.2871ZM480.232 56.2871C480.588 56.2871 480.907 56.2734 481.189 56.2461C481.481 56.2188 481.727 56.1914 481.928 56.1641V53.6074C481.809 53.6165 481.682 53.6302 481.545 53.6484C481.417 53.6576 481.267 53.6621 481.094 53.6621C480.483 53.6621 480.018 53.5299 479.699 53.2656C479.389 52.9922 479.234 52.5046 479.234 51.8027V44.1328H481.928V41.5078H479.234V37.8301H475.775V41.5078H473.725V44.1328H475.775V52.0762C475.775 53.571 476.14 54.6465 476.869 55.3027C477.607 55.959 478.729 56.2871 480.232 56.2871ZM484.361 56H487.766V41.5078H484.361V56ZM486.057 39.4297C486.594 39.4297 487.046 39.2474 487.41 38.8828C487.775 38.5182 487.957 38.0807 487.957 37.5703C487.957 37.0508 487.775 36.6133 487.41 36.2578C487.046 35.8932 486.594 35.7109 486.057 35.7109C485.528 35.7109 485.081 35.8932 484.717 36.2578C484.352 36.6133 484.17 37.0508 484.17 37.5703C484.17 38.0807 484.352 38.5182 484.717 38.8828C485.081 39.2474 485.528 39.4297 486.057 39.4297ZM497.076 56.2871C498.498 56.2871 499.733 55.9863 500.781 55.3848C501.829 54.7832 502.641 53.9219 503.215 52.8008C503.798 51.6706 504.09 50.3216 504.09 48.7539V48.7266C504.09 47.168 503.798 45.8281 503.215 44.707C502.632 43.5859 501.811 42.7246 500.754 42.123C499.706 41.5124 498.475 41.207 497.062 41.207C495.659 41.207 494.433 41.5124 493.385 42.123C492.337 42.7246 491.521 43.5905 490.938 44.7207C490.354 45.8418 490.062 47.1771 490.062 48.7266V48.7539C490.062 50.3125 490.35 51.6569 490.924 52.7871C491.507 53.9082 492.323 54.7741 493.371 55.3848C494.419 55.9863 495.654 56.2871 497.076 56.2871ZM497.09 53.5391C496.37 53.5391 495.741 53.3522 495.203 52.9785C494.674 52.6048 494.26 52.0625 493.959 51.3516C493.667 50.6315 493.521 49.7656 493.521 48.7539V48.7266C493.521 47.724 493.667 46.8672 493.959 46.1562C494.26 45.4453 494.674 44.903 495.203 44.5293C495.741 44.1556 496.361 43.9688 497.062 43.9688C497.783 43.9688 498.407 44.1556 498.936 44.5293C499.473 44.903 499.888 45.4453 500.18 46.1562C500.471 46.8672 500.617 47.724 500.617 48.7266V48.7539C500.617 49.7656 500.471 50.6315 500.18 51.3516C499.897 52.0625 499.492 52.6048 498.963 52.9785C498.434 53.3522 497.81 53.5391 497.09 53.5391ZM506.277 56H509.668V47.5918C509.668 46.89 509.8 46.2793 510.064 45.7598C510.329 45.2311 510.702 44.821 511.186 44.5293C511.669 44.2285 512.234 44.0781 512.881 44.0781C513.847 44.0781 514.572 44.3607 515.055 44.9258C515.538 45.4818 515.779 46.2747 515.779 47.3047V56H519.184V46.6211C519.184 44.944 518.746 43.6224 517.871 42.6562C517.005 41.6901 515.775 41.207 514.18 41.207C513.086 41.207 512.165 41.4395 511.418 41.9043C510.68 42.3691 510.124 42.9935 509.75 43.7773H509.668V41.5078H506.277V56ZM527.646 56H531.051V41.5078H527.646V56ZM529.342 39.4297C529.88 39.4297 530.331 39.2474 530.695 38.8828C531.06 38.5182 531.242 38.0807 531.242 37.5703C531.242 37.0508 531.06 36.6133 530.695 36.2578C530.331 35.8932 529.88 35.7109 529.342 35.7109C528.813 35.7109 528.367 35.8932 528.002 36.2578C527.637 36.6133 527.455 37.0508 527.455 37.5703C527.455 38.0807 527.637 38.5182 528.002 38.8828C528.367 39.2474 528.813 39.4297 529.342 39.4297ZM539.609 56.2871C540.794 56.2871 541.842 56.1003 542.754 55.7266C543.674 55.3438 544.395 54.8105 544.914 54.127C545.434 53.4342 545.693 52.6322 545.693 51.7207V51.707C545.693 50.6589 545.374 49.8249 544.736 49.2051C544.098 48.5762 543.027 48.0931 541.523 47.7559L539.117 47.2227C538.37 47.0495 537.837 46.8216 537.518 46.5391C537.208 46.2565 537.053 45.9102 537.053 45.5V45.4863C537.053 45.1309 537.148 44.821 537.34 44.5566C537.54 44.2923 537.823 44.0872 538.188 43.9414C538.561 43.7956 538.999 43.7227 539.5 43.7227C540.293 43.7227 540.917 43.9141 541.373 44.2969C541.829 44.6706 542.093 45.1491 542.166 45.7324L542.18 45.8418H545.352L545.338 45.6914C545.301 44.8529 545.046 44.0964 544.572 43.4219C544.107 42.7474 543.447 42.2096 542.59 41.8086C541.733 41.4076 540.703 41.207 539.5 41.207C538.342 41.207 537.326 41.3939 536.451 41.7676C535.576 42.1413 534.897 42.6608 534.414 43.3262C533.931 43.9915 533.689 44.7663 533.689 45.6504V45.6641C533.689 46.7396 534.036 47.6191 534.729 48.3027C535.43 48.9863 536.474 49.4785 537.859 49.7793L540.266 50.3125C541.022 50.4857 541.546 50.709 541.838 50.9824C542.13 51.2467 542.275 51.5931 542.275 52.0215V52.0352C542.275 52.3906 542.166 52.7005 541.947 52.9648C541.738 53.2292 541.437 53.4297 541.045 53.5664C540.653 53.7031 540.179 53.7715 539.623 53.7715C538.757 53.7715 538.083 53.5983 537.6 53.252C537.126 52.9056 536.825 52.418 536.697 51.7891L536.67 51.666H533.32L533.334 51.7891C533.443 52.6823 533.749 53.4707 534.25 54.1543C534.76 54.8288 535.462 55.3529 536.355 55.7266C537.258 56.1003 538.342 56.2871 539.609 56.2871ZM553.596 56H557V36.2715H553.596V56ZM559.994 56H563.398V41.5078H559.994V56ZM561.689 39.4297C562.227 39.4297 562.678 39.2474 563.043 38.8828C563.408 38.5182 563.59 38.0807 563.59 37.5703C563.59 37.0508 563.408 36.6133 563.043 36.2578C562.678 35.8932 562.227 35.7109 561.689 35.7109C561.161 35.7109 560.714 35.8932 560.35 36.2578C559.985 36.6133 559.803 37.0508 559.803 37.5703C559.803 38.0807 559.985 38.5182 560.35 38.8828C560.714 39.2474 561.161 39.4297 561.689 39.4297ZM570.207 56H573.953L579.053 41.5078H575.512L572.148 52.8418H572.066L568.703 41.5078H565.08L570.207 56ZM586.477 56.2871C587.415 56.2871 588.254 56.1641 588.992 55.918C589.73 55.6628 590.368 55.321 590.906 54.8926C591.444 54.4642 591.872 53.9857 592.191 53.457C592.51 52.9193 592.729 52.3724 592.848 51.8164L592.875 51.666H589.703L589.676 51.7617C589.566 52.0898 589.37 52.3952 589.088 52.6777C588.814 52.9603 588.464 53.1927 588.035 53.375C587.607 53.5482 587.11 53.6348 586.545 53.6348C585.788 53.6348 585.137 53.4707 584.59 53.1426C584.043 52.8053 583.619 52.3268 583.318 51.707C583.027 51.0781 582.881 50.3216 582.881 49.4375V48.125C582.881 47.2135 583.027 46.4388 583.318 45.8008C583.619 45.1628 584.029 44.6842 584.549 44.3652C585.077 44.0371 585.679 43.873 586.354 43.873C587.019 43.873 587.607 44.0326 588.117 44.3516C588.628 44.6615 589.029 45.1309 589.32 45.7598C589.612 46.3887 589.758 47.1771 589.758 48.125V49.4375L591.398 47.3184H581.186V49.5879H593.025V48.4941C593.025 47.0358 592.752 45.7598 592.205 44.666C591.667 43.5723 590.893 42.7246 589.881 42.123C588.878 41.5124 587.689 41.207 586.312 41.207C584.927 41.207 583.724 41.5215 582.703 42.1504C581.691 42.7793 580.903 43.6634 580.338 44.8027C579.782 45.9329 579.504 47.2591 579.504 48.7812V48.7949C579.504 50.3262 579.782 51.6523 580.338 52.7734C580.894 53.8945 581.691 54.7604 582.73 55.3711C583.779 55.9818 585.027 56.2871 586.477 56.2871ZM597.045 56.2188C597.592 56.2188 598.057 56.0273 598.439 55.6445C598.822 55.2617 599.014 54.7969 599.014 54.25C599.014 53.694 598.822 53.2246 598.439 52.8418C598.057 52.459 597.592 52.2676 597.045 52.2676C596.489 52.2676 596.02 52.459 595.637 52.8418C595.254 53.2246 595.062 53.694 595.062 54.25C595.062 54.7969 595.254 55.2617 595.637 55.6445C596.02 56.0273 596.489 56.2188 597.045 56.2188Z" fill="black"/>
<path d="M38.7148 104.299C39.6172 104.299 40.4258 104.141 41.1406 103.824C41.8613 103.502 42.4561 103.057 42.9248 102.488C43.3936 101.914 43.6982 101.24 43.8389 100.467V100.44H42.2393L42.2217 100.467C42.0928 100.953 41.8643 101.375 41.5361 101.732C41.208 102.09 40.8037 102.365 40.3232 102.559C39.8428 102.746 39.3066 102.84 38.7148 102.84C37.9004 102.84 37.1943 102.629 36.5967 102.207C35.999 101.785 35.5391 101.188 35.2168 100.414C34.8945 99.6406 34.7334 98.7266 34.7334 97.6719V97.6543C34.7334 96.5938 34.8945 95.6768 35.2168 94.9033C35.5391 94.1299 35.999 93.5322 36.5967 93.1104C37.1943 92.6885 37.8975 92.4775 38.7061 92.4775C39.292 92.4775 39.8223 92.5859 40.2969 92.8027C40.7773 93.0195 41.1846 93.3271 41.5186 93.7256C41.8525 94.1182 42.0898 94.584 42.2305 95.123L42.2393 95.1494H43.8301L43.8389 95.1318C43.7158 94.3232 43.417 93.6113 42.9424 92.9961C42.4678 92.375 41.8643 91.8916 41.1318 91.5459C40.4053 91.1943 39.5967 91.0186 38.7061 91.0186C37.5576 91.0186 36.5645 91.2881 35.7266 91.8271C34.8887 92.3662 34.2412 93.1309 33.7842 94.1211C33.333 95.1113 33.1074 96.2891 33.1074 97.6543V97.6719C33.1074 99.0312 33.333 100.206 33.7842 101.196C34.2412 102.187 34.8887 102.951 35.7266 103.49C36.5703 104.029 37.5664 104.299 38.7148 104.299ZM50.1582 104.167C51.0605 104.167 51.8369 103.971 52.4873 103.578C53.1377 103.18 53.6387 102.617 53.9902 101.891C54.3477 101.158 54.5264 100.288 54.5264 99.2803V99.2627C54.5264 98.249 54.3477 97.3789 53.9902 96.6523C53.6387 95.9199 53.1377 95.3574 52.4873 94.9648C51.8369 94.5723 51.0605 94.376 50.1582 94.376C49.2676 94.376 48.4941 94.5723 47.8379 94.9648C47.1875 95.3574 46.6836 95.9199 46.3262 96.6523C45.9746 97.3789 45.7988 98.249 45.7988 99.2627V99.2803C45.7988 100.282 45.9746 101.149 46.3262 101.882C46.6836 102.614 47.1875 103.18 47.8379 103.578C48.4941 103.971 49.2676 104.167 50.1582 104.167ZM50.1582 102.813C49.5664 102.813 49.0625 102.673 48.6465 102.392C48.2305 102.11 47.9111 101.709 47.6885 101.188C47.4717 100.66 47.3633 100.024 47.3633 99.2803V99.2627C47.3633 98.5127 47.4717 97.874 47.6885 97.3467C47.9111 96.8193 48.2305 96.418 48.6465 96.1426C49.0625 95.8672 49.5664 95.7295 50.1582 95.7295C50.7559 95.7295 51.2627 95.8672 51.6787 96.1426C52.0947 96.418 52.4111 96.8193 52.6279 97.3467C52.8506 97.874 52.9619 98.5127 52.9619 99.2627V99.2803C52.9619 100.024 52.8506 100.66 52.6279 101.188C52.4111 101.709 52.0947 102.11 51.6787 102.392C51.2627 102.673 50.7559 102.813 50.1582 102.813ZM56.8555 107.164H58.3848V102.506H58.5166C58.6924 102.846 58.9268 103.139 59.2197 103.385C59.5186 103.631 59.8584 103.824 60.2393 103.965C60.626 104.1 61.0361 104.167 61.4697 104.167C62.2725 104.167 62.9697 103.965 63.5615 103.561C64.1592 103.156 64.6221 102.591 64.9502 101.864C65.2783 101.132 65.4424 100.271 65.4424 99.2803V99.2627C65.4424 98.2783 65.2783 97.4199 64.9502 96.6875C64.6221 95.9551 64.1592 95.3867 63.5615 94.9824C62.9697 94.5781 62.2725 94.376 61.4697 94.376C61.0303 94.376 60.623 94.4434 60.248 94.5781C59.873 94.7129 59.5391 94.9062 59.2461 95.1582C58.9531 95.4043 58.71 95.7031 58.5166 96.0547H58.3848V94.543H56.8555V107.164ZM61.1182 102.813C60.5498 102.813 60.0576 102.67 59.6416 102.383C59.2256 102.096 58.9062 101.688 58.6836 101.161C58.4609 100.628 58.3496 100.001 58.3496 99.2803V99.2627C58.3496 98.5303 58.4609 97.9033 58.6836 97.3818C58.9062 96.8545 59.2256 96.4473 59.6416 96.1602C60.0576 95.873 60.5498 95.7295 61.1182 95.7295C61.6982 95.7295 62.1934 95.8701 62.6035 96.1514C63.0137 96.4326 63.3271 96.8369 63.5439 97.3643C63.7666 97.8916 63.8779 98.5244 63.8779 99.2627V99.2803C63.8779 100.013 63.7666 100.643 63.5439 101.17C63.3271 101.697 63.0137 102.104 62.6035 102.392C62.1934 102.673 61.6982 102.813 61.1182 102.813ZM68.2461 107.313C68.8086 107.313 69.2803 107.231 69.6611 107.067C70.0479 106.909 70.3818 106.631 70.6631 106.232C70.9502 105.834 71.2227 105.283 71.4805 104.58L75.1807 94.543H73.5723L70.6719 103.262L71.2695 102.33H70.5576L71.1553 103.262L68.2461 94.543H66.6113L70.1094 104.009L69.9336 104.571C69.7637 105.116 69.5381 105.497 69.2568 105.714C68.9814 105.937 68.627 106.048 68.1934 106.048C68.0879 106.048 67.9795 106.045 67.8682 106.039C67.7568 106.033 67.6543 106.021 67.5605 106.004V107.261C67.666 107.278 67.7803 107.29 67.9033 107.296C68.0322 107.308 68.1465 107.313 68.2461 107.313ZM85.5342 104.079C85.6865 104.079 85.8359 104.07 85.9824 104.053C86.1289 104.035 86.2725 104.015 86.4131 103.991V102.69C86.2783 102.702 86.1611 102.711 86.0615 102.717C85.9678 102.723 85.8535 102.726 85.7188 102.726C85.2324 102.726 84.8838 102.605 84.6729 102.365C84.4619 102.125 84.3564 101.729 84.3564 101.179V95.8086H86.4131V94.543H84.3564V92.0908H82.7744V94.543H81.2891V95.8086H82.7744V101.548C82.7744 102.444 82.9912 103.092 83.4248 103.49C83.8643 103.883 84.5674 104.079 85.5342 104.079ZM88.7598 104H90.2891V98.4014C90.2891 97.8506 90.3887 97.376 90.5879 96.9775C90.793 96.5791 91.0771 96.2715 91.4404 96.0547C91.8096 95.8379 92.2461 95.7295 92.75 95.7295C93.5059 95.7295 94.0625 95.9375 94.4199 96.3535C94.7832 96.7637 94.9648 97.3965 94.9648 98.252V104H96.4941V97.8916C96.4941 97.1416 96.3652 96.5059 96.1074 95.9844C95.8496 95.457 95.4746 95.0586 94.9824 94.7891C94.4902 94.5137 93.8926 94.376 93.1895 94.376C92.4922 94.376 91.915 94.5166 91.458 94.7979C91.0068 95.0732 90.6611 95.4629 90.4209 95.9668H90.2891V90.79H88.7598V104ZM103.077 104.167C103.634 104.167 104.135 104.097 104.58 103.956C105.025 103.81 105.412 103.616 105.74 103.376C106.074 103.13 106.344 102.857 106.549 102.559C106.76 102.254 106.906 101.938 106.988 101.609L107.006 101.539H105.477L105.441 101.618C105.359 101.812 105.216 101.999 105.011 102.181C104.806 102.362 104.545 102.512 104.229 102.629C103.912 102.746 103.54 102.805 103.112 102.805C102.538 102.805 102.04 102.679 101.618 102.427C101.202 102.169 100.88 101.803 100.651 101.328C100.423 100.854 100.309 100.279 100.309 99.6055V98.999C100.309 98.29 100.426 97.6924 100.66 97.2061C100.895 96.7197 101.211 96.3535 101.609 96.1074C102.008 95.8613 102.462 95.7383 102.972 95.7383C103.481 95.7383 103.933 95.8555 104.325 96.0898C104.718 96.3242 105.025 96.6816 105.248 97.1621C105.471 97.6426 105.582 98.2549 105.582 98.999V99.6055L106.338 98.4893H99.5352V99.7109H107.12V99.1133C107.12 98.1699 106.953 97.3438 106.619 96.6348C106.291 95.9199 105.816 95.3662 105.195 94.9736C104.58 94.5752 103.842 94.376 102.98 94.376C102.125 94.376 101.378 94.584 100.739 95C100.106 95.4102 99.6143 95.9844 99.2627 96.7227C98.917 97.4609 98.7441 98.3193 98.7441 99.2979V99.3066C98.7441 100.297 98.917 101.155 99.2627 101.882C99.6143 102.608 100.112 103.171 100.757 103.569C101.401 103.968 102.175 104.167 103.077 104.167ZM115.101 104H116.63V95.8086H118.774V94.543H116.63V93.5234C116.63 93.0078 116.747 92.6182 116.981 92.3545C117.222 92.0908 117.611 91.959 118.15 91.959C118.279 91.959 118.405 91.9619 118.528 91.9678C118.651 91.9736 118.76 91.9854 118.854 92.0029V90.7812C118.701 90.752 118.54 90.7314 118.37 90.7197C118.206 90.7021 118.03 90.6934 117.843 90.6934C116.946 90.6934 116.264 90.9248 115.795 91.3877C115.332 91.8447 115.101 92.542 115.101 93.4795V94.543H113.545V95.8086H115.101V104ZM124.408 104.167C125.311 104.167 126.087 103.971 126.737 103.578C127.388 103.18 127.889 102.617 128.24 101.891C128.598 101.158 128.776 100.288 128.776 99.2803V99.2627C128.776 98.249 128.598 97.3789 128.24 96.6523C127.889 95.9199 127.388 95.3574 126.737 94.9648C126.087 94.5723 125.311 94.376 124.408 94.376C123.518 94.376 122.744 94.5723 122.088 94.9648C121.438 95.3574 120.934 95.9199 120.576 96.6523C120.225 97.3789 120.049 98.249 120.049 99.2627V99.2803C120.049 100.282 120.225 101.149 120.576 101.882C120.934 102.614 121.438 103.18 122.088 103.578C122.744 103.971 123.518 104.167 124.408 104.167ZM124.408 102.813C123.816 102.813 123.312 102.673 122.896 102.392C122.48 102.11 122.161 101.709 121.938 101.188C121.722 100.66 121.613 100.024 121.613 99.2803V99.2627C121.613 98.5127 121.722 97.874 121.938 97.3467C122.161 96.8193 122.48 96.418 122.896 96.1426C123.312 95.8672 123.816 95.7295 124.408 95.7295C125.006 95.7295 125.513 95.8672 125.929 96.1426C126.345 96.418 126.661 96.8193 126.878 97.3467C127.101 97.874 127.212 98.5127 127.212 99.2627V99.2803C127.212 100.024 127.101 100.66 126.878 101.188C126.661 101.709 126.345 102.11 125.929 102.392C125.513 102.673 125.006 102.813 124.408 102.813ZM131.193 104H132.723V90.79H131.193V104ZM135.711 104H137.24V90.79H135.711V104ZM144.025 104.167C144.928 104.167 145.704 103.971 146.354 103.578C147.005 103.18 147.506 102.617 147.857 101.891C148.215 101.158 148.394 100.288 148.394 99.2803V99.2627C148.394 98.249 148.215 97.3789 147.857 96.6523C147.506 95.9199 147.005 95.3574 146.354 94.9648C145.704 94.5723 144.928 94.376 144.025 94.376C143.135 94.376 142.361 94.5723 141.705 94.9648C141.055 95.3574 140.551 95.9199 140.193 96.6523C139.842 97.3789 139.666 98.249 139.666 99.2627V99.2803C139.666 100.282 139.842 101.149 140.193 101.882C140.551 102.614 141.055 103.18 141.705 103.578C142.361 103.971 143.135 104.167 144.025 104.167ZM144.025 102.813C143.434 102.813 142.93 102.673 142.514 102.392C142.098 102.11 141.778 101.709 141.556 101.188C141.339 100.66 141.23 100.024 141.23 99.2803V99.2627C141.23 98.5127 141.339 97.874 141.556 97.3467C141.778 96.8193 142.098 96.418 142.514 96.1426C142.93 95.8672 143.434 95.7295 144.025 95.7295C144.623 95.7295 145.13 95.8672 145.546 96.1426C145.962 96.418 146.278 96.8193 146.495 97.3467C146.718 97.874 146.829 98.5127 146.829 99.2627V99.2803C146.829 100.024 146.718 100.66 146.495 101.188C146.278 101.709 145.962 102.11 145.546 102.392C145.13 102.673 144.623 102.813 144.025 102.813ZM152.217 104H153.746L155.855 96.6787H155.987L158.105 104H159.644L162.289 94.543H160.769L158.914 102.11H158.773L156.655 94.543H155.205L153.087 102.11H152.955L151.092 94.543H149.562L152.217 104ZM164.328 104H165.857V94.543H164.328V104ZM165.102 92.7236C165.395 92.7236 165.644 92.6211 165.849 92.416C166.054 92.2051 166.156 91.959 166.156 91.6777C166.156 91.3848 166.054 91.1357 165.849 90.9307C165.644 90.7256 165.395 90.623 165.102 90.623C164.814 90.623 164.568 90.7256 164.363 90.9307C164.158 91.1357 164.056 91.3848 164.056 91.6777C164.056 91.959 164.158 92.2051 164.363 92.416C164.568 92.6211 164.814 92.7236 165.102 92.7236ZM168.705 104H170.234V98.4014C170.234 97.8447 170.334 97.3701 170.533 96.9775C170.738 96.5791 171.025 96.2715 171.395 96.0547C171.764 95.8379 172.197 95.7295 172.695 95.7295C173.451 95.7295 174.008 95.9346 174.365 96.3447C174.729 96.7549 174.91 97.3877 174.91 98.2432V104H176.439V97.874C176.439 96.7549 176.152 95.8936 175.578 95.29C175.01 94.6807 174.195 94.376 173.135 94.376C172.438 94.376 171.86 94.5166 171.403 94.7979C170.952 95.0732 170.606 95.46 170.366 95.958H170.234V94.543H168.705V104ZM183.066 107.34C183.922 107.34 184.666 107.196 185.299 106.909C185.932 106.622 186.418 106.218 186.758 105.696C187.104 105.175 187.276 104.562 187.276 103.859V94.543H185.747V96.1074H185.642C185.448 95.75 185.205 95.4424 184.912 95.1846C184.625 94.9268 184.294 94.7275 183.919 94.5869C183.544 94.4463 183.134 94.376 182.688 94.376C181.868 94.376 181.159 94.5752 180.562 94.9736C179.964 95.3662 179.501 95.9082 179.173 96.5996C178.851 97.2852 178.689 98.0703 178.689 98.9551V98.9727C178.689 99.8633 178.851 100.651 179.173 101.337C179.495 102.022 179.952 102.562 180.544 102.954C181.142 103.341 181.845 103.534 182.653 103.534C183.087 103.534 183.491 103.473 183.866 103.35C184.241 103.221 184.578 103.033 184.877 102.787C185.176 102.541 185.425 102.245 185.624 101.899H185.765V103.78C185.765 104.478 185.524 105.02 185.044 105.406C184.569 105.793 183.91 105.986 183.066 105.986C182.387 105.986 181.842 105.869 181.432 105.635C181.021 105.406 180.772 105.113 180.685 104.756L180.676 104.747H179.094L179.085 104.756C179.167 105.271 179.375 105.723 179.709 106.109C180.049 106.502 180.503 106.804 181.071 107.015C181.64 107.231 182.305 107.34 183.066 107.34ZM182.987 102.181C182.407 102.181 181.912 102.046 181.502 101.776C181.098 101.501 180.787 101.123 180.57 100.643C180.359 100.162 180.254 99.6055 180.254 98.9727V98.9551C180.254 98.3281 180.359 97.7715 180.57 97.2852C180.787 96.7988 181.098 96.418 181.502 96.1426C181.912 95.8672 182.407 95.7295 182.987 95.7295C183.573 95.7295 184.074 95.8672 184.49 96.1426C184.906 96.418 185.226 96.7988 185.448 97.2852C185.677 97.7715 185.791 98.3281 185.791 98.9551V98.9727C185.791 99.6055 185.677 100.162 185.448 100.643C185.226 101.123 184.906 101.501 184.49 101.776C184.074 102.046 183.573 102.181 182.987 102.181ZM195.125 104H196.654V94.543H195.125V104ZM195.898 92.7236C196.191 92.7236 196.44 92.6211 196.646 92.416C196.851 92.2051 196.953 91.959 196.953 91.6777C196.953 91.3848 196.851 91.1357 196.646 90.9307C196.44 90.7256 196.191 90.623 195.898 90.623C195.611 90.623 195.365 90.7256 195.16 90.9307C194.955 91.1357 194.853 91.3848 194.853 91.6777C194.853 91.959 194.955 92.2051 195.16 92.416C195.365 92.6211 195.611 92.7236 195.898 92.7236ZM200.126 104H201.655V95.8086H203.8V94.543H201.655V93.5234C201.655 93.0078 201.772 92.6182 202.007 92.3545C202.247 92.0908 202.637 91.959 203.176 91.959C203.305 91.959 203.431 91.9619 203.554 91.9678C203.677 91.9736 203.785 91.9854 203.879 92.0029V90.7812C203.727 90.752 203.565 90.7314 203.396 90.7197C203.231 90.7021 203.056 90.6934 202.868 90.6934C201.972 90.6934 201.289 90.9248 200.82 91.3877C200.357 91.8447 200.126 92.542 200.126 93.4795V94.543H198.57V95.8086H200.126V104ZM205.971 104H207.5V98.1377C207.5 97.6748 207.605 97.2705 207.816 96.9248C208.027 96.5791 208.317 96.3125 208.687 96.125C209.062 95.9316 209.489 95.835 209.97 95.835C210.14 95.835 210.298 95.8438 210.444 95.8613C210.597 95.873 210.749 95.8936 210.901 95.9229V94.4375C210.831 94.4258 210.723 94.4141 210.576 94.4023C210.436 94.3848 210.292 94.376 210.146 94.376C209.513 94.376 208.979 94.5137 208.546 94.7891C208.118 95.0645 207.813 95.4512 207.632 95.9492H207.5V94.543H205.971V104ZM215.375 104.167C215.803 104.167 216.195 104.108 216.553 103.991C216.91 103.868 217.229 103.689 217.511 103.455C217.798 103.221 218.041 102.937 218.24 102.603H218.381V104H219.91V97.5225C219.91 96.8662 219.77 96.3037 219.488 95.835C219.207 95.3662 218.8 95.0059 218.267 94.7539C217.733 94.502 217.08 94.376 216.307 94.376C215.633 94.376 215.032 94.4814 214.505 94.6924C213.978 94.8975 213.547 95.1875 213.213 95.5625C212.885 95.9375 212.683 96.374 212.606 96.8721L212.598 96.9248H214.118L214.127 96.8984C214.25 96.5234 214.493 96.2363 214.856 96.0371C215.22 95.832 215.686 95.7295 216.254 95.7295C216.963 95.7295 217.493 95.8848 217.845 96.1953C218.202 96.5 218.381 96.9453 218.381 97.5312V100.467C218.381 100.918 218.264 101.322 218.029 101.68C217.801 102.037 217.484 102.321 217.08 102.532C216.676 102.737 216.213 102.84 215.691 102.84C215.141 102.84 214.684 102.708 214.32 102.444C213.963 102.175 213.784 101.8 213.784 101.319V101.302C213.784 100.839 213.948 100.479 214.276 100.221C214.61 99.9629 215.135 99.8135 215.85 99.7725L219.146 99.5615V98.3398L215.665 98.5508C214.563 98.6152 213.714 98.8877 213.116 99.3682C212.519 99.8428 212.22 100.499 212.22 101.337V101.354C212.22 101.929 212.357 102.427 212.633 102.849C212.908 103.271 213.283 103.596 213.758 103.824C214.238 104.053 214.777 104.167 215.375 104.167ZM222.67 104H224.199V98.1377C224.199 97.6924 224.293 97.2881 224.48 96.9248C224.674 96.5557 224.935 96.2656 225.263 96.0547C225.591 95.8379 225.96 95.7295 226.37 95.7295C226.968 95.7295 227.445 95.8994 227.803 96.2393C228.16 96.5732 228.339 97.0215 228.339 97.584V104H229.868V97.918C229.868 97.5137 229.959 97.1475 230.141 96.8193C230.322 96.4854 230.574 96.2217 230.896 96.0283C231.225 95.8291 231.608 95.7295 232.048 95.7295C232.716 95.7295 233.211 95.9053 233.533 96.2568C233.861 96.6025 234.025 97.1211 234.025 97.8125V104H235.555V97.4609C235.555 96.8047 235.438 96.248 235.203 95.791C234.969 95.3281 234.626 94.9766 234.175 94.7363C233.729 94.4961 233.185 94.376 232.54 94.376C232.106 94.376 231.699 94.4463 231.318 94.5869C230.943 94.7217 230.612 94.915 230.325 95.167C230.038 95.4131 229.81 95.7031 229.64 96.0371H229.508C229.361 95.709 229.165 95.4219 228.919 95.1758C228.673 94.9238 228.38 94.7275 228.04 94.5869C227.7 94.4463 227.316 94.376 226.889 94.376C226.268 94.376 225.737 94.5166 225.298 94.7979C224.864 95.0791 224.542 95.4717 224.331 95.9756H224.199V94.543H222.67V104ZM242.138 104.167C242.694 104.167 243.195 104.097 243.641 103.956C244.086 103.81 244.473 103.616 244.801 103.376C245.135 103.13 245.404 102.857 245.609 102.559C245.82 102.254 245.967 101.938 246.049 101.609L246.066 101.539H244.537L244.502 101.618C244.42 101.812 244.276 101.999 244.071 102.181C243.866 102.362 243.605 102.512 243.289 102.629C242.973 102.746 242.601 102.805 242.173 102.805C241.599 102.805 241.101 102.679 240.679 102.427C240.263 102.169 239.94 101.803 239.712 101.328C239.483 100.854 239.369 100.279 239.369 99.6055V98.999C239.369 98.29 239.486 97.6924 239.721 97.2061C239.955 96.7197 240.271 96.3535 240.67 96.1074C241.068 95.8613 241.522 95.7383 242.032 95.7383C242.542 95.7383 242.993 95.8555 243.386 96.0898C243.778 96.3242 244.086 96.6816 244.309 97.1621C244.531 97.6426 244.643 98.2549 244.643 98.999V99.6055L245.398 98.4893H238.596V99.7109H246.181V99.1133C246.181 98.1699 246.014 97.3438 245.68 96.6348C245.352 95.9199 244.877 95.3662 244.256 94.9736C243.641 94.5752 242.902 94.376 242.041 94.376C241.186 94.376 240.438 94.584 239.8 95C239.167 95.4102 238.675 95.9844 238.323 96.7227C237.978 97.4609 237.805 98.3193 237.805 99.2979V99.3066C237.805 100.297 237.978 101.155 238.323 101.882C238.675 102.608 239.173 103.171 239.817 103.569C240.462 103.968 241.235 104.167 242.138 104.167ZM256.886 104.079C257.038 104.079 257.188 104.07 257.334 104.053C257.48 104.035 257.624 104.015 257.765 103.991V102.69C257.63 102.702 257.513 102.711 257.413 102.717C257.319 102.723 257.205 102.726 257.07 102.726C256.584 102.726 256.235 102.605 256.024 102.365C255.813 102.125 255.708 101.729 255.708 101.179V95.8086H257.765V94.543H255.708V92.0908H254.126V94.543H252.641V95.8086H254.126V101.548C254.126 102.444 254.343 103.092 254.776 103.49C255.216 103.883 255.919 104.079 256.886 104.079ZM263.768 104.167C264.67 104.167 265.446 103.971 266.097 103.578C266.747 103.18 267.248 102.617 267.6 101.891C267.957 101.158 268.136 100.288 268.136 99.2803V99.2627C268.136 98.249 267.957 97.3789 267.6 96.6523C267.248 95.9199 266.747 95.3574 266.097 94.9648C265.446 94.5723 264.67 94.376 263.768 94.376C262.877 94.376 262.104 94.5723 261.447 94.9648C260.797 95.3574 260.293 95.9199 259.936 96.6523C259.584 97.3789 259.408 98.249 259.408 99.2627V99.2803C259.408 100.282 259.584 101.149 259.936 101.882C260.293 102.614 260.797 103.18 261.447 103.578C262.104 103.971 262.877 104.167 263.768 104.167ZM263.768 102.813C263.176 102.813 262.672 102.673 262.256 102.392C261.84 102.11 261.521 101.709 261.298 101.188C261.081 100.66 260.973 100.024 260.973 99.2803V99.2627C260.973 98.5127 261.081 97.874 261.298 97.3467C261.521 96.8193 261.84 96.418 262.256 96.1426C262.672 95.8672 263.176 95.7295 263.768 95.7295C264.365 95.7295 264.872 95.8672 265.288 96.1426C265.704 96.418 266.021 96.8193 266.237 97.3467C266.46 97.874 266.571 98.5127 266.571 99.2627V99.2803C266.571 100.024 266.46 100.66 266.237 101.188C266.021 101.709 265.704 102.11 265.288 102.392C264.872 102.673 264.365 102.813 263.768 102.813ZM278.076 104.167C278.504 104.167 278.896 104.108 279.254 103.991C279.611 103.868 279.931 103.689 280.212 103.455C280.499 103.221 280.742 102.937 280.941 102.603H281.082V104H282.611V97.5225C282.611 96.8662 282.471 96.3037 282.189 95.835C281.908 95.3662 281.501 95.0059 280.968 94.7539C280.435 94.502 279.781 94.376 279.008 94.376C278.334 94.376 277.733 94.4814 277.206 94.6924C276.679 94.8975 276.248 95.1875 275.914 95.5625C275.586 95.9375 275.384 96.374 275.308 96.8721L275.299 96.9248H276.819L276.828 96.8984C276.951 96.5234 277.194 96.2363 277.558 96.0371C277.921 95.832 278.387 95.7295 278.955 95.7295C279.664 95.7295 280.194 95.8848 280.546 96.1953C280.903 96.5 281.082 96.9453 281.082 97.5312V100.467C281.082 100.918 280.965 101.322 280.73 101.68C280.502 102.037 280.186 102.321 279.781 102.532C279.377 102.737 278.914 102.84 278.393 102.84C277.842 102.84 277.385 102.708 277.021 102.444C276.664 102.175 276.485 101.8 276.485 101.319V101.302C276.485 100.839 276.649 100.479 276.978 100.221C277.312 99.9629 277.836 99.8135 278.551 99.7725L281.847 99.5615V98.3398L278.366 98.5508C277.265 98.6152 276.415 98.8877 275.817 99.3682C275.22 99.8428 274.921 100.499 274.921 101.337V101.354C274.921 101.929 275.059 102.427 275.334 102.849C275.609 103.271 275.984 103.596 276.459 103.824C276.939 104.053 277.479 104.167 278.076 104.167ZM288.86 104.167C289.522 104.167 290.108 104.021 290.618 103.728C291.128 103.429 291.526 103.016 291.813 102.488H291.954V104H293.483V90.79H291.954V96.0371H291.813C291.556 95.5332 291.16 95.1318 290.627 94.833C290.1 94.5283 289.511 94.376 288.86 94.376C288.063 94.376 287.366 94.5781 286.769 94.9824C286.177 95.3809 285.717 95.9463 285.389 96.6787C285.061 97.4111 284.896 98.2725 284.896 99.2627V99.2803C284.896 100.265 285.061 101.123 285.389 101.855C285.717 102.588 286.18 103.156 286.777 103.561C287.375 103.965 288.069 104.167 288.86 104.167ZM289.212 102.813C288.638 102.813 288.146 102.673 287.735 102.392C287.325 102.104 287.009 101.697 286.786 101.17C286.569 100.643 286.461 100.013 286.461 99.2803V99.2627C286.461 98.5244 286.569 97.8945 286.786 97.373C287.009 96.8457 287.325 96.4414 287.735 96.1602C288.146 95.873 288.638 95.7295 289.212 95.7295C289.786 95.7295 290.278 95.873 290.688 96.1602C291.104 96.4473 291.424 96.8545 291.646 97.3818C291.875 97.9033 291.989 98.5303 291.989 99.2627V99.2803C291.989 100.001 291.875 100.628 291.646 101.161C291.424 101.688 291.104 102.096 290.688 102.383C290.278 102.67 289.786 102.813 289.212 102.813ZM299.864 104.167C300.526 104.167 301.112 104.021 301.622 103.728C302.132 103.429 302.53 103.016 302.817 102.488H302.958V104H304.487V90.79H302.958V96.0371H302.817C302.56 95.5332 302.164 95.1318 301.631 94.833C301.104 94.5283 300.515 94.376 299.864 94.376C299.067 94.376 298.37 94.5781 297.772 94.9824C297.181 95.3809 296.721 95.9463 296.393 96.6787C296.064 97.4111 295.9 98.2725 295.9 99.2627V99.2803C295.9 100.265 296.064 101.123 296.393 101.855C296.721 102.588 297.184 103.156 297.781 103.561C298.379 103.965 299.073 104.167 299.864 104.167ZM300.216 102.813C299.642 102.813 299.149 102.673 298.739 102.392C298.329 102.104 298.013 101.697 297.79 101.17C297.573 100.643 297.465 100.013 297.465 99.2803V99.2627C297.465 98.5244 297.573 97.8945 297.79 97.373C298.013 96.8457 298.329 96.4414 298.739 96.1602C299.149 95.873 299.642 95.7295 300.216 95.7295C300.79 95.7295 301.282 95.873 301.692 96.1602C302.108 96.4473 302.428 96.8545 302.65 97.3818C302.879 97.9033 302.993 98.5303 302.993 99.2627V99.2803C302.993 100.001 302.879 100.628 302.65 101.161C302.428 101.688 302.108 102.096 301.692 102.383C301.282 102.67 300.79 102.813 300.216 102.813ZM312.424 104H313.953V94.543H312.424V104ZM313.197 92.7236C313.49 92.7236 313.739 92.6211 313.944 92.416C314.149 92.2051 314.252 91.959 314.252 91.6777C314.252 91.3848 314.149 91.1357 313.944 90.9307C313.739 90.7256 313.49 90.623 313.197 90.623C312.91 90.623 312.664 90.7256 312.459 90.9307C312.254 91.1357 312.151 91.3848 312.151 91.6777C312.151 91.959 312.254 92.2051 312.459 92.416C312.664 92.6211 312.91 92.7236 313.197 92.7236ZM320.149 104.079C320.302 104.079 320.451 104.07 320.598 104.053C320.744 104.035 320.888 104.015 321.028 103.991V102.69C320.894 102.702 320.776 102.711 320.677 102.717C320.583 102.723 320.469 102.726 320.334 102.726C319.848 102.726 319.499 102.605 319.288 102.365C319.077 102.125 318.972 101.729 318.972 101.179V95.8086H321.028V94.543H318.972V92.0908H317.39V94.543H315.904V95.8086H317.39V101.548C317.39 102.444 317.606 103.092 318.04 103.49C318.479 103.883 319.183 104.079 320.149 104.079ZM331.646 104.079C331.798 104.079 331.947 104.07 332.094 104.053C332.24 104.035 332.384 104.015 332.524 103.991V102.69C332.39 102.702 332.272 102.711 332.173 102.717C332.079 102.723 331.965 102.726 331.83 102.726C331.344 102.726 330.995 102.605 330.784 102.365C330.573 102.125 330.468 101.729 330.468 101.179V95.8086H332.524V94.543H330.468V92.0908H328.886V94.543H327.4V95.8086H328.886V101.548C328.886 102.444 329.103 103.092 329.536 103.49C329.976 103.883 330.679 104.079 331.646 104.079ZM338.527 104.167C339.43 104.167 340.206 103.971 340.856 103.578C341.507 103.18 342.008 102.617 342.359 101.891C342.717 101.158 342.896 100.288 342.896 99.2803V99.2627C342.896 98.249 342.717 97.3789 342.359 96.6523C342.008 95.9199 341.507 95.3574 340.856 94.9648C340.206 94.5723 339.43 94.376 338.527 94.376C337.637 94.376 336.863 94.5723 336.207 94.9648C335.557 95.3574 335.053 95.9199 334.695 96.6523C334.344 97.3789 334.168 98.249 334.168 99.2627V99.2803C334.168 100.282 334.344 101.149 334.695 101.882C335.053 102.614 335.557 103.18 336.207 103.578C336.863 103.971 337.637 104.167 338.527 104.167ZM338.527 102.813C337.936 102.813 337.432 102.673 337.016 102.392C336.6 102.11 336.28 101.709 336.058 101.188C335.841 100.66 335.732 100.024 335.732 99.2803V99.2627C335.732 98.5127 335.841 97.874 336.058 97.3467C336.28 96.8193 336.6 96.418 337.016 96.1426C337.432 95.8672 337.936 95.7295 338.527 95.7295C339.125 95.7295 339.632 95.8672 340.048 96.1426C340.464 96.418 340.78 96.8193 340.997 97.3467C341.22 97.874 341.331 98.5127 341.331 99.2627V99.2803C341.331 100.024 341.22 100.66 340.997 101.188C340.78 101.709 340.464 102.11 340.048 102.392C339.632 102.673 339.125 102.813 338.527 102.813ZM351.043 107.313C351.605 107.313 352.077 107.231 352.458 107.067C352.845 106.909 353.179 106.631 353.46 106.232C353.747 105.834 354.02 105.283 354.277 104.58L357.978 94.543H356.369L353.469 103.262L354.066 102.33H353.354L353.952 103.262L351.043 94.543H349.408L352.906 104.009L352.73 104.571C352.561 105.116 352.335 105.497 352.054 105.714C351.778 105.937 351.424 106.048 350.99 106.048C350.885 106.048 350.776 106.045 350.665 106.039C350.554 106.033 350.451 106.021 350.357 106.004V107.261C350.463 107.278 350.577 107.29 350.7 107.296C350.829 107.308 350.943 107.313 351.043 107.313ZM363.506 104.167C364.408 104.167 365.185 103.971 365.835 103.578C366.485 103.18 366.986 102.617 367.338 101.891C367.695 101.158 367.874 100.288 367.874 99.2803V99.2627C367.874 98.249 367.695 97.3789 367.338 96.6523C366.986 95.9199 366.485 95.3574 365.835 94.9648C365.185 94.5723 364.408 94.376 363.506 94.376C362.615 94.376 361.842 94.5723 361.186 94.9648C360.535 95.3574 360.031 95.9199 359.674 96.6523C359.322 97.3789 359.146 98.249 359.146 99.2627V99.2803C359.146 100.282 359.322 101.149 359.674 101.882C360.031 102.614 360.535 103.18 361.186 103.578C361.842 103.971 362.615 104.167 363.506 104.167ZM363.506 102.813C362.914 102.813 362.41 102.673 361.994 102.392C361.578 102.11 361.259 101.709 361.036 101.188C360.819 100.66 360.711 100.024 360.711 99.2803V99.2627C360.711 98.5127 360.819 97.874 361.036 97.3467C361.259 96.8193 361.578 96.418 361.994 96.1426C362.41 95.8672 362.914 95.7295 363.506 95.7295C364.104 95.7295 364.61 95.8672 365.026 96.1426C365.442 96.418 365.759 96.8193 365.976 97.3467C366.198 97.874 366.31 98.5127 366.31 99.2627V99.2803C366.31 100.024 366.198 100.66 365.976 101.188C365.759 101.709 365.442 102.11 365.026 102.392C364.61 102.673 364.104 102.813 363.506 102.813ZM373.376 104.167C374.073 104.167 374.656 104.029 375.125 103.754C375.594 103.479 375.948 103.092 376.188 102.594H376.32V104H377.85V94.543H376.32V100.142C376.32 100.687 376.224 101.161 376.03 101.565C375.837 101.964 375.55 102.271 375.169 102.488C374.788 102.705 374.322 102.813 373.771 102.813C373.016 102.813 372.471 102.605 372.137 102.189C371.809 101.773 371.645 101.144 371.645 100.3V94.543H370.115V100.669C370.115 101.407 370.235 102.04 370.476 102.567C370.722 103.089 371.088 103.487 371.574 103.763C372.061 104.032 372.661 104.167 373.376 104.167ZM380.662 104H382.191V98.1377C382.191 97.6748 382.297 97.2705 382.508 96.9248C382.719 96.5791 383.009 96.3125 383.378 96.125C383.753 95.9316 384.181 95.835 384.661 95.835C384.831 95.835 384.989 95.8438 385.136 95.8613C385.288 95.873 385.44 95.8936 385.593 95.9229V94.4375C385.522 94.4258 385.414 94.4141 385.268 94.4023C385.127 94.3848 384.983 94.376 384.837 94.376C384.204 94.376 383.671 94.5137 383.237 94.7891C382.81 95.0645 382.505 95.4512 382.323 95.9492H382.191V94.543H380.662V104ZM394.303 104H395.832L397.941 96.6787H398.073L400.191 104H401.729L404.375 94.543H402.854L401 102.11H400.859L398.741 94.543H397.291L395.173 102.11H395.041L393.178 94.543H391.648L394.303 104ZM409.903 104.167C410.46 104.167 410.961 104.097 411.406 103.956C411.852 103.81 412.238 103.616 412.566 103.376C412.9 103.13 413.17 102.857 413.375 102.559C413.586 102.254 413.732 101.938 413.814 101.609L413.832 101.539H412.303L412.268 101.618C412.186 101.812 412.042 101.999 411.837 102.181C411.632 102.362 411.371 102.512 411.055 102.629C410.738 102.746 410.366 102.805 409.938 102.805C409.364 102.805 408.866 102.679 408.444 102.427C408.028 102.169 407.706 101.803 407.478 101.328C407.249 100.854 407.135 100.279 407.135 99.6055V98.999C407.135 98.29 407.252 97.6924 407.486 97.2061C407.721 96.7197 408.037 96.3535 408.436 96.1074C408.834 95.8613 409.288 95.7383 409.798 95.7383C410.308 95.7383 410.759 95.8555 411.151 96.0898C411.544 96.3242 411.852 96.6816 412.074 97.1621C412.297 97.6426 412.408 98.2549 412.408 98.999V99.6055L413.164 98.4893H406.361V99.7109H413.946V99.1133C413.946 98.1699 413.779 97.3438 413.445 96.6348C413.117 95.9199 412.643 95.3662 412.021 94.9736C411.406 94.5752 410.668 94.376 409.807 94.376C408.951 94.376 408.204 94.584 407.565 95C406.933 95.4102 406.44 95.9844 406.089 96.7227C405.743 97.4609 405.57 98.3193 405.57 99.2979V99.3066C405.57 100.297 405.743 101.155 406.089 101.882C406.44 102.608 406.938 103.171 407.583 103.569C408.228 103.968 409.001 104.167 409.903 104.167ZM420.995 104.167C421.798 104.167 422.495 103.965 423.087 103.561C423.685 103.156 424.145 102.588 424.467 101.855C424.795 101.123 424.959 100.265 424.959 99.2803V99.2627C424.959 98.2725 424.795 97.4111 424.467 96.6787C424.145 95.9463 423.685 95.3809 423.087 94.9824C422.495 94.5781 421.798 94.376 420.995 94.376C420.345 94.376 419.753 94.5283 419.22 94.833C418.692 95.1318 418.3 95.5332 418.042 96.0371H417.91V90.79H416.381V104H417.91V102.488H418.042C418.335 103.016 418.736 103.429 419.246 103.728C419.756 104.021 420.339 104.167 420.995 104.167ZM420.644 102.813C420.075 102.813 419.583 102.67 419.167 102.383C418.751 102.096 418.432 101.688 418.209 101.161C417.986 100.628 417.875 100.001 417.875 99.2803V99.2627C417.875 98.5303 417.986 97.9033 418.209 97.3818C418.432 96.8545 418.751 96.4473 419.167 96.1602C419.583 95.873 420.075 95.7295 420.644 95.7295C421.224 95.7295 421.719 95.873 422.129 96.1602C422.539 96.4414 422.853 96.8457 423.069 97.373C423.286 97.8945 423.395 98.5244 423.395 99.2627V99.2803C423.395 100.013 423.286 100.643 423.069 101.17C422.853 101.697 422.539 102.104 422.129 102.392C421.719 102.673 421.224 102.813 420.644 102.813ZM427.297 107.164H428.826V102.506H428.958C429.134 102.846 429.368 103.139 429.661 103.385C429.96 103.631 430.3 103.824 430.681 103.965C431.067 104.1 431.478 104.167 431.911 104.167C432.714 104.167 433.411 103.965 434.003 103.561C434.601 103.156 435.063 102.591 435.392 101.864C435.72 101.132 435.884 100.271 435.884 99.2803V99.2627C435.884 98.2783 435.72 97.4199 435.392 96.6875C435.063 95.9551 434.601 95.3867 434.003 94.9824C433.411 94.5781 432.714 94.376 431.911 94.376C431.472 94.376 431.064 94.4434 430.689 94.5781C430.314 94.7129 429.98 94.9062 429.688 95.1582C429.395 95.4043 429.151 95.7031 428.958 96.0547H428.826V94.543H427.297V107.164ZM431.56 102.813C430.991 102.813 430.499 102.67 430.083 102.383C429.667 102.096 429.348 101.688 429.125 101.161C428.902 100.628 428.791 100.001 428.791 99.2803V99.2627C428.791 98.5303 428.902 97.9033 429.125 97.3818C429.348 96.8545 429.667 96.4473 430.083 96.1602C430.499 95.873 430.991 95.7295 431.56 95.7295C432.14 95.7295 432.635 95.8701 433.045 96.1514C433.455 96.4326 433.769 96.8369 433.985 97.3643C434.208 97.8916 434.319 98.5244 434.319 99.2627V99.2803C434.319 100.013 434.208 100.643 433.985 101.17C433.769 101.697 433.455 102.104 433.045 102.392C432.635 102.673 432.14 102.813 431.56 102.813ZM440.832 104.167C441.26 104.167 441.652 104.108 442.01 103.991C442.367 103.868 442.687 103.689 442.968 103.455C443.255 103.221 443.498 102.937 443.697 102.603H443.838V104H445.367V97.5225C445.367 96.8662 445.227 96.3037 444.945 95.835C444.664 95.3662 444.257 95.0059 443.724 94.7539C443.19 94.502 442.537 94.376 441.764 94.376C441.09 94.376 440.489 94.4814 439.962 94.6924C439.435 94.8975 439.004 95.1875 438.67 95.5625C438.342 95.9375 438.14 96.374 438.063 96.8721L438.055 96.9248H439.575L439.584 96.8984C439.707 96.5234 439.95 96.2363 440.313 96.0371C440.677 95.832 441.143 95.7295 441.711 95.7295C442.42 95.7295 442.95 95.8848 443.302 96.1953C443.659 96.5 443.838 96.9453 443.838 97.5312V100.467C443.838 100.918 443.721 101.322 443.486 101.68C443.258 102.037 442.941 102.321 442.537 102.532C442.133 102.737 441.67 102.84 441.148 102.84C440.598 102.84 440.141 102.708 439.777 102.444C439.42 102.175 439.241 101.8 439.241 101.319V101.302C439.241 100.839 439.405 100.479 439.733 100.221C440.067 99.9629 440.592 99.8135 441.307 99.7725L444.603 99.5615V98.3398L441.122 98.5508C440.021 98.6152 439.171 98.8877 438.573 99.3682C437.976 99.8428 437.677 100.499 437.677 101.337V101.354C437.677 101.929 437.814 102.427 438.09 102.849C438.365 103.271 438.74 103.596 439.215 103.824C439.695 104.053 440.234 104.167 440.832 104.167ZM452.029 107.34C452.885 107.34 453.629 107.196 454.262 106.909C454.895 106.622 455.381 106.218 455.721 105.696C456.066 105.175 456.239 104.562 456.239 103.859V94.543H454.71V96.1074H454.604C454.411 95.75 454.168 95.4424 453.875 95.1846C453.588 94.9268 453.257 94.7275 452.882 94.5869C452.507 94.4463 452.097 94.376 451.651 94.376C450.831 94.376 450.122 94.5752 449.524 94.9736C448.927 95.3662 448.464 95.9082 448.136 96.5996C447.813 97.2852 447.652 98.0703 447.652 98.9551V98.9727C447.652 99.8633 447.813 100.651 448.136 101.337C448.458 102.022 448.915 102.562 449.507 102.954C450.104 103.341 450.808 103.534 451.616 103.534C452.05 103.534 452.454 103.473 452.829 103.35C453.204 103.221 453.541 103.033 453.84 102.787C454.139 102.541 454.388 102.245 454.587 101.899H454.728V103.78C454.728 104.478 454.487 105.02 454.007 105.406C453.532 105.793 452.873 105.986 452.029 105.986C451.35 105.986 450.805 105.869 450.395 105.635C449.984 105.406 449.735 105.113 449.647 104.756L449.639 104.747H448.057L448.048 104.756C448.13 105.271 448.338 105.723 448.672 106.109C449.012 106.502 449.466 106.804 450.034 107.015C450.603 107.231 451.268 107.34 452.029 107.34ZM451.95 102.181C451.37 102.181 450.875 102.046 450.465 101.776C450.061 101.501 449.75 101.123 449.533 100.643C449.322 100.162 449.217 99.6055 449.217 98.9727V98.9551C449.217 98.3281 449.322 97.7715 449.533 97.2852C449.75 96.7988 450.061 96.418 450.465 96.1426C450.875 95.8672 451.37 95.7295 451.95 95.7295C452.536 95.7295 453.037 95.8672 453.453 96.1426C453.869 96.418 454.188 96.7988 454.411 97.2852C454.64 97.7715 454.754 98.3281 454.754 98.9551V98.9727C454.754 99.6055 454.64 100.162 454.411 100.643C454.188 101.123 453.869 101.501 453.453 101.776C453.037 102.046 452.536 102.181 451.95 102.181ZM462.901 104.167C463.458 104.167 463.959 104.097 464.404 103.956C464.85 103.81 465.236 103.616 465.564 103.376C465.898 103.13 466.168 102.857 466.373 102.559C466.584 102.254 466.73 101.938 466.812 101.609L466.83 101.539H465.301L465.266 101.618C465.184 101.812 465.04 101.999 464.835 102.181C464.63 102.362 464.369 102.512 464.053 102.629C463.736 102.746 463.364 102.805 462.937 102.805C462.362 102.805 461.864 102.679 461.442 102.427C461.026 102.169 460.704 101.803 460.476 101.328C460.247 100.854 460.133 100.279 460.133 99.6055V98.999C460.133 98.29 460.25 97.6924 460.484 97.2061C460.719 96.7197 461.035 96.3535 461.434 96.1074C461.832 95.8613 462.286 95.7383 462.796 95.7383C463.306 95.7383 463.757 95.8555 464.149 96.0898C464.542 96.3242 464.85 96.6816 465.072 97.1621C465.295 97.6426 465.406 98.2549 465.406 98.999V99.6055L466.162 98.4893H459.359V99.7109H466.944V99.1133C466.944 98.1699 466.777 97.3438 466.443 96.6348C466.115 95.9199 465.641 95.3662 465.02 94.9736C464.404 94.5752 463.666 94.376 462.805 94.376C461.949 94.376 461.202 94.584 460.563 95C459.931 95.4102 459.438 95.9844 459.087 96.7227C458.741 97.4609 458.568 98.3193 458.568 99.2979V99.3066C458.568 100.297 458.741 101.155 459.087 101.882C459.438 102.608 459.937 103.171 460.581 103.569C461.226 103.968 461.999 104.167 462.901 104.167ZM470.521 104.088C470.838 104.088 471.104 103.977 471.321 103.754C471.544 103.531 471.655 103.265 471.655 102.954C471.655 102.638 471.544 102.371 471.321 102.154C471.104 101.932 470.838 101.82 470.521 101.82C470.211 101.82 469.944 101.932 469.722 102.154C469.499 102.371 469.388 102.638 469.388 102.954C469.388 103.265 469.499 103.531 469.722 103.754C469.944 103.977 470.211 104.088 470.521 104.088Z" fill="black"/>
<rect x="32.5" y="132.5" width="578" height="47" rx="7.5" fill="white" stroke="#D4D4D4"/>
<path d="M56.3047 152.953V151.461L49.5859 155.422V156.578L56.3047 160.539V159.047L50.9297 156.07V155.93L56.3047 152.953ZM62.9844 150.445C63.6094 150.445 64.0859 149.977 64.0859 149.352C64.0859 148.734 63.6094 148.266 62.9844 148.266C62.3594 148.266 61.8828 148.734 61.8828 149.352C61.8828 149.977 62.3594 150.445 62.9844 150.445ZM66.5391 161V159.898H63.7344V152.523H59.5391V153.625H62.4219V159.898H59.5156V161H66.5391ZM71.4766 161H72.8047V153.68H76.5312V152.547H72.7891V151.672C72.7891 150.82 73.4141 150.383 74.5938 150.383C75.0703 150.383 76.1641 150.414 76.5312 150.453V149.367C76.25 149.328 75.0703 149.289 74.5781 149.289C72.4922 149.289 71.4766 150.055 71.4766 151.695V152.547H69.2031V153.68H71.4766V161ZM82.2812 157.203C82.2812 155.047 83.3906 153.75 85.2656 153.75C85.7266 153.75 86.2734 153.844 86.6641 153.984V152.492C86.3828 152.375 85.9219 152.305 85.4375 152.305C83.8047 152.305 82.75 153.117 82.4375 154.688H82.2656V152.523H79.1016V153.586H80.9844V159.938H79.2734V161H84.9062V159.938H82.2812V157.203ZM91.6484 161.148C92.8828 161.148 93.8047 160.641 94.2109 159.734H94.3438V161.008H95.6094V155.203C95.6094 153.438 94.4688 152.422 92.4766 152.422C90.7422 152.422 89.4297 153.352 89.2734 154.711H90.5781C90.7969 153.984 91.4844 153.57 92.4609 153.57C93.6406 153.57 94.2891 154.156 94.2891 155.219V155.984L91.9609 156.102C90.0312 156.203 88.9531 157.094 88.9531 158.594C88.9531 160.133 90.0312 161.148 91.6484 161.148ZM92.0312 159.984C90.9609 159.984 90.2969 159.438 90.2969 158.547C90.2969 157.664 90.9219 157.156 92.1094 157.102L94.2891 157V158C94.2891 159.133 93.3125 159.984 92.0312 159.984ZM106.484 154.758C106.484 153.188 105.867 152.367 104.688 152.367C103.836 152.367 103.156 152.883 102.938 153.695H102.797C102.617 152.859 102.055 152.367 101.258 152.367C100.461 152.367 99.8516 152.867 99.6406 153.719H99.5V152.523H98.3125V161H99.5078V155.281C99.5078 154.227 99.9766 153.578 100.727 153.578C101.445 153.578 101.82 154.117 101.82 155.141V161H103.008V155.281C103.008 154.227 103.461 153.578 104.203 153.578C104.914 153.578 105.289 154.117 105.289 155.148V161H106.484V154.758ZM114.578 158.812C114.344 159.555 113.555 160.008 112.484 160.008C111.039 160.008 110.117 159.008 110.117 157.453V157.109H115.891V156.281C115.891 153.828 114.594 152.367 112.391 152.367C110.234 152.367 108.805 153.836 108.805 156.07V157.344C108.805 159.758 110.156 161.156 112.484 161.156C114.266 161.156 115.609 160.211 115.867 158.812H114.578ZM112.383 153.508C113.75 153.508 114.578 154.484 114.578 156.102H110.117C110.117 154.477 110.969 153.508 112.383 153.508ZM128.984 154.812C128.984 156.016 129.742 156.789 131.273 157.141L132.531 157.43C133.609 157.672 134.023 158.031 134.023 158.703C134.023 159.516 133.289 160.039 132.133 160.039C131.039 160.039 130.289 159.586 130.094 158.805H128.742C128.891 160.258 130.164 161.156 132.086 161.156C134.094 161.156 135.398 160.141 135.398 158.578C135.398 157.352 134.648 156.633 133 156.258L131.805 155.984C130.742 155.75 130.305 155.383 130.305 154.734C130.305 153.961 131 153.461 132.078 153.461C133.07 153.461 133.781 153.914 133.938 154.656H135.219C135.062 153.242 133.867 152.359 132.102 152.359C130.234 152.359 128.984 153.344 128.984 154.812ZM141.625 157.203C141.625 155.047 142.734 153.75 144.609 153.75C145.07 153.75 145.617 153.844 146.008 153.984V152.492C145.727 152.375 145.266 152.305 144.781 152.305C143.148 152.305 142.094 153.117 141.781 154.688H141.609V152.523H138.445V153.586H140.328V159.938H138.617V161H144.25V159.938H141.625V157.203ZM155.383 155.164C155.164 153.422 153.883 152.359 152.008 152.359C149.703 152.359 148.359 153.773 148.359 156.203V157.312C148.359 159.742 149.703 161.156 152.008 161.156C153.883 161.156 155.172 160.102 155.383 158.375H154.07C153.906 159.344 153.078 159.961 151.984 159.961C150.508 159.961 149.688 158.961 149.688 157.141V156.375C149.688 154.555 150.508 153.547 151.984 153.547C153.078 153.547 153.906 154.172 154.07 155.164H155.383ZM165.875 154.867V153.578H157.609V154.867H165.875ZM165.875 158.43V157.141H157.609V158.43H165.875ZM169.945 154.664L171.328 149.578H169.719L168.766 154.664H169.945ZM172.961 154.664L174.344 149.578H172.734L171.781 154.664H172.961ZM178.047 161H179.375V156.016C179.375 154.57 180.32 153.594 181.719 153.594C183.047 153.594 183.672 154.32 183.672 155.844V161H185V155.508C185 153.484 184 152.375 182.156 152.375C180.859 152.375 179.883 152.969 179.438 154.023H179.328V149.195H178.047V161ZM189.969 150.25V152.547H187.711V153.68H189.969V158.477C189.969 160.242 190.945 161.039 193.047 161.039C193.453 161.039 194.484 161 194.695 160.961V159.836C194.469 159.859 193.617 159.883 193.141 159.883C191.945 159.883 191.297 159.383 191.297 158.461V153.68H194.719V152.547H191.281V150.25H189.969ZM199.859 150.25V152.547H197.602V153.68H199.859V158.477C199.859 160.242 200.836 161.039 202.938 161.039C203.344 161.039 204.375 161 204.586 160.961V159.836C204.359 159.859 203.508 159.883 203.031 159.883C201.836 159.883 201.188 159.383 201.188 158.461V153.68H204.609V152.547H201.172V150.25H199.859ZM211.727 152.383C210.516 152.383 209.633 152.883 209.188 153.82H209.047V152.523H207.734V163.859H209.086V159.688H209.234C209.602 160.617 210.5 161.141 211.727 161.141C213.688 161.141 214.969 159.727 214.969 157.555V155.977C214.969 153.797 213.688 152.383 211.727 152.383ZM211.344 153.602C212.742 153.602 213.633 154.602 213.633 156.164V157.383C213.633 158.945 212.742 159.953 211.344 159.953C209.945 159.953 209.055 158.953 209.055 157.383V156.164C209.055 154.602 209.945 153.602 211.344 153.602ZM218 154.812C218 156.016 218.758 156.789 220.289 157.141L221.547 157.43C222.625 157.672 223.039 158.031 223.039 158.703C223.039 159.516 222.305 160.039 221.148 160.039C220.055 160.039 219.305 159.586 219.109 158.805H217.758C217.906 160.258 219.18 161.156 221.102 161.156C223.109 161.156 224.414 160.141 224.414 158.578C224.414 157.352 223.664 156.633 222.016 156.258L220.82 155.984C219.758 155.75 219.32 155.383 219.32 154.734C219.32 153.961 220.016 153.461 221.094 153.461C222.086 153.461 222.797 153.914 222.953 154.656H224.234C224.078 153.242 222.883 152.359 221.117 152.359C219.25 152.359 218 153.344 218 154.812ZM230.977 155.047C231.75 155.047 232.391 154.391 232.391 153.602C232.391 152.812 231.75 152.156 230.977 152.156C230.203 152.156 229.562 152.812 229.562 153.602C229.562 154.391 230.203 155.047 230.977 155.047ZM230.977 161.047C231.75 161.047 232.391 160.398 232.391 159.602C232.391 158.812 231.75 158.164 230.977 158.164C230.203 158.164 229.562 158.812 229.562 159.602C229.562 160.398 230.203 161.047 230.977 161.047ZM238.766 162.07L244.266 148.656H242.961L237.469 162.07H238.766ZM248.656 162.07L254.156 148.656H252.852L247.359 162.07H248.656ZM262.938 158.812C262.703 159.555 261.914 160.008 260.844 160.008C259.398 160.008 258.477 159.008 258.477 157.453V157.109H264.25V156.281C264.25 153.828 262.953 152.367 260.75 152.367C258.594 152.367 257.164 153.836 257.164 156.07V157.344C257.164 159.758 258.516 161.156 260.844 161.156C262.625 161.156 263.969 160.211 264.227 158.812H262.938ZM260.742 153.508C262.109 153.508 262.938 154.484 262.938 156.102H258.477C258.477 154.477 259.328 153.508 260.742 153.508ZM267.242 161H273.836V159.859H268.906V159.758L273.805 153.516V152.523H267.266V153.664H272.219V153.766L267.242 160.062V161ZM279.016 156.328H278.914V149.195H277.586V161H278.914V157.914L280.086 156.789L282.977 161H284.555L281.031 155.883L284.32 152.523H282.711L279.016 156.328ZM290.32 161.156C292.562 161.156 293.992 159.695 293.992 157.406V156.125C293.992 153.836 292.562 152.375 290.32 152.375C288.078 152.375 286.648 153.836 286.648 156.125V157.406C286.648 159.695 288.078 161.156 290.32 161.156ZM290.32 153.547C291.773 153.547 292.68 154.578 292.68 156.242V157.281C292.68 158.953 291.773 159.977 290.32 159.977C288.867 159.977 287.961 158.953 287.961 157.281V156.242C287.961 154.578 288.867 153.547 290.32 153.547ZM304.297 154.758C304.297 153.188 303.68 152.367 302.5 152.367C301.648 152.367 300.969 152.883 300.75 153.695H300.609C300.43 152.859 299.867 152.367 299.07 152.367C298.273 152.367 297.664 152.867 297.453 153.719H297.312V152.523H296.125V161H297.32V155.281C297.32 154.227 297.789 153.578 298.539 153.578C299.258 153.578 299.633 154.117 299.633 155.141V161H300.82V155.281C300.82 154.227 301.273 153.578 302.016 153.578C302.727 153.578 303.102 154.117 303.102 155.148V161H304.297V154.758ZM314.188 154.758C314.188 153.188 313.57 152.367 312.391 152.367C311.539 152.367 310.859 152.883 310.641 153.695H310.5C310.32 152.859 309.758 152.367 308.961 152.367C308.164 152.367 307.555 152.867 307.344 153.719H307.203V152.523H306.016V161H307.211V155.281C307.211 154.227 307.68 153.578 308.43 153.578C309.148 153.578 309.523 154.117 309.523 155.141V161H310.711V155.281C310.711 154.227 311.164 153.578 311.906 153.578C312.617 153.578 312.992 154.117 312.992 155.148V161H314.188V154.758ZM322.281 158.812C322.047 159.555 321.258 160.008 320.188 160.008C318.742 160.008 317.82 159.008 317.82 157.453V157.109H323.594V156.281C323.594 153.828 322.297 152.367 320.094 152.367C317.938 152.367 316.508 153.836 316.508 156.07V157.344C316.508 159.758 317.859 161.156 320.188 161.156C321.969 161.156 323.312 160.211 323.57 158.812H322.281ZM320.086 153.508C321.453 153.508 322.281 154.484 322.281 156.102H317.82C317.82 154.477 318.672 153.508 320.086 153.508ZM326.414 161H327.742V156.008C327.742 154.562 328.68 153.586 330.078 153.586C331.398 153.586 332.023 154.305 332.023 155.836V161H333.352V155.5C333.352 153.469 332.352 152.367 330.508 152.367C329.219 152.367 328.25 152.961 327.797 154.016H327.688V152.523H326.414V161ZM338.328 150.25V152.547H336.07V153.68H338.328V158.477C338.328 160.242 339.305 161.039 341.406 161.039C341.812 161.039 342.844 161 343.055 160.961V159.836C342.828 159.859 341.977 159.883 341.5 159.883C340.305 159.883 339.656 159.383 339.656 158.461V153.68H343.078V152.547H339.641V150.25H338.328ZM349.664 161.047C350.438 161.047 351.078 160.398 351.078 159.602C351.078 158.812 350.438 158.164 349.664 158.164C348.891 158.164 348.25 158.812 348.25 159.602C348.25 160.398 348.891 161.047 349.664 161.047ZM360.672 150.445C361.297 150.445 361.773 149.977 361.773 149.352C361.773 148.734 361.297 148.266 360.672 148.266C360.047 148.266 359.57 148.734 359.57 149.352C359.57 149.977 360.047 150.445 360.672 150.445ZM361.438 152.523H356.258V153.625H360.133V160.797C360.133 162.008 359.656 162.383 358.078 162.383C357.562 162.383 356.469 162.359 356.062 162.32V163.508C356.625 163.555 357.531 163.57 358.117 163.57C360.477 163.57 361.438 162.828 361.438 160.953V152.523ZM369.445 161.156C371.688 161.156 373.117 159.695 373.117 157.406V156.125C373.117 153.836 371.688 152.375 369.445 152.375C367.203 152.375 365.773 153.836 365.773 156.125V157.406C365.773 159.695 367.203 161.156 369.445 161.156ZM369.445 153.547C370.898 153.547 371.805 154.578 371.805 156.242V157.281C371.805 158.953 370.898 159.977 369.445 159.977C367.992 159.977 367.086 158.953 367.086 157.281V156.242C367.086 154.578 367.992 153.547 369.445 153.547ZM382.805 152.523H381.477V157.516C381.477 158.961 380.539 159.938 379.141 159.938C377.82 159.938 377.195 159.219 377.195 157.688V152.523H375.867V158.023C375.867 160.055 376.867 161.156 378.711 161.156C380 161.156 380.969 160.562 381.422 159.508H381.531V161H382.805V152.523ZM392.93 161V159.898H390.133V149.195H385.93V150.297H388.805V159.898H385.906V161H392.93ZM401.406 158.812C401.172 159.555 400.383 160.008 399.312 160.008C397.867 160.008 396.945 159.008 396.945 157.453V157.109H402.719V156.281C402.719 153.828 401.422 152.367 399.219 152.367C397.062 152.367 395.633 153.836 395.633 156.07V157.344C395.633 159.758 396.984 161.156 399.312 161.156C401.094 161.156 402.438 160.211 402.695 158.812H401.406ZM399.211 153.508C400.578 153.508 401.406 154.484 401.406 156.102H396.945C396.945 154.477 397.797 153.508 399.211 153.508ZM405.18 152.523L408.281 161H409.742L412.836 152.523H411.422L409.07 159.578H408.969L406.602 152.523H405.18ZM418.898 161.047C419.672 161.047 420.312 160.398 420.312 159.602C420.312 158.812 419.672 158.164 418.898 158.164C418.125 158.164 417.484 158.812 417.484 159.602C417.484 160.398 418.125 161.047 418.898 161.047ZM428.258 161.141C429.469 161.141 430.359 160.641 430.797 159.703H430.945V161H432.25V149.195H430.898V153.836H430.758C430.391 152.906 429.484 152.383 428.258 152.383C426.297 152.383 425.016 153.797 425.016 155.969V157.547C425.016 159.727 426.297 161.141 428.258 161.141ZM428.648 159.93C427.25 159.93 426.352 158.922 426.352 157.359V156.141C426.352 154.578 427.25 153.578 428.648 153.578C430.039 153.578 430.938 154.578 430.938 156.141V157.359C430.938 158.93 430.039 159.93 428.648 159.93ZM440.969 158.812C440.734 159.555 439.945 160.008 438.875 160.008C437.43 160.008 436.508 159.008 436.508 157.453V157.109H442.281V156.281C442.281 153.828 440.984 152.367 438.781 152.367C436.625 152.367 435.195 153.836 435.195 156.07V157.344C435.195 159.758 436.547 161.156 438.875 161.156C440.656 161.156 442 160.211 442.258 158.812H440.969ZM438.773 153.508C440.141 153.508 440.969 154.484 440.969 156.102H436.508C436.508 154.477 437.359 153.508 438.773 153.508ZM444.742 152.523L447.844 161H449.305L452.398 152.523H450.984L448.633 159.578H448.531L446.164 152.523H444.742ZM456.359 162.07L461.859 148.656H460.555L455.062 162.07H456.359ZM470.641 158.812C470.406 159.555 469.617 160.008 468.547 160.008C467.102 160.008 466.18 159.008 466.18 157.453V157.109H471.953V156.281C471.953 153.828 470.656 152.367 468.453 152.367C466.297 152.367 464.867 153.836 464.867 156.07V157.344C464.867 159.758 466.219 161.156 468.547 161.156C470.328 161.156 471.672 160.211 471.93 158.812H470.641ZM468.445 153.508C469.812 153.508 470.641 154.484 470.641 156.102H466.18C466.18 154.477 467.031 153.508 468.445 153.508ZM482.328 154.758C482.328 153.188 481.711 152.367 480.531 152.367C479.68 152.367 479 152.883 478.781 153.695H478.641C478.461 152.859 477.898 152.367 477.102 152.367C476.305 152.367 475.695 152.867 475.484 153.719H475.344V152.523H474.156V161H475.352V155.281C475.352 154.227 475.82 153.578 476.57 153.578C477.289 153.578 477.664 154.117 477.664 155.141V161H478.852V155.281C478.852 154.227 479.305 153.578 480.047 153.578C480.758 153.578 481.133 154.117 481.133 155.148V161H482.328V154.758ZM488.664 161.141C490.625 161.141 491.906 159.727 491.906 157.547V155.969C491.906 153.797 490.625 152.383 488.664 152.383C487.438 152.383 486.539 152.906 486.164 153.836H486.023V149.195H484.672V161H485.977V159.703H486.125C486.562 160.641 487.453 161.141 488.664 161.141ZM488.273 159.93C486.883 159.93 485.992 158.93 485.992 157.359V156.141C485.992 154.578 486.883 153.578 488.273 153.578C489.68 153.578 490.57 154.578 490.57 156.141V157.359C490.57 158.922 489.68 159.93 488.273 159.93ZM500.312 158.812C500.078 159.555 499.289 160.008 498.219 160.008C496.773 160.008 495.852 159.008 495.852 157.453V157.109H501.625V156.281C501.625 153.828 500.328 152.367 498.125 152.367C495.969 152.367 494.539 153.836 494.539 156.07V157.344C494.539 159.758 495.891 161.156 498.219 161.156C500 161.156 501.344 160.211 501.602 158.812H500.312ZM498.117 153.508C499.484 153.508 500.312 154.484 500.312 156.102H495.852C495.852 154.477 496.703 153.508 498.117 153.508ZM507.383 161.141C508.594 161.141 509.484 160.641 509.922 159.703H510.07V161H511.375V149.195H510.023V153.836H509.883C509.516 152.906 508.609 152.383 507.383 152.383C505.422 152.383 504.141 153.797 504.141 155.969V157.547C504.141 159.727 505.422 161.141 507.383 161.141ZM507.773 159.93C506.375 159.93 505.477 158.922 505.477 157.359V156.141C505.477 154.578 506.375 153.578 507.773 153.578C509.164 153.578 510.062 154.578 510.062 156.141V157.359C510.062 158.93 509.164 159.93 507.773 159.93ZM515.703 162.07L521.203 148.656H519.898L514.406 162.07H515.703ZM527.695 161.047C528.469 161.047 529.109 160.398 529.109 159.602C529.109 158.812 528.469 158.164 527.695 158.164C526.922 158.164 526.281 158.812 526.281 159.602C526.281 160.398 526.922 161.047 527.695 161.047ZM537.586 161.047C538.359 161.047 539 160.398 539 159.602C539 158.812 538.359 158.164 537.586 158.164C536.812 158.164 536.172 158.812 536.172 159.602C536.172 160.398 536.812 161.047 537.586 161.047ZM547.477 161.047C548.25 161.047 548.891 160.398 548.891 159.602C548.891 158.812 548.25 158.164 547.477 158.164C546.703 158.164 546.062 158.812 546.062 159.602C546.062 160.398 546.703 161.047 547.477 161.047ZM555.68 154.664L557.062 149.578H555.453L554.5 154.664H555.68ZM558.695 154.664L560.078 149.578H558.469L557.516 154.664H558.695ZM563.898 152.953L569.266 155.93V156.07L563.898 159.047V160.539L570.617 156.578V155.422L563.898 151.461V152.953Z" fill="black"/>
<path d="M513.5 132.5H603C607.142 132.5 610.5 135.858 610.5 140V172C610.5 176.142 607.142 179.5 603 179.5H513.5V132.5Z" fill="white" stroke="#D4D4D4"/>
<path d="M546.715 162.299C547.617 162.299 548.426 162.141 549.141 161.824C549.861 161.502 550.456 161.057 550.925 160.488C551.394 159.914 551.698 159.24 551.839 158.467V158.44H550.239L550.222 158.467C550.093 158.953 549.864 159.375 549.536 159.732C549.208 160.09 548.804 160.365 548.323 160.559C547.843 160.746 547.307 160.84 546.715 160.84C545.9 160.84 545.194 160.629 544.597 160.207C543.999 159.785 543.539 159.188 543.217 158.414C542.895 157.641 542.733 156.727 542.733 155.672V155.654C542.733 154.594 542.895 153.677 543.217 152.903C543.539 152.13 543.999 151.532 544.597 151.11C545.194 150.688 545.897 150.478 546.706 150.478C547.292 150.478 547.822 150.586 548.297 150.803C548.777 151.02 549.185 151.327 549.519 151.726C549.853 152.118 550.09 152.584 550.23 153.123L550.239 153.149H551.83L551.839 153.132C551.716 152.323 551.417 151.611 550.942 150.996C550.468 150.375 549.864 149.892 549.132 149.546C548.405 149.194 547.597 149.019 546.706 149.019C545.558 149.019 544.564 149.288 543.727 149.827C542.889 150.366 542.241 151.131 541.784 152.121C541.333 153.111 541.107 154.289 541.107 155.654V155.672C541.107 157.031 541.333 158.206 541.784 159.196C542.241 160.187 542.889 160.951 543.727 161.49C544.57 162.029 545.566 162.299 546.715 162.299ZM558.158 162.167C559.061 162.167 559.837 161.971 560.487 161.578C561.138 161.18 561.639 160.617 561.99 159.891C562.348 159.158 562.526 158.288 562.526 157.28V157.263C562.526 156.249 562.348 155.379 561.99 154.652C561.639 153.92 561.138 153.357 560.487 152.965C559.837 152.572 559.061 152.376 558.158 152.376C557.268 152.376 556.494 152.572 555.838 152.965C555.188 153.357 554.684 153.92 554.326 154.652C553.975 155.379 553.799 156.249 553.799 157.263V157.28C553.799 158.282 553.975 159.149 554.326 159.882C554.684 160.614 555.188 161.18 555.838 161.578C556.494 161.971 557.268 162.167 558.158 162.167ZM558.158 160.813C557.566 160.813 557.062 160.673 556.646 160.392C556.23 160.11 555.911 159.709 555.688 159.188C555.472 158.66 555.363 158.024 555.363 157.28V157.263C555.363 156.513 555.472 155.874 555.688 155.347C555.911 154.819 556.23 154.418 556.646 154.143C557.062 153.867 557.566 153.729 558.158 153.729C558.756 153.729 559.263 153.867 559.679 154.143C560.095 154.418 560.411 154.819 560.628 155.347C560.851 155.874 560.962 156.513 560.962 157.263V157.28C560.962 158.024 560.851 158.66 560.628 159.188C560.411 159.709 560.095 160.11 559.679 160.392C559.263 160.673 558.756 160.813 558.158 160.813ZM564.855 165.164H566.385V160.506H566.517C566.692 160.846 566.927 161.139 567.22 161.385C567.519 161.631 567.858 161.824 568.239 161.965C568.626 162.1 569.036 162.167 569.47 162.167C570.272 162.167 570.97 161.965 571.562 161.561C572.159 161.156 572.622 160.591 572.95 159.864C573.278 159.132 573.442 158.271 573.442 157.28V157.263C573.442 156.278 573.278 155.42 572.95 154.688C572.622 153.955 572.159 153.387 571.562 152.982C570.97 152.578 570.272 152.376 569.47 152.376C569.03 152.376 568.623 152.443 568.248 152.578C567.873 152.713 567.539 152.906 567.246 153.158C566.953 153.404 566.71 153.703 566.517 154.055H566.385V152.543H564.855V165.164ZM569.118 160.813C568.55 160.813 568.058 160.67 567.642 160.383C567.226 160.096 566.906 159.688 566.684 159.161C566.461 158.628 566.35 158.001 566.35 157.28V157.263C566.35 156.53 566.461 155.903 566.684 155.382C566.906 154.854 567.226 154.447 567.642 154.16C568.058 153.873 568.55 153.729 569.118 153.729C569.698 153.729 570.193 153.87 570.604 154.151C571.014 154.433 571.327 154.837 571.544 155.364C571.767 155.892 571.878 156.524 571.878 157.263V157.28C571.878 158.013 571.767 158.643 571.544 159.17C571.327 159.697 571.014 160.104 570.604 160.392C570.193 160.673 569.698 160.813 569.118 160.813ZM576.246 165.313C576.809 165.313 577.28 165.231 577.661 165.067C578.048 164.909 578.382 164.631 578.663 164.232C578.95 163.834 579.223 163.283 579.48 162.58L583.181 152.543H581.572L578.672 161.262L579.27 160.33H578.558L579.155 161.262L576.246 152.543H574.611L578.109 162.009L577.934 162.571C577.764 163.116 577.538 163.497 577.257 163.714C576.981 163.937 576.627 164.048 576.193 164.048C576.088 164.048 575.979 164.045 575.868 164.039C575.757 164.033 575.654 164.021 575.561 164.004V165.261C575.666 165.278 575.78 165.29 575.903 165.296C576.032 165.308 576.146 165.313 576.246 165.313Z" fill="black"/>
</svg>
