<svg width="645" height="209" viewBox="0 0 645 209" fill="none" xmlns="http://www.w3.org/2000/svg">
<rect x="0.5" y="0.5" width="644" height="208" rx="7.5" fill="#171717" stroke="#404040"/>
<path d="M42.3223 56.3418C43.8353 56.3418 45.1934 56.0547 46.3965 55.4805C47.5996 54.8971 48.5794 54.0905 49.3359 53.0605C50.0924 52.0306 50.5527 50.8457 50.7168 49.5059L50.7441 49.3555H47.2852L47.2441 49.4922C47.0345 50.3034 46.7018 50.9915 46.2461 51.5566C45.7904 52.1217 45.2298 52.5547 44.5645 52.8555C43.9082 53.1471 43.1608 53.293 42.3223 53.293C41.1829 53.293 40.1849 53.0013 39.3281 52.418C38.4805 51.8255 37.8242 50.9961 37.3594 49.9297C36.8945 48.8542 36.6621 47.5872 36.6621 46.1289V46.1152C36.6621 44.6478 36.8945 43.3854 37.3594 42.3281C37.8242 41.2617 38.4805 40.4368 39.3281 39.8535C40.1758 39.2702 41.1738 38.9785 42.3223 38.9785C43.179 38.9785 43.9401 39.1289 44.6055 39.4297C45.2708 39.7305 45.8223 40.1543 46.2598 40.7012C46.6973 41.248 47.0117 41.8997 47.2031 42.6562L47.2715 42.916H50.7305L50.7168 42.7793C50.5436 41.4395 50.0788 40.2546 49.3223 39.2246C48.5658 38.1947 47.5859 37.388 46.3828 36.8047C45.1888 36.2214 43.8353 35.9297 42.3223 35.9297C40.4355 35.9297 38.7995 36.3444 37.4141 37.1738C36.0286 37.9941 34.9577 39.1654 34.2012 40.6875C33.4447 42.2096 33.0664 44.0189 33.0664 46.1152V46.1289C33.0664 48.2253 33.4401 50.0391 34.1875 51.5703C34.944 53.0924 36.015 54.2682 37.4004 55.0977C38.7949 55.9271 40.4355 56.3418 42.3223 56.3418ZM59.4941 56.2871C60.916 56.2871 62.151 55.9863 63.1992 55.3848C64.2474 54.7832 65.0586 53.9219 65.6328 52.8008C66.2161 51.6706 66.5078 50.3216 66.5078 48.7539V48.7266C66.5078 47.168 66.2161 45.8281 65.6328 44.707C65.0495 43.5859 64.2292 42.7246 63.1719 42.123C62.1237 41.5124 60.8932 41.207 59.4805 41.207C58.0768 41.207 56.8509 41.5124 55.8027 42.123C54.7546 42.7246 53.9388 43.5905 53.3555 44.7207C52.7721 45.8418 52.4805 47.1771 52.4805 48.7266V48.7539C52.4805 50.3125 52.7676 51.6569 53.3418 52.7871C53.9251 53.9082 54.7409 54.7741 55.7891 55.3848C56.8372 55.9863 58.0723 56.2871 59.4941 56.2871ZM59.5078 53.5391C58.7878 53.5391 58.1589 53.3522 57.6211 52.9785C57.0924 52.6048 56.6777 52.0625 56.377 51.3516C56.0853 50.6315 55.9395 49.7656 55.9395 48.7539V48.7266C55.9395 47.724 56.0853 46.8672 56.377 46.1562C56.6777 45.4453 57.0924 44.903 57.6211 44.5293C58.1589 44.1556 58.7786 43.9688 59.4805 43.9688C60.2005 43.9688 60.8249 44.1556 61.3535 44.5293C61.8913 44.903 62.306 45.4453 62.5977 46.1562C62.8893 46.8672 63.0352 47.724 63.0352 48.7266V48.7539C63.0352 49.7656 62.8893 50.6315 62.5977 51.3516C62.3151 52.0625 61.9095 52.6048 61.3809 52.9785C60.8522 53.3522 60.2279 53.5391 59.5078 53.5391ZM68.6953 56H72.0859V47.5918C72.0859 46.89 72.2181 46.2793 72.4824 45.7598C72.7467 45.2311 73.1204 44.821 73.6035 44.5293C74.0866 44.2285 74.6517 44.0781 75.2988 44.0781C76.265 44.0781 76.9896 44.3607 77.4727 44.9258C77.9557 45.4818 78.1973 46.2747 78.1973 47.3047V56H81.6016V46.6211C81.6016 44.944 81.1641 43.6224 80.2891 42.6562C79.4232 41.6901 78.1927 41.207 76.5977 41.207C75.5039 41.207 74.5833 41.4395 73.8359 41.9043C73.0977 42.3691 72.5417 42.9935 72.168 43.7773H72.0859V41.5078H68.6953V56ZM90.8711 61.0723C92.2747 61.0723 93.487 60.8444 94.5078 60.3887C95.5286 59.9329 96.3171 59.2904 96.873 58.4609C97.429 57.6406 97.707 56.6836 97.707 55.5898V41.5078H94.3027V43.9688H94.2207C93.9473 43.4128 93.5918 42.9297 93.1543 42.5195C92.7259 42.1094 92.2246 41.7904 91.6504 41.5625C91.0762 41.3255 90.4473 41.207 89.7637 41.207C88.5423 41.207 87.4805 41.5078 86.5781 42.1094C85.6758 42.7109 84.974 43.5632 84.4727 44.666C83.9805 45.7598 83.7344 47.0723 83.7344 48.6035V48.6172C83.7344 50.1211 83.9759 51.4199 84.459 52.5137C84.9512 53.5983 85.6439 54.4368 86.5371 55.0293C87.4395 55.6217 88.4967 55.918 89.709 55.918C90.4017 55.918 91.0397 55.8132 91.623 55.6035C92.2155 55.3939 92.7305 55.1022 93.168 54.7285C93.6146 54.3548 93.9701 53.9082 94.2344 53.3887H94.3027V55.4805C94.3027 56.401 94.0065 57.1348 93.4141 57.6816C92.8216 58.2285 91.9694 58.502 90.8574 58.502C89.9824 58.502 89.2578 58.3607 88.6836 58.0781C88.1185 57.8047 87.7448 57.4583 87.5625 57.0391L87.5078 56.9297H84.1719L84.1992 57.0527C84.3359 57.8092 84.6868 58.4928 85.252 59.1035C85.8171 59.7142 86.5736 60.1927 87.5215 60.5391C88.4785 60.8945 89.5951 61.0723 90.8711 61.0723ZM90.7754 53.293C90.0462 53.293 89.4128 53.1061 88.875 52.7324C88.3372 52.3587 87.9225 51.8301 87.6309 51.1465C87.3392 50.4538 87.1934 49.6335 87.1934 48.6855V48.6719C87.1934 47.724 87.3392 46.9082 87.6309 46.2246C87.9225 45.541 88.3372 45.0124 88.875 44.6387C89.4128 44.265 90.0462 44.0781 90.7754 44.0781C91.4772 44.0781 92.0924 44.265 92.6211 44.6387C93.1497 45.0124 93.5645 45.5456 93.8652 46.2383C94.166 46.9219 94.3164 47.7331 94.3164 48.6719V48.6855C94.3164 49.6152 94.166 50.4264 93.8652 51.1191C93.5736 51.8118 93.1634 52.3496 92.6348 52.7324C92.1061 53.1061 91.4863 53.293 90.7754 53.293ZM100.496 56H103.887V47.5918C103.887 46.8717 104.01 46.2611 104.256 45.7598C104.502 45.2585 104.857 44.8802 105.322 44.625C105.787 44.3607 106.339 44.2285 106.977 44.2285C107.268 44.2285 107.537 44.2467 107.783 44.2832C108.038 44.3197 108.234 44.3652 108.371 44.4199V41.3438C108.243 41.3073 108.084 41.2754 107.893 41.248C107.701 41.2207 107.501 41.207 107.291 41.207C106.452 41.207 105.742 41.4577 105.158 41.959C104.584 42.4512 104.188 43.1348 103.969 44.0098H103.887V41.5078H100.496V56ZM114.072 56.2461C114.71 56.2461 115.307 56.1458 115.863 55.9453C116.428 55.7448 116.93 55.4577 117.367 55.084C117.805 54.7103 118.16 54.2728 118.434 53.7715H118.516V56H121.906V46.0332C121.906 45.0579 121.66 44.2103 121.168 43.4902C120.685 42.7702 119.997 42.2096 119.104 41.8086C118.219 41.4076 117.171 41.207 115.959 41.207C114.738 41.207 113.68 41.403 112.787 41.7949C111.903 42.1868 111.21 42.7246 110.709 43.4082C110.208 44.0827 109.921 44.8483 109.848 45.7051L109.834 45.8691H112.979L113.006 45.7461C113.124 45.2083 113.425 44.7708 113.908 44.4336C114.391 44.0872 115.034 43.9141 115.836 43.9141C116.702 43.9141 117.363 44.1283 117.818 44.5566C118.283 44.9759 118.516 45.5501 118.516 46.2793V50.627C118.516 51.2012 118.365 51.7161 118.064 52.1719C117.764 52.6276 117.354 52.9876 116.834 53.252C116.324 53.5163 115.74 53.6484 115.084 53.6484C114.337 53.6484 113.735 53.4798 113.279 53.1426C112.833 52.7962 112.609 52.3268 112.609 51.7344V51.7207C112.609 51.1465 112.833 50.6862 113.279 50.3398C113.726 49.9935 114.368 49.793 115.207 49.7383L120.266 49.4238V47.168L114.729 47.5098C112.979 47.61 111.62 48.0384 110.654 48.7949C109.697 49.5423 109.219 50.5586 109.219 51.8438V51.8711C109.219 52.7279 109.419 53.4889 109.82 54.1543C110.23 54.8105 110.8 55.3255 111.529 55.6992C112.268 56.0638 113.115 56.2461 114.072 56.2461ZM130.041 56.2871C130.396 56.2871 130.715 56.2734 130.998 56.2461C131.29 56.2188 131.536 56.1914 131.736 56.1641V53.6074C131.618 53.6165 131.49 53.6302 131.354 53.6484C131.226 53.6576 131.076 53.6621 130.902 53.6621C130.292 53.6621 129.827 53.5299 129.508 53.2656C129.198 52.9922 129.043 52.5046 129.043 51.8027V44.1328H131.736V41.5078H129.043V37.8301H125.584V41.5078H123.533V44.1328H125.584V52.0762C125.584 53.571 125.949 54.6465 126.678 55.3027C127.416 55.959 128.537 56.2871 130.041 56.2871ZM139.01 56.2871C140.113 56.2871 141.033 56.0547 141.771 55.5898C142.51 55.125 143.066 54.5052 143.439 53.7305H143.508V56H146.912V41.5078H143.508V49.9023C143.508 50.6042 143.376 51.2194 143.111 51.748C142.847 52.2767 142.473 52.6914 141.99 52.9922C141.516 53.2839 140.956 53.4297 140.309 53.4297C139.333 53.4297 138.604 53.1517 138.121 52.5957C137.638 52.0306 137.396 51.2331 137.396 50.2031V41.5078H134.006V50.8867C134.006 51.9987 134.202 52.9603 134.594 53.7715C134.986 54.5827 135.551 55.207 136.289 55.6445C137.036 56.0729 137.943 56.2871 139.01 56.2871ZM149.811 56H153.215V36.2715H149.811V56ZM160.393 56.2461C161.031 56.2461 161.628 56.1458 162.184 55.9453C162.749 55.7448 163.25 55.4577 163.688 55.084C164.125 54.7103 164.48 54.2728 164.754 53.7715H164.836V56H168.227V46.0332C168.227 45.0579 167.98 44.2103 167.488 43.4902C167.005 42.7702 166.317 42.2096 165.424 41.8086C164.54 41.4076 163.492 41.207 162.279 41.207C161.058 41.207 160.001 41.403 159.107 41.7949C158.223 42.1868 157.531 42.7246 157.029 43.4082C156.528 44.0827 156.241 44.8483 156.168 45.7051L156.154 45.8691H159.299L159.326 45.7461C159.445 45.2083 159.745 44.7708 160.229 44.4336C160.712 44.0872 161.354 43.9141 162.156 43.9141C163.022 43.9141 163.683 44.1283 164.139 44.5566C164.604 44.9759 164.836 45.5501 164.836 46.2793V50.627C164.836 51.2012 164.686 51.7161 164.385 52.1719C164.084 52.6276 163.674 52.9876 163.154 53.252C162.644 53.5163 162.061 53.6484 161.404 53.6484C160.657 53.6484 160.055 53.4798 159.6 53.1426C159.153 52.7962 158.93 52.3268 158.93 51.7344V51.7207C158.93 51.1465 159.153 50.6862 159.6 50.3398C160.046 49.9935 160.689 49.793 161.527 49.7383L166.586 49.4238V47.168L161.049 47.5098C159.299 47.61 157.941 48.0384 156.975 48.7949C156.018 49.5423 155.539 50.5586 155.539 51.8438V51.8711C155.539 52.7279 155.74 53.4889 156.141 54.1543C156.551 54.8105 157.12 55.3255 157.85 55.6992C158.588 56.0638 159.436 56.2461 160.393 56.2461ZM176.361 56.2871C176.717 56.2871 177.036 56.2734 177.318 56.2461C177.61 56.2188 177.856 56.1914 178.057 56.1641V53.6074C177.938 53.6165 177.811 53.6302 177.674 53.6484C177.546 53.6576 177.396 53.6621 177.223 53.6621C176.612 53.6621 176.147 53.5299 175.828 53.2656C175.518 52.9922 175.363 52.5046 175.363 51.8027V44.1328H178.057V41.5078H175.363V37.8301H171.904V41.5078H169.854V44.1328H171.904V52.0762C171.904 53.571 172.269 54.6465 172.998 55.3027C173.736 55.959 174.857 56.2871 176.361 56.2871ZM180.49 56H183.895V41.5078H180.49V56ZM182.186 39.4297C182.723 39.4297 183.174 39.2474 183.539 38.8828C183.904 38.5182 184.086 38.0807 184.086 37.5703C184.086 37.0508 183.904 36.6133 183.539 36.2578C183.174 35.8932 182.723 35.7109 182.186 35.7109C181.657 35.7109 181.21 35.8932 180.846 36.2578C180.481 36.6133 180.299 37.0508 180.299 37.5703C180.299 38.0807 180.481 38.5182 180.846 38.8828C181.21 39.2474 181.657 39.4297 182.186 39.4297ZM193.205 56.2871C194.627 56.2871 195.862 55.9863 196.91 55.3848C197.958 54.7832 198.77 53.9219 199.344 52.8008C199.927 51.6706 200.219 50.3216 200.219 48.7539V48.7266C200.219 47.168 199.927 45.8281 199.344 44.707C198.76 43.5859 197.94 42.7246 196.883 42.123C195.835 41.5124 194.604 41.207 193.191 41.207C191.788 41.207 190.562 41.5124 189.514 42.123C188.465 42.7246 187.65 43.5905 187.066 44.7207C186.483 45.8418 186.191 47.1771 186.191 48.7266V48.7539C186.191 50.3125 186.479 51.6569 187.053 52.7871C187.636 53.9082 188.452 54.7741 189.5 55.3848C190.548 55.9863 191.783 56.2871 193.205 56.2871ZM193.219 53.5391C192.499 53.5391 191.87 53.3522 191.332 52.9785C190.803 52.6048 190.389 52.0625 190.088 51.3516C189.796 50.6315 189.65 49.7656 189.65 48.7539V48.7266C189.65 47.724 189.796 46.8672 190.088 46.1562C190.389 45.4453 190.803 44.903 191.332 44.5293C191.87 44.1556 192.49 43.9688 193.191 43.9688C193.911 43.9688 194.536 44.1556 195.064 44.5293C195.602 44.903 196.017 45.4453 196.309 46.1562C196.6 46.8672 196.746 47.724 196.746 48.7266V48.7539C196.746 49.7656 196.6 50.6315 196.309 51.3516C196.026 52.0625 195.62 52.6048 195.092 52.9785C194.563 53.3522 193.939 53.5391 193.219 53.5391ZM202.406 56H205.797V47.5918C205.797 46.89 205.929 46.2793 206.193 45.7598C206.458 45.2311 206.831 44.821 207.314 44.5293C207.798 44.2285 208.363 44.0781 209.01 44.0781C209.976 44.0781 210.701 44.3607 211.184 44.9258C211.667 45.4818 211.908 46.2747 211.908 47.3047V56H215.312V46.6211C215.312 44.944 214.875 43.6224 214 42.6562C213.134 41.6901 211.904 41.207 210.309 41.207C209.215 41.207 208.294 41.4395 207.547 41.9043C206.809 42.3691 206.253 42.9935 205.879 43.7773H205.797V41.5078H202.406V56ZM223.707 56.2871C224.892 56.2871 225.94 56.1003 226.852 55.7266C227.772 55.3438 228.492 54.8105 229.012 54.127C229.531 53.4342 229.791 52.6322 229.791 51.7207V51.707C229.791 50.6589 229.472 49.8249 228.834 49.2051C228.196 48.5762 227.125 48.0931 225.621 47.7559L223.215 47.2227C222.467 47.0495 221.934 46.8216 221.615 46.5391C221.305 46.2565 221.15 45.9102 221.15 45.5V45.4863C221.15 45.1309 221.246 44.821 221.438 44.5566C221.638 44.2923 221.921 44.0872 222.285 43.9414C222.659 43.7956 223.096 43.7227 223.598 43.7227C224.391 43.7227 225.015 43.9141 225.471 44.2969C225.926 44.6706 226.191 45.1491 226.264 45.7324L226.277 45.8418H229.449L229.436 45.6914C229.399 44.8529 229.144 44.0964 228.67 43.4219C228.205 42.7474 227.544 42.2096 226.688 41.8086C225.831 41.4076 224.801 41.207 223.598 41.207C222.44 41.207 221.424 41.3939 220.549 41.7676C219.674 42.1413 218.995 42.6608 218.512 43.3262C218.029 43.9915 217.787 44.7663 217.787 45.6504V45.6641C217.787 46.7396 218.133 47.6191 218.826 48.3027C219.528 48.9863 220.572 49.4785 221.957 49.7793L224.363 50.3125C225.12 50.4857 225.644 50.709 225.936 50.9824C226.227 51.2467 226.373 51.5931 226.373 52.0215V52.0352C226.373 52.3906 226.264 52.7005 226.045 52.9648C225.835 53.2292 225.535 53.4297 225.143 53.5664C224.751 53.7031 224.277 53.7715 223.721 53.7715C222.855 53.7715 222.18 53.5983 221.697 53.252C221.223 52.9056 220.923 52.418 220.795 51.7891L220.768 51.666H217.418L217.432 51.7891C217.541 52.6823 217.846 53.4707 218.348 54.1543C218.858 54.8288 219.56 55.3529 220.453 55.7266C221.355 56.1003 222.44 56.2871 223.707 56.2871ZM233.264 49.3965H236.23L236.49 36.2715H232.99L233.264 49.3965ZM234.74 56.1504C235.296 56.1504 235.766 55.9635 236.148 55.5898C236.531 55.2161 236.723 54.7604 236.723 54.2227C236.723 53.6758 236.531 53.2201 236.148 52.8555C235.766 52.4818 235.296 52.2949 234.74 52.2949C234.193 52.2949 233.724 52.4818 233.332 52.8555C232.949 53.2201 232.758 53.6758 232.758 54.2227C232.758 54.7604 232.949 55.2161 233.332 55.5898C233.724 55.9635 234.193 56.1504 234.74 56.1504ZM251.83 56H255.344V48.2207L262.262 36.2715H258.406L253.635 44.8574H253.539L248.768 36.2715H244.912L251.83 48.2207V56ZM267.58 56.2871C269.002 56.2871 270.237 55.9863 271.285 55.3848C272.333 54.7832 273.145 53.9219 273.719 52.8008C274.302 51.6706 274.594 50.3216 274.594 48.7539V48.7266C274.594 47.168 274.302 45.8281 273.719 44.707C273.135 43.5859 272.315 42.7246 271.258 42.123C270.21 41.5124 268.979 41.207 267.566 41.207C266.163 41.207 264.937 41.5124 263.889 42.123C262.84 42.7246 262.025 43.5905 261.441 44.7207C260.858 45.8418 260.566 47.1771 260.566 48.7266V48.7539C260.566 50.3125 260.854 51.6569 261.428 52.7871C262.011 53.9082 262.827 54.7741 263.875 55.3848C264.923 55.9863 266.158 56.2871 267.58 56.2871ZM267.594 53.5391C266.874 53.5391 266.245 53.3522 265.707 52.9785C265.178 52.6048 264.764 52.0625 264.463 51.3516C264.171 50.6315 264.025 49.7656 264.025 48.7539V48.7266C264.025 47.724 264.171 46.8672 264.463 46.1562C264.764 45.4453 265.178 44.903 265.707 44.5293C266.245 44.1556 266.865 43.9688 267.566 43.9688C268.286 43.9688 268.911 44.1556 269.439 44.5293C269.977 44.903 270.392 45.4453 270.684 46.1562C270.975 46.8672 271.121 47.724 271.121 48.7266V48.7539C271.121 49.7656 270.975 50.6315 270.684 51.3516C270.401 52.0625 269.995 52.6048 269.467 52.9785C268.938 53.3522 268.314 53.5391 267.594 53.5391ZM281.717 56.2871C282.82 56.2871 283.74 56.0547 284.479 55.5898C285.217 55.125 285.773 54.5052 286.146 53.7305H286.215V56H289.619V41.5078H286.215V49.9023C286.215 50.6042 286.083 51.2194 285.818 51.748C285.554 52.2767 285.18 52.6914 284.697 52.9922C284.223 53.2839 283.663 53.4297 283.016 53.4297C282.04 53.4297 281.311 53.1517 280.828 52.5957C280.345 52.0306 280.104 51.2331 280.104 50.2031V41.5078H276.713V50.8867C276.713 51.9987 276.909 52.9603 277.301 53.7715C277.693 54.5827 278.258 55.207 278.996 55.6445C279.743 56.0729 280.65 56.2871 281.717 56.2871ZM292.422 56H295.812V47.5918C295.812 46.8717 295.936 46.2611 296.182 45.7598C296.428 45.2585 296.783 44.8802 297.248 44.625C297.713 44.3607 298.264 44.2285 298.902 44.2285C299.194 44.2285 299.463 44.2467 299.709 44.2832C299.964 44.3197 300.16 44.3652 300.297 44.4199V41.3438C300.169 41.3073 300.01 41.2754 299.818 41.248C299.627 41.2207 299.426 41.207 299.217 41.207C298.378 41.207 297.667 41.4577 297.084 41.959C296.51 42.4512 296.113 43.1348 295.895 44.0098H295.812V41.5078H292.422V56ZM314.078 56.2871C315.299 56.2871 316.37 56.0547 317.291 55.5898C318.212 55.1159 318.945 54.4779 319.492 53.6758C320.039 52.8737 320.358 51.9714 320.449 50.9688L320.463 50.873H317.25L317.223 50.9961C317.068 51.7526 316.721 52.3678 316.184 52.8418C315.655 53.3066 314.958 53.5391 314.092 53.5391C313.381 53.5391 312.757 53.3522 312.219 52.9785C311.69 52.5957 311.275 52.0488 310.975 51.3379C310.683 50.627 310.537 49.7702 310.537 48.7676V48.7539C310.537 47.7604 310.683 46.9082 310.975 46.1973C311.266 45.4863 311.676 44.9395 312.205 44.5566C312.743 44.1647 313.367 43.9688 314.078 43.9688C314.98 43.9688 315.691 44.2194 316.211 44.7207C316.74 45.2129 317.072 45.8099 317.209 46.5117L317.236 46.6211H320.436V46.5254C320.363 45.5592 320.062 44.6751 319.533 43.873C319.005 43.071 318.275 42.4284 317.346 41.9453C316.416 41.4531 315.313 41.207 314.037 41.207C312.633 41.207 311.408 41.5124 310.359 42.123C309.32 42.7337 308.514 43.6042 307.939 44.7344C307.365 45.8555 307.078 47.1862 307.078 48.7266V48.7402C307.078 50.2897 307.361 51.6296 307.926 52.7598C308.5 53.89 309.311 54.7604 310.359 55.3711C311.408 55.9818 312.647 56.2871 314.078 56.2871ZM328.912 56.2871C330.334 56.2871 331.569 55.9863 332.617 55.3848C333.665 54.7832 334.477 53.9219 335.051 52.8008C335.634 51.6706 335.926 50.3216 335.926 48.7539V48.7266C335.926 47.168 335.634 45.8281 335.051 44.707C334.467 43.5859 333.647 42.7246 332.59 42.123C331.542 41.5124 330.311 41.207 328.898 41.207C327.495 41.207 326.269 41.5124 325.221 42.123C324.173 42.7246 323.357 43.5905 322.773 44.7207C322.19 45.8418 321.898 47.1771 321.898 48.7266V48.7539C321.898 50.3125 322.186 51.6569 322.76 52.7871C323.343 53.9082 324.159 54.7741 325.207 55.3848C326.255 55.9863 327.49 56.2871 328.912 56.2871ZM328.926 53.5391C328.206 53.5391 327.577 53.3522 327.039 52.9785C326.51 52.6048 326.096 52.0625 325.795 51.3516C325.503 50.6315 325.357 49.7656 325.357 48.7539V48.7266C325.357 47.724 325.503 46.8672 325.795 46.1562C326.096 45.4453 326.51 44.903 327.039 44.5293C327.577 44.1556 328.197 43.9688 328.898 43.9688C329.618 43.9688 330.243 44.1556 330.771 44.5293C331.309 44.903 331.724 45.4453 332.016 46.1562C332.307 46.8672 332.453 47.724 332.453 48.7266V48.7539C332.453 49.7656 332.307 50.6315 332.016 51.3516C331.733 52.0625 331.327 52.6048 330.799 52.9785C330.27 53.3522 329.646 53.5391 328.926 53.5391ZM338.113 56H341.504V47.127C341.504 46.5345 341.622 46.0104 341.859 45.5547C342.105 45.099 342.438 44.7389 342.857 44.4746C343.277 44.2103 343.76 44.0781 344.307 44.0781C345.1 44.0781 345.724 44.3151 346.18 44.7891C346.645 45.2539 346.877 45.8965 346.877 46.7168V56H350.186V47.0449C350.186 46.4616 350.299 45.9466 350.527 45.5C350.764 45.0534 351.088 44.707 351.498 44.4609C351.917 44.2057 352.4 44.0781 352.947 44.0781C353.786 44.0781 354.428 44.3242 354.875 44.8164C355.322 45.3086 355.545 46.0013 355.545 46.8945V56H358.949V46.0605C358.949 45.0853 358.749 44.2376 358.348 43.5176C357.956 42.7884 357.404 42.2233 356.693 41.8223C355.992 41.4121 355.162 41.207 354.205 41.207C353.512 41.207 352.865 41.3301 352.264 41.5762C351.671 41.8132 351.152 42.1504 350.705 42.5879C350.268 43.0163 349.93 43.5312 349.693 44.1328H349.625C349.452 43.513 349.174 42.9889 348.791 42.5605C348.417 42.123 347.962 41.7904 347.424 41.5625C346.886 41.3255 346.28 41.207 345.605 41.207C344.648 41.207 343.814 41.4486 343.104 41.9316C342.393 42.4056 341.887 43.0391 341.586 43.832H341.504V41.5078H338.113V56ZM361.684 56H365.074V47.127C365.074 46.5345 365.193 46.0104 365.43 45.5547C365.676 45.099 366.008 44.7389 366.428 44.4746C366.847 44.2103 367.33 44.0781 367.877 44.0781C368.67 44.0781 369.294 44.3151 369.75 44.7891C370.215 45.2539 370.447 45.8965 370.447 46.7168V56H373.756V47.0449C373.756 46.4616 373.87 45.9466 374.098 45.5C374.335 45.0534 374.658 44.707 375.068 44.4609C375.488 44.2057 375.971 44.0781 376.518 44.0781C377.356 44.0781 377.999 44.3242 378.445 44.8164C378.892 45.3086 379.115 46.0013 379.115 46.8945V56H382.52V46.0605C382.52 45.0853 382.319 44.2376 381.918 43.5176C381.526 42.7884 380.975 42.2233 380.264 41.8223C379.562 41.4121 378.732 41.207 377.775 41.207C377.083 41.207 376.436 41.3301 375.834 41.5762C375.242 41.8132 374.722 42.1504 374.275 42.5879C373.838 43.0163 373.501 43.5312 373.264 44.1328H373.195C373.022 43.513 372.744 42.9889 372.361 42.5605C371.988 42.123 371.532 41.7904 370.994 41.5625C370.456 41.3255 369.85 41.207 369.176 41.207C368.219 41.207 367.385 41.4486 366.674 41.9316C365.963 42.4056 365.457 43.0391 365.156 43.832H365.074V41.5078H361.684V56ZM391.625 56.2871C392.564 56.2871 393.402 56.1641 394.141 55.918C394.879 55.6628 395.517 55.321 396.055 54.8926C396.592 54.4642 397.021 53.9857 397.34 53.457C397.659 52.9193 397.878 52.3724 397.996 51.8164L398.023 51.666H394.852L394.824 51.7617C394.715 52.0898 394.519 52.3952 394.236 52.6777C393.963 52.9603 393.612 53.1927 393.184 53.375C392.755 53.5482 392.258 53.6348 391.693 53.6348C390.937 53.6348 390.285 53.4707 389.738 53.1426C389.191 52.8053 388.768 52.3268 388.467 51.707C388.175 51.0781 388.029 50.3216 388.029 49.4375V48.125C388.029 47.2135 388.175 46.4388 388.467 45.8008C388.768 45.1628 389.178 44.6842 389.697 44.3652C390.226 44.0371 390.827 43.873 391.502 43.873C392.167 43.873 392.755 44.0326 393.266 44.3516C393.776 44.6615 394.177 45.1309 394.469 45.7598C394.76 46.3887 394.906 47.1771 394.906 48.125V49.4375L396.547 47.3184H386.334V49.5879H398.174V48.4941C398.174 47.0358 397.9 45.7598 397.354 44.666C396.816 43.5723 396.041 42.7246 395.029 42.123C394.027 41.5124 392.837 41.207 391.461 41.207C390.076 41.207 388.872 41.5215 387.852 42.1504C386.84 42.7793 386.051 43.6634 385.486 44.8027C384.93 45.9329 384.652 47.2591 384.652 48.7812V48.7949C384.652 50.3262 384.93 51.6523 385.486 52.7734C386.042 53.8945 386.84 54.7604 387.879 55.3711C388.927 55.9818 390.176 56.2871 391.625 56.2871ZM400.348 56H403.738V47.5918C403.738 46.89 403.87 46.2793 404.135 45.7598C404.399 45.2311 404.773 44.821 405.256 44.5293C405.739 44.2285 406.304 44.0781 406.951 44.0781C407.917 44.0781 408.642 44.3607 409.125 44.9258C409.608 45.4818 409.85 46.2747 409.85 47.3047V56H413.254V46.6211C413.254 44.944 412.816 43.6224 411.941 42.6562C411.076 41.6901 409.845 41.207 408.25 41.207C407.156 41.207 406.236 41.4395 405.488 41.9043C404.75 42.3691 404.194 42.9935 403.82 43.7773H403.738V41.5078H400.348V56ZM421.361 56.2871C421.717 56.2871 422.036 56.2734 422.318 56.2461C422.61 56.2188 422.856 56.1914 423.057 56.1641V53.6074C422.938 53.6165 422.811 53.6302 422.674 53.6484C422.546 53.6576 422.396 53.6621 422.223 53.6621C421.612 53.6621 421.147 53.5299 420.828 53.2656C420.518 52.9922 420.363 52.5046 420.363 51.8027V44.1328H423.057V41.5078H420.363V37.8301H416.904V41.5078H414.854V44.1328H416.904V52.0762C416.904 53.571 417.269 54.6465 417.998 55.3027C418.736 55.959 419.857 56.2871 421.361 56.2871ZM436.688 56.2871C437.872 56.2871 438.921 56.1003 439.832 55.7266C440.753 55.3438 441.473 54.8105 441.992 54.127C442.512 53.4342 442.771 52.6322 442.771 51.7207V51.707C442.771 50.6589 442.452 49.8249 441.814 49.2051C441.176 48.5762 440.105 48.0931 438.602 47.7559L436.195 47.2227C435.448 47.0495 434.915 46.8216 434.596 46.5391C434.286 46.2565 434.131 45.9102 434.131 45.5V45.4863C434.131 45.1309 434.227 44.821 434.418 44.5566C434.618 44.2923 434.901 44.0872 435.266 43.9414C435.639 43.7956 436.077 43.7227 436.578 43.7227C437.371 43.7227 437.995 43.9141 438.451 44.2969C438.907 44.6706 439.171 45.1491 439.244 45.7324L439.258 45.8418H442.43L442.416 45.6914C442.38 44.8529 442.124 44.0964 441.65 43.4219C441.186 42.7474 440.525 42.2096 439.668 41.8086C438.811 41.4076 437.781 41.207 436.578 41.207C435.421 41.207 434.404 41.3939 433.529 41.7676C432.654 42.1413 431.975 42.6608 431.492 43.3262C431.009 43.9915 430.768 44.7663 430.768 45.6504V45.6641C430.768 46.7396 431.114 47.6191 431.807 48.3027C432.508 48.9863 433.552 49.4785 434.938 49.7793L437.344 50.3125C438.1 50.4857 438.624 50.709 438.916 50.9824C439.208 51.2467 439.354 51.5931 439.354 52.0215V52.0352C439.354 52.3906 439.244 52.7005 439.025 52.9648C438.816 53.2292 438.515 53.4297 438.123 53.5664C437.731 53.7031 437.257 53.7715 436.701 53.7715C435.835 53.7715 435.161 53.5983 434.678 53.252C434.204 52.9056 433.903 52.418 433.775 51.7891L433.748 51.666H430.398L430.412 51.7891C430.521 52.6823 430.827 53.4707 431.328 54.1543C431.839 54.8288 432.54 55.3529 433.434 55.7266C434.336 56.1003 435.421 56.2871 436.688 56.2871ZM451.316 56.2871C452.255 56.2871 453.094 56.1641 453.832 55.918C454.57 55.6628 455.208 55.321 455.746 54.8926C456.284 54.4642 456.712 53.9857 457.031 53.457C457.35 52.9193 457.569 52.3724 457.688 51.8164L457.715 51.666H454.543L454.516 51.7617C454.406 52.0898 454.21 52.3952 453.928 52.6777C453.654 52.9603 453.303 53.1927 452.875 53.375C452.447 53.5482 451.95 53.6348 451.385 53.6348C450.628 53.6348 449.977 53.4707 449.43 53.1426C448.883 52.8053 448.459 52.3268 448.158 51.707C447.867 51.0781 447.721 50.3216 447.721 49.4375V48.125C447.721 47.2135 447.867 46.4388 448.158 45.8008C448.459 45.1628 448.869 44.6842 449.389 44.3652C449.917 44.0371 450.519 43.873 451.193 43.873C451.859 43.873 452.447 44.0326 452.957 44.3516C453.467 44.6615 453.868 45.1309 454.16 45.7598C454.452 46.3887 454.598 47.1771 454.598 48.125V49.4375L456.238 47.3184H446.025V49.5879H457.865V48.4941C457.865 47.0358 457.592 45.7598 457.045 44.666C456.507 43.5723 455.732 42.7246 454.721 42.123C453.718 41.5124 452.529 41.207 451.152 41.207C449.767 41.207 448.564 41.5215 447.543 42.1504C446.531 42.7793 445.743 43.6634 445.178 44.8027C444.622 45.9329 444.344 47.2591 444.344 48.7812V48.7949C444.344 50.3262 444.622 51.6523 445.178 52.7734C445.734 53.8945 446.531 54.7604 447.57 55.3711C448.618 55.9818 449.867 56.2871 451.316 56.2871ZM466.438 56.2871C467.659 56.2871 468.73 56.0547 469.65 55.5898C470.571 55.1159 471.305 54.4779 471.852 53.6758C472.398 52.8737 472.717 51.9714 472.809 50.9688L472.822 50.873H469.609L469.582 50.9961C469.427 51.7526 469.081 52.3678 468.543 52.8418C468.014 53.3066 467.317 53.5391 466.451 53.5391C465.74 53.5391 465.116 53.3522 464.578 52.9785C464.049 52.5957 463.635 52.0488 463.334 51.3379C463.042 50.627 462.896 49.7702 462.896 48.7676V48.7539C462.896 47.7604 463.042 46.9082 463.334 46.1973C463.626 45.4863 464.036 44.9395 464.564 44.5566C465.102 44.1647 465.727 43.9688 466.438 43.9688C467.34 43.9688 468.051 44.2194 468.57 44.7207C469.099 45.2129 469.432 45.8099 469.568 46.5117L469.596 46.6211H472.795V46.5254C472.722 45.5592 472.421 44.6751 471.893 43.873C471.364 43.071 470.635 42.4284 469.705 41.9453C468.775 41.4531 467.673 41.207 466.396 41.207C464.993 41.207 463.767 41.5124 462.719 42.123C461.68 42.7337 460.873 43.6042 460.299 44.7344C459.725 45.8555 459.438 47.1862 459.438 48.7266V48.7402C459.438 50.2897 459.72 51.6296 460.285 52.7598C460.859 53.89 461.671 54.7604 462.719 55.3711C463.767 55.9818 465.007 56.2871 466.438 56.2871ZM480.232 56.2871C480.588 56.2871 480.907 56.2734 481.189 56.2461C481.481 56.2188 481.727 56.1914 481.928 56.1641V53.6074C481.809 53.6165 481.682 53.6302 481.545 53.6484C481.417 53.6576 481.267 53.6621 481.094 53.6621C480.483 53.6621 480.018 53.5299 479.699 53.2656C479.389 52.9922 479.234 52.5046 479.234 51.8027V44.1328H481.928V41.5078H479.234V37.8301H475.775V41.5078H473.725V44.1328H475.775V52.0762C475.775 53.571 476.14 54.6465 476.869 55.3027C477.607 55.959 478.729 56.2871 480.232 56.2871ZM484.361 56H487.766V41.5078H484.361V56ZM486.057 39.4297C486.594 39.4297 487.046 39.2474 487.41 38.8828C487.775 38.5182 487.957 38.0807 487.957 37.5703C487.957 37.0508 487.775 36.6133 487.41 36.2578C487.046 35.8932 486.594 35.7109 486.057 35.7109C485.528 35.7109 485.081 35.8932 484.717 36.2578C484.352 36.6133 484.17 37.0508 484.17 37.5703C484.17 38.0807 484.352 38.5182 484.717 38.8828C485.081 39.2474 485.528 39.4297 486.057 39.4297ZM497.076 56.2871C498.498 56.2871 499.733 55.9863 500.781 55.3848C501.829 54.7832 502.641 53.9219 503.215 52.8008C503.798 51.6706 504.09 50.3216 504.09 48.7539V48.7266C504.09 47.168 503.798 45.8281 503.215 44.707C502.632 43.5859 501.811 42.7246 500.754 42.123C499.706 41.5124 498.475 41.207 497.062 41.207C495.659 41.207 494.433 41.5124 493.385 42.123C492.337 42.7246 491.521 43.5905 490.938 44.7207C490.354 45.8418 490.062 47.1771 490.062 48.7266V48.7539C490.062 50.3125 490.35 51.6569 490.924 52.7871C491.507 53.9082 492.323 54.7741 493.371 55.3848C494.419 55.9863 495.654 56.2871 497.076 56.2871ZM497.09 53.5391C496.37 53.5391 495.741 53.3522 495.203 52.9785C494.674 52.6048 494.26 52.0625 493.959 51.3516C493.667 50.6315 493.521 49.7656 493.521 48.7539V48.7266C493.521 47.724 493.667 46.8672 493.959 46.1562C494.26 45.4453 494.674 44.903 495.203 44.5293C495.741 44.1556 496.361 43.9688 497.062 43.9688C497.783 43.9688 498.407 44.1556 498.936 44.5293C499.473 44.903 499.888 45.4453 500.18 46.1562C500.471 46.8672 500.617 47.724 500.617 48.7266V48.7539C500.617 49.7656 500.471 50.6315 500.18 51.3516C499.897 52.0625 499.492 52.6048 498.963 52.9785C498.434 53.3522 497.81 53.5391 497.09 53.5391ZM506.277 56H509.668V47.5918C509.668 46.89 509.8 46.2793 510.064 45.7598C510.329 45.2311 510.702 44.821 511.186 44.5293C511.669 44.2285 512.234 44.0781 512.881 44.0781C513.847 44.0781 514.572 44.3607 515.055 44.9258C515.538 45.4818 515.779 46.2747 515.779 47.3047V56H519.184V46.6211C519.184 44.944 518.746 43.6224 517.871 42.6562C517.005 41.6901 515.775 41.207 514.18 41.207C513.086 41.207 512.165 41.4395 511.418 41.9043C510.68 42.3691 510.124 42.9935 509.75 43.7773H509.668V41.5078H506.277V56ZM527.646 56H531.051V41.5078H527.646V56ZM529.342 39.4297C529.88 39.4297 530.331 39.2474 530.695 38.8828C531.06 38.5182 531.242 38.0807 531.242 37.5703C531.242 37.0508 531.06 36.6133 530.695 36.2578C530.331 35.8932 529.88 35.7109 529.342 35.7109C528.813 35.7109 528.367 35.8932 528.002 36.2578C527.637 36.6133 527.455 37.0508 527.455 37.5703C527.455 38.0807 527.637 38.5182 528.002 38.8828C528.367 39.2474 528.813 39.4297 529.342 39.4297ZM539.609 56.2871C540.794 56.2871 541.842 56.1003 542.754 55.7266C543.674 55.3438 544.395 54.8105 544.914 54.127C545.434 53.4342 545.693 52.6322 545.693 51.7207V51.707C545.693 50.6589 545.374 49.8249 544.736 49.2051C544.098 48.5762 543.027 48.0931 541.523 47.7559L539.117 47.2227C538.37 47.0495 537.837 46.8216 537.518 46.5391C537.208 46.2565 537.053 45.9102 537.053 45.5V45.4863C537.053 45.1309 537.148 44.821 537.34 44.5566C537.54 44.2923 537.823 44.0872 538.188 43.9414C538.561 43.7956 538.999 43.7227 539.5 43.7227C540.293 43.7227 540.917 43.9141 541.373 44.2969C541.829 44.6706 542.093 45.1491 542.166 45.7324L542.18 45.8418H545.352L545.338 45.6914C545.301 44.8529 545.046 44.0964 544.572 43.4219C544.107 42.7474 543.447 42.2096 542.59 41.8086C541.733 41.4076 540.703 41.207 539.5 41.207C538.342 41.207 537.326 41.3939 536.451 41.7676C535.576 42.1413 534.897 42.6608 534.414 43.3262C533.931 43.9915 533.689 44.7663 533.689 45.6504V45.6641C533.689 46.7396 534.036 47.6191 534.729 48.3027C535.43 48.9863 536.474 49.4785 537.859 49.7793L540.266 50.3125C541.022 50.4857 541.546 50.709 541.838 50.9824C542.13 51.2467 542.275 51.5931 542.275 52.0215V52.0352C542.275 52.3906 542.166 52.7005 541.947 52.9648C541.738 53.2292 541.437 53.4297 541.045 53.5664C540.653 53.7031 540.179 53.7715 539.623 53.7715C538.757 53.7715 538.083 53.5983 537.6 53.252C537.126 52.9056 536.825 52.418 536.697 51.7891L536.67 51.666H533.32L533.334 51.7891C533.443 52.6823 533.749 53.4707 534.25 54.1543C534.76 54.8288 535.462 55.3529 536.355 55.7266C537.258 56.1003 538.342 56.2871 539.609 56.2871ZM553.596 56H557V36.2715H553.596V56ZM559.994 56H563.398V41.5078H559.994V56ZM561.689 39.4297C562.227 39.4297 562.678 39.2474 563.043 38.8828C563.408 38.5182 563.59 38.0807 563.59 37.5703C563.59 37.0508 563.408 36.6133 563.043 36.2578C562.678 35.8932 562.227 35.7109 561.689 35.7109C561.161 35.7109 560.714 35.8932 560.35 36.2578C559.985 36.6133 559.803 37.0508 559.803 37.5703C559.803 38.0807 559.985 38.5182 560.35 38.8828C560.714 39.2474 561.161 39.4297 561.689 39.4297ZM570.207 56H573.953L579.053 41.5078H575.512L572.148 52.8418H572.066L568.703 41.5078H565.08L570.207 56ZM586.477 56.2871C587.415 56.2871 588.254 56.1641 588.992 55.918C589.73 55.6628 590.368 55.321 590.906 54.8926C591.444 54.4642 591.872 53.9857 592.191 53.457C592.51 52.9193 592.729 52.3724 592.848 51.8164L592.875 51.666H589.703L589.676 51.7617C589.566 52.0898 589.37 52.3952 589.088 52.6777C588.814 52.9603 588.464 53.1927 588.035 53.375C587.607 53.5482 587.11 53.6348 586.545 53.6348C585.788 53.6348 585.137 53.4707 584.59 53.1426C584.043 52.8053 583.619 52.3268 583.318 51.707C583.027 51.0781 582.881 50.3216 582.881 49.4375V48.125C582.881 47.2135 583.027 46.4388 583.318 45.8008C583.619 45.1628 584.029 44.6842 584.549 44.3652C585.077 44.0371 585.679 43.873 586.354 43.873C587.019 43.873 587.607 44.0326 588.117 44.3516C588.628 44.6615 589.029 45.1309 589.32 45.7598C589.612 46.3887 589.758 47.1771 589.758 48.125V49.4375L591.398 47.3184H581.186V49.5879H593.025V48.4941C593.025 47.0358 592.752 45.7598 592.205 44.666C591.667 43.5723 590.893 42.7246 589.881 42.123C588.878 41.5124 587.689 41.207 586.312 41.207C584.927 41.207 583.724 41.5215 582.703 42.1504C581.691 42.7793 580.903 43.6634 580.338 44.8027C579.782 45.9329 579.504 47.2591 579.504 48.7812V48.7949C579.504 50.3262 579.782 51.6523 580.338 52.7734C580.894 53.8945 581.691 54.7604 582.73 55.3711C583.779 55.9818 585.027 56.2871 586.477 56.2871ZM597.045 56.2188C597.592 56.2188 598.057 56.0273 598.439 55.6445C598.822 55.2617 599.014 54.7969 599.014 54.25C599.014 53.694 598.822 53.2246 598.439 52.8418C598.057 52.459 597.592 52.2676 597.045 52.2676C596.489 52.2676 596.02 52.459 595.637 52.8418C595.254 53.2246 595.062 53.694 595.062 54.25C595.062 54.7969 595.254 55.2617 595.637 55.6445C596.02 56.0273 596.489 56.2188 597.045 56.2188Z" fill="white"/>
<path d="M38.7148 104.299C39.6172 104.299 40.4258 104.141 41.1406 103.824C41.8613 103.502 42.4561 103.057 42.9248 102.488C43.3936 101.914 43.6982 101.24 43.8389 100.467V100.44H42.2393L42.2217 100.467C42.0928 100.953 41.8643 101.375 41.5361 101.732C41.208 102.09 40.8037 102.365 40.3232 102.559C39.8428 102.746 39.3066 102.84 38.7148 102.84C37.9004 102.84 37.1943 102.629 36.5967 102.207C35.999 101.785 35.5391 101.188 35.2168 100.414C34.8945 99.6406 34.7334 98.7266 34.7334 97.6719V97.6543C34.7334 96.5938 34.8945 95.6768 35.2168 94.9033C35.5391 94.1299 35.999 93.5322 36.5967 93.1104C37.1943 92.6885 37.8975 92.4775 38.7061 92.4775C39.292 92.4775 39.8223 92.5859 40.2969 92.8027C40.7773 93.0195 41.1846 93.3271 41.5186 93.7256C41.8525 94.1182 42.0898 94.584 42.2305 95.123L42.2393 95.1494H43.8301L43.8389 95.1318C43.7158 94.3232 43.417 93.6113 42.9424 92.9961C42.4678 92.375 41.8643 91.8916 41.1318 91.5459C40.4053 91.1943 39.5967 91.0186 38.7061 91.0186C37.5576 91.0186 36.5645 91.2881 35.7266 91.8271C34.8887 92.3662 34.2412 93.1309 33.7842 94.1211C33.333 95.1113 33.1074 96.2891 33.1074 97.6543V97.6719C33.1074 99.0312 33.333 100.206 33.7842 101.196C34.2412 102.187 34.8887 102.951 35.7266 103.49C36.5703 104.029 37.5664 104.299 38.7148 104.299ZM50.1582 104.167C51.0605 104.167 51.8369 103.971 52.4873 103.578C53.1377 103.18 53.6387 102.617 53.9902 101.891C54.3477 101.158 54.5264 100.288 54.5264 99.2803V99.2627C54.5264 98.249 54.3477 97.3789 53.9902 96.6523C53.6387 95.9199 53.1377 95.3574 52.4873 94.9648C51.8369 94.5723 51.0605 94.376 50.1582 94.376C49.2676 94.376 48.4941 94.5723 47.8379 94.9648C47.1875 95.3574 46.6836 95.9199 46.3262 96.6523C45.9746 97.3789 45.7988 98.249 45.7988 99.2627V99.2803C45.7988 100.282 45.9746 101.149 46.3262 101.882C46.6836 102.614 47.1875 103.18 47.8379 103.578C48.4941 103.971 49.2676 104.167 50.1582 104.167ZM50.1582 102.813C49.5664 102.813 49.0625 102.673 48.6465 102.392C48.2305 102.11 47.9111 101.709 47.6885 101.188C47.4717 100.66 47.3633 100.024 47.3633 99.2803V99.2627C47.3633 98.5127 47.4717 97.874 47.6885 97.3467C47.9111 96.8193 48.2305 96.418 48.6465 96.1426C49.0625 95.8672 49.5664 95.7295 50.1582 95.7295C50.7559 95.7295 51.2627 95.8672 51.6787 96.1426C52.0947 96.418 52.4111 96.8193 52.6279 97.3467C52.8506 97.874 52.9619 98.5127 52.9619 99.2627V99.2803C52.9619 100.024 52.8506 100.66 52.6279 101.188C52.4111 101.709 52.0947 102.11 51.6787 102.392C51.2627 102.673 50.7559 102.813 50.1582 102.813ZM56.8555 107.164H58.3848V102.506H58.5166C58.6924 102.846 58.9268 103.139 59.2197 103.385C59.5186 103.631 59.8584 103.824 60.2393 103.965C60.626 104.1 61.0361 104.167 61.4697 104.167C62.2725 104.167 62.9697 103.965 63.5615 103.561C64.1592 103.156 64.6221 102.591 64.9502 101.864C65.2783 101.132 65.4424 100.271 65.4424 99.2803V99.2627C65.4424 98.2783 65.2783 97.4199 64.9502 96.6875C64.6221 95.9551 64.1592 95.3867 63.5615 94.9824C62.9697 94.5781 62.2725 94.376 61.4697 94.376C61.0303 94.376 60.623 94.4434 60.248 94.5781C59.873 94.7129 59.5391 94.9062 59.2461 95.1582C58.9531 95.4043 58.71 95.7031 58.5166 96.0547H58.3848V94.543H56.8555V107.164ZM61.1182 102.813C60.5498 102.813 60.0576 102.67 59.6416 102.383C59.2256 102.096 58.9062 101.688 58.6836 101.161C58.4609 100.628 58.3496 100.001 58.3496 99.2803V99.2627C58.3496 98.5303 58.4609 97.9033 58.6836 97.3818C58.9062 96.8545 59.2256 96.4473 59.6416 96.1602C60.0576 95.873 60.5498 95.7295 61.1182 95.7295C61.6982 95.7295 62.1934 95.8701 62.6035 96.1514C63.0137 96.4326 63.3271 96.8369 63.5439 97.3643C63.7666 97.8916 63.8779 98.5244 63.8779 99.2627V99.2803C63.8779 100.013 63.7666 100.643 63.5439 101.17C63.3271 101.697 63.0137 102.104 62.6035 102.392C62.1934 102.673 61.6982 102.813 61.1182 102.813ZM68.2461 107.313C68.8086 107.313 69.2803 107.231 69.6611 107.067C70.0479 106.909 70.3818 106.631 70.6631 106.232C70.9502 105.834 71.2227 105.283 71.4805 104.58L75.1807 94.543H73.5723L70.6719 103.262L71.2695 102.33H70.5576L71.1553 103.262L68.2461 94.543H66.6113L70.1094 104.009L69.9336 104.571C69.7637 105.116 69.5381 105.497 69.2568 105.714C68.9814 105.937 68.627 106.048 68.1934 106.048C68.0879 106.048 67.9795 106.045 67.8682 106.039C67.7568 106.033 67.6543 106.021 67.5605 106.004V107.261C67.666 107.278 67.7803 107.29 67.9033 107.296C68.0322 107.308 68.1465 107.313 68.2461 107.313ZM85.5342 104.079C85.6865 104.079 85.8359 104.07 85.9824 104.053C86.1289 104.035 86.2725 104.015 86.4131 103.991V102.69C86.2783 102.702 86.1611 102.711 86.0615 102.717C85.9678 102.723 85.8535 102.726 85.7188 102.726C85.2324 102.726 84.8838 102.605 84.6729 102.365C84.4619 102.125 84.3564 101.729 84.3564 101.179V95.8086H86.4131V94.543H84.3564V92.0908H82.7744V94.543H81.2891V95.8086H82.7744V101.548C82.7744 102.444 82.9912 103.092 83.4248 103.49C83.8643 103.883 84.5674 104.079 85.5342 104.079ZM88.7598 104H90.2891V98.4014C90.2891 97.8506 90.3887 97.376 90.5879 96.9775C90.793 96.5791 91.0771 96.2715 91.4404 96.0547C91.8096 95.8379 92.2461 95.7295 92.75 95.7295C93.5059 95.7295 94.0625 95.9375 94.4199 96.3535C94.7832 96.7637 94.9648 97.3965 94.9648 98.252V104H96.4941V97.8916C96.4941 97.1416 96.3652 96.5059 96.1074 95.9844C95.8496 95.457 95.4746 95.0586 94.9824 94.7891C94.4902 94.5137 93.8926 94.376 93.1895 94.376C92.4922 94.376 91.915 94.5166 91.458 94.7979C91.0068 95.0732 90.6611 95.4629 90.4209 95.9668H90.2891V90.79H88.7598V104ZM103.077 104.167C103.634 104.167 104.135 104.097 104.58 103.956C105.025 103.81 105.412 103.616 105.74 103.376C106.074 103.13 106.344 102.857 106.549 102.559C106.76 102.254 106.906 101.938 106.988 101.609L107.006 101.539H105.477L105.441 101.618C105.359 101.812 105.216 101.999 105.011 102.181C104.806 102.362 104.545 102.512 104.229 102.629C103.912 102.746 103.54 102.805 103.112 102.805C102.538 102.805 102.04 102.679 101.618 102.427C101.202 102.169 100.88 101.803 100.651 101.328C100.423 100.854 100.309 100.279 100.309 99.6055V98.999C100.309 98.29 100.426 97.6924 100.66 97.2061C100.895 96.7197 101.211 96.3535 101.609 96.1074C102.008 95.8613 102.462 95.7383 102.972 95.7383C103.481 95.7383 103.933 95.8555 104.325 96.0898C104.718 96.3242 105.025 96.6816 105.248 97.1621C105.471 97.6426 105.582 98.2549 105.582 98.999V99.6055L106.338 98.4893H99.5352V99.7109H107.12V99.1133C107.12 98.1699 106.953 97.3438 106.619 96.6348C106.291 95.9199 105.816 95.3662 105.195 94.9736C104.58 94.5752 103.842 94.376 102.98 94.376C102.125 94.376 101.378 94.584 100.739 95C100.106 95.4102 99.6143 95.9844 99.2627 96.7227C98.917 97.4609 98.7441 98.3193 98.7441 99.2979V99.3066C98.7441 100.297 98.917 101.155 99.2627 101.882C99.6143 102.608 100.112 103.171 100.757 103.569C101.401 103.968 102.175 104.167 103.077 104.167ZM115.101 104H116.63V95.8086H118.774V94.543H116.63V93.5234C116.63 93.0078 116.747 92.6182 116.981 92.3545C117.222 92.0908 117.611 91.959 118.15 91.959C118.279 91.959 118.405 91.9619 118.528 91.9678C118.651 91.9736 118.76 91.9854 118.854 92.0029V90.7812C118.701 90.752 118.54 90.7314 118.37 90.7197C118.206 90.7021 118.03 90.6934 117.843 90.6934C116.946 90.6934 116.264 90.9248 115.795 91.3877C115.332 91.8447 115.101 92.542 115.101 93.4795V94.543H113.545V95.8086H115.101V104ZM124.408 104.167C125.311 104.167 126.087 103.971 126.737 103.578C127.388 103.18 127.889 102.617 128.24 101.891C128.598 101.158 128.776 100.288 128.776 99.2803V99.2627C128.776 98.249 128.598 97.3789 128.24 96.6523C127.889 95.9199 127.388 95.3574 126.737 94.9648C126.087 94.5723 125.311 94.376 124.408 94.376C123.518 94.376 122.744 94.5723 122.088 94.9648C121.438 95.3574 120.934 95.9199 120.576 96.6523C120.225 97.3789 120.049 98.249 120.049 99.2627V99.2803C120.049 100.282 120.225 101.149 120.576 101.882C120.934 102.614 121.438 103.18 122.088 103.578C122.744 103.971 123.518 104.167 124.408 104.167ZM124.408 102.813C123.816 102.813 123.312 102.673 122.896 102.392C122.48 102.11 122.161 101.709 121.938 101.188C121.722 100.66 121.613 100.024 121.613 99.2803V99.2627C121.613 98.5127 121.722 97.874 121.938 97.3467C122.161 96.8193 122.48 96.418 122.896 96.1426C123.312 95.8672 123.816 95.7295 124.408 95.7295C125.006 95.7295 125.513 95.8672 125.929 96.1426C126.345 96.418 126.661 96.8193 126.878 97.3467C127.101 97.874 127.212 98.5127 127.212 99.2627V99.2803C127.212 100.024 127.101 100.66 126.878 101.188C126.661 101.709 126.345 102.11 125.929 102.392C125.513 102.673 125.006 102.813 124.408 102.813ZM131.193 104H132.723V90.79H131.193V104ZM135.711 104H137.24V90.79H135.711V104ZM144.025 104.167C144.928 104.167 145.704 103.971 146.354 103.578C147.005 103.18 147.506 102.617 147.857 101.891C148.215 101.158 148.394 100.288 148.394 99.2803V99.2627C148.394 98.249 148.215 97.3789 147.857 96.6523C147.506 95.9199 147.005 95.3574 146.354 94.9648C145.704 94.5723 144.928 94.376 144.025 94.376C143.135 94.376 142.361 94.5723 141.705 94.9648C141.055 95.3574 140.551 95.9199 140.193 96.6523C139.842 97.3789 139.666 98.249 139.666 99.2627V99.2803C139.666 100.282 139.842 101.149 140.193 101.882C140.551 102.614 141.055 103.18 141.705 103.578C142.361 103.971 143.135 104.167 144.025 104.167ZM144.025 102.813C143.434 102.813 142.93 102.673 142.514 102.392C142.098 102.11 141.778 101.709 141.556 101.188C141.339 100.66 141.23 100.024 141.23 99.2803V99.2627C141.23 98.5127 141.339 97.874 141.556 97.3467C141.778 96.8193 142.098 96.418 142.514 96.1426C142.93 95.8672 143.434 95.7295 144.025 95.7295C144.623 95.7295 145.13 95.8672 145.546 96.1426C145.962 96.418 146.278 96.8193 146.495 97.3467C146.718 97.874 146.829 98.5127 146.829 99.2627V99.2803C146.829 100.024 146.718 100.66 146.495 101.188C146.278 101.709 145.962 102.11 145.546 102.392C145.13 102.673 144.623 102.813 144.025 102.813ZM152.217 104H153.746L155.855 96.6787H155.987L158.105 104H159.644L162.289 94.543H160.769L158.914 102.11H158.773L156.655 94.543H155.205L153.087 102.11H152.955L151.092 94.543H149.562L152.217 104ZM164.328 104H165.857V94.543H164.328V104ZM165.102 92.7236C165.395 92.7236 165.644 92.6211 165.849 92.416C166.054 92.2051 166.156 91.959 166.156 91.6777C166.156 91.3848 166.054 91.1357 165.849 90.9307C165.644 90.7256 165.395 90.623 165.102 90.623C164.814 90.623 164.568 90.7256 164.363 90.9307C164.158 91.1357 164.056 91.3848 164.056 91.6777C164.056 91.959 164.158 92.2051 164.363 92.416C164.568 92.6211 164.814 92.7236 165.102 92.7236ZM168.705 104H170.234V98.4014C170.234 97.8447 170.334 97.3701 170.533 96.9775C170.738 96.5791 171.025 96.2715 171.395 96.0547C171.764 95.8379 172.197 95.7295 172.695 95.7295C173.451 95.7295 174.008 95.9346 174.365 96.3447C174.729 96.7549 174.91 97.3877 174.91 98.2432V104H176.439V97.874C176.439 96.7549 176.152 95.8936 175.578 95.29C175.01 94.6807 174.195 94.376 173.135 94.376C172.438 94.376 171.86 94.5166 171.403 94.7979C170.952 95.0732 170.606 95.46 170.366 95.958H170.234V94.543H168.705V104ZM183.066 107.34C183.922 107.34 184.666 107.196 185.299 106.909C185.932 106.622 186.418 106.218 186.758 105.696C187.104 105.175 187.276 104.562 187.276 103.859V94.543H185.747V96.1074H185.642C185.448 95.75 185.205 95.4424 184.912 95.1846C184.625 94.9268 184.294 94.7275 183.919 94.5869C183.544 94.4463 183.134 94.376 182.688 94.376C181.868 94.376 181.159 94.5752 180.562 94.9736C179.964 95.3662 179.501 95.9082 179.173 96.5996C178.851 97.2852 178.689 98.0703 178.689 98.9551V98.9727C178.689 99.8633 178.851 100.651 179.173 101.337C179.495 102.022 179.952 102.562 180.544 102.954C181.142 103.341 181.845 103.534 182.653 103.534C183.087 103.534 183.491 103.473 183.866 103.35C184.241 103.221 184.578 103.033 184.877 102.787C185.176 102.541 185.425 102.245 185.624 101.899H185.765V103.78C185.765 104.478 185.524 105.02 185.044 105.406C184.569 105.793 183.91 105.986 183.066 105.986C182.387 105.986 181.842 105.869 181.432 105.635C181.021 105.406 180.772 105.113 180.685 104.756L180.676 104.747H179.094L179.085 104.756C179.167 105.271 179.375 105.723 179.709 106.109C180.049 106.502 180.503 106.804 181.071 107.015C181.64 107.231 182.305 107.34 183.066 107.34ZM182.987 102.181C182.407 102.181 181.912 102.046 181.502 101.776C181.098 101.501 180.787 101.123 180.57 100.643C180.359 100.162 180.254 99.6055 180.254 98.9727V98.9551C180.254 98.3281 180.359 97.7715 180.57 97.2852C180.787 96.7988 181.098 96.418 181.502 96.1426C181.912 95.8672 182.407 95.7295 182.987 95.7295C183.573 95.7295 184.074 95.8672 184.49 96.1426C184.906 96.418 185.226 96.7988 185.448 97.2852C185.677 97.7715 185.791 98.3281 185.791 98.9551V98.9727C185.791 99.6055 185.677 100.162 185.448 100.643C185.226 101.123 184.906 101.501 184.49 101.776C184.074 102.046 183.573 102.181 182.987 102.181ZM195.125 104H196.654V94.543H195.125V104ZM195.898 92.7236C196.191 92.7236 196.44 92.6211 196.646 92.416C196.851 92.2051 196.953 91.959 196.953 91.6777C196.953 91.3848 196.851 91.1357 196.646 90.9307C196.44 90.7256 196.191 90.623 195.898 90.623C195.611 90.623 195.365 90.7256 195.16 90.9307C194.955 91.1357 194.853 91.3848 194.853 91.6777C194.853 91.959 194.955 92.2051 195.16 92.416C195.365 92.6211 195.611 92.7236 195.898 92.7236ZM200.126 104H201.655V95.8086H203.8V94.543H201.655V93.5234C201.655 93.0078 201.772 92.6182 202.007 92.3545C202.247 92.0908 202.637 91.959 203.176 91.959C203.305 91.959 203.431 91.9619 203.554 91.9678C203.677 91.9736 203.785 91.9854 203.879 92.0029V90.7812C203.727 90.752 203.565 90.7314 203.396 90.7197C203.231 90.7021 203.056 90.6934 202.868 90.6934C201.972 90.6934 201.289 90.9248 200.82 91.3877C200.357 91.8447 200.126 92.542 200.126 93.4795V94.543H198.57V95.8086H200.126V104ZM205.971 104H207.5V98.1377C207.5 97.6748 207.605 97.2705 207.816 96.9248C208.027 96.5791 208.317 96.3125 208.687 96.125C209.062 95.9316 209.489 95.835 209.97 95.835C210.14 95.835 210.298 95.8438 210.444 95.8613C210.597 95.873 210.749 95.8936 210.901 95.9229V94.4375C210.831 94.4258 210.723 94.4141 210.576 94.4023C210.436 94.3848 210.292 94.376 210.146 94.376C209.513 94.376 208.979 94.5137 208.546 94.7891C208.118 95.0645 207.813 95.4512 207.632 95.9492H207.5V94.543H205.971V104ZM215.375 104.167C215.803 104.167 216.195 104.108 216.553 103.991C216.91 103.868 217.229 103.689 217.511 103.455C217.798 103.221 218.041 102.937 218.24 102.603H218.381V104H219.91V97.5225C219.91 96.8662 219.77 96.3037 219.488 95.835C219.207 95.3662 218.8 95.0059 218.267 94.7539C217.733 94.502 217.08 94.376 216.307 94.376C215.633 94.376 215.032 94.4814 214.505 94.6924C213.978 94.8975 213.547 95.1875 213.213 95.5625C212.885 95.9375 212.683 96.374 212.606 96.8721L212.598 96.9248H214.118L214.127 96.8984C214.25 96.5234 214.493 96.2363 214.856 96.0371C215.22 95.832 215.686 95.7295 216.254 95.7295C216.963 95.7295 217.493 95.8848 217.845 96.1953C218.202 96.5 218.381 96.9453 218.381 97.5312V100.467C218.381 100.918 218.264 101.322 218.029 101.68C217.801 102.037 217.484 102.321 217.08 102.532C216.676 102.737 216.213 102.84 215.691 102.84C215.141 102.84 214.684 102.708 214.32 102.444C213.963 102.175 213.784 101.8 213.784 101.319V101.302C213.784 100.839 213.948 100.479 214.276 100.221C214.61 99.9629 215.135 99.8135 215.85 99.7725L219.146 99.5615V98.3398L215.665 98.5508C214.563 98.6152 213.714 98.8877 213.116 99.3682C212.519 99.8428 212.22 100.499 212.22 101.337V101.354C212.22 101.929 212.357 102.427 212.633 102.849C212.908 103.271 213.283 103.596 213.758 103.824C214.238 104.053 214.777 104.167 215.375 104.167ZM222.67 104H224.199V98.1377C224.199 97.6924 224.293 97.2881 224.48 96.9248C224.674 96.5557 224.935 96.2656 225.263 96.0547C225.591 95.8379 225.96 95.7295 226.37 95.7295C226.968 95.7295 227.445 95.8994 227.803 96.2393C228.16 96.5732 228.339 97.0215 228.339 97.584V104H229.868V97.918C229.868 97.5137 229.959 97.1475 230.141 96.8193C230.322 96.4854 230.574 96.2217 230.896 96.0283C231.225 95.8291 231.608 95.7295 232.048 95.7295C232.716 95.7295 233.211 95.9053 233.533 96.2568C233.861 96.6025 234.025 97.1211 234.025 97.8125V104H235.555V97.4609C235.555 96.8047 235.438 96.248 235.203 95.791C234.969 95.3281 234.626 94.9766 234.175 94.7363C233.729 94.4961 233.185 94.376 232.54 94.376C232.106 94.376 231.699 94.4463 231.318 94.5869C230.943 94.7217 230.612 94.915 230.325 95.167C230.038 95.4131 229.81 95.7031 229.64 96.0371H229.508C229.361 95.709 229.165 95.4219 228.919 95.1758C228.673 94.9238 228.38 94.7275 228.04 94.5869C227.7 94.4463 227.316 94.376 226.889 94.376C226.268 94.376 225.737 94.5166 225.298 94.7979C224.864 95.0791 224.542 95.4717 224.331 95.9756H224.199V94.543H222.67V104ZM242.138 104.167C242.694 104.167 243.195 104.097 243.641 103.956C244.086 103.81 244.473 103.616 244.801 103.376C245.135 103.13 245.404 102.857 245.609 102.559C245.82 102.254 245.967 101.938 246.049 101.609L246.066 101.539H244.537L244.502 101.618C244.42 101.812 244.276 101.999 244.071 102.181C243.866 102.362 243.605 102.512 243.289 102.629C242.973 102.746 242.601 102.805 242.173 102.805C241.599 102.805 241.101 102.679 240.679 102.427C240.263 102.169 239.94 101.803 239.712 101.328C239.483 100.854 239.369 100.279 239.369 99.6055V98.999C239.369 98.29 239.486 97.6924 239.721 97.2061C239.955 96.7197 240.271 96.3535 240.67 96.1074C241.068 95.8613 241.522 95.7383 242.032 95.7383C242.542 95.7383 242.993 95.8555 243.386 96.0898C243.778 96.3242 244.086 96.6816 244.309 97.1621C244.531 97.6426 244.643 98.2549 244.643 98.999V99.6055L245.398 98.4893H238.596V99.7109H246.181V99.1133C246.181 98.1699 246.014 97.3438 245.68 96.6348C245.352 95.9199 244.877 95.3662 244.256 94.9736C243.641 94.5752 242.902 94.376 242.041 94.376C241.186 94.376 240.438 94.584 239.8 95C239.167 95.4102 238.675 95.9844 238.323 96.7227C237.978 97.4609 237.805 98.3193 237.805 99.2979V99.3066C237.805 100.297 237.978 101.155 238.323 101.882C238.675 102.608 239.173 103.171 239.817 103.569C240.462 103.968 241.235 104.167 242.138 104.167ZM256.886 104.079C257.038 104.079 257.188 104.07 257.334 104.053C257.48 104.035 257.624 104.015 257.765 103.991V102.69C257.63 102.702 257.513 102.711 257.413 102.717C257.319 102.723 257.205 102.726 257.07 102.726C256.584 102.726 256.235 102.605 256.024 102.365C255.813 102.125 255.708 101.729 255.708 101.179V95.8086H257.765V94.543H255.708V92.0908H254.126V94.543H252.641V95.8086H254.126V101.548C254.126 102.444 254.343 103.092 254.776 103.49C255.216 103.883 255.919 104.079 256.886 104.079ZM263.768 104.167C264.67 104.167 265.446 103.971 266.097 103.578C266.747 103.18 267.248 102.617 267.6 101.891C267.957 101.158 268.136 100.288 268.136 99.2803V99.2627C268.136 98.249 267.957 97.3789 267.6 96.6523C267.248 95.9199 266.747 95.3574 266.097 94.9648C265.446 94.5723 264.67 94.376 263.768 94.376C262.877 94.376 262.104 94.5723 261.447 94.9648C260.797 95.3574 260.293 95.9199 259.936 96.6523C259.584 97.3789 259.408 98.249 259.408 99.2627V99.2803C259.408 100.282 259.584 101.149 259.936 101.882C260.293 102.614 260.797 103.18 261.447 103.578C262.104 103.971 262.877 104.167 263.768 104.167ZM263.768 102.813C263.176 102.813 262.672 102.673 262.256 102.392C261.84 102.11 261.521 101.709 261.298 101.188C261.081 100.66 260.973 100.024 260.973 99.2803V99.2627C260.973 98.5127 261.081 97.874 261.298 97.3467C261.521 96.8193 261.84 96.418 262.256 96.1426C262.672 95.8672 263.176 95.7295 263.768 95.7295C264.365 95.7295 264.872 95.8672 265.288 96.1426C265.704 96.418 266.021 96.8193 266.237 97.3467C266.46 97.874 266.571 98.5127 266.571 99.2627V99.2803C266.571 100.024 266.46 100.66 266.237 101.188C266.021 101.709 265.704 102.11 265.288 102.392C264.872 102.673 264.365 102.813 263.768 102.813ZM278.076 104.167C278.504 104.167 278.896 104.108 279.254 103.991C279.611 103.868 279.931 103.689 280.212 103.455C280.499 103.221 280.742 102.937 280.941 102.603H281.082V104H282.611V97.5225C282.611 96.8662 282.471 96.3037 282.189 95.835C281.908 95.3662 281.501 95.0059 280.968 94.7539C280.435 94.502 279.781 94.376 279.008 94.376C278.334 94.376 277.733 94.4814 277.206 94.6924C276.679 94.8975 276.248 95.1875 275.914 95.5625C275.586 95.9375 275.384 96.374 275.308 96.8721L275.299 96.9248H276.819L276.828 96.8984C276.951 96.5234 277.194 96.2363 277.558 96.0371C277.921 95.832 278.387 95.7295 278.955 95.7295C279.664 95.7295 280.194 95.8848 280.546 96.1953C280.903 96.5 281.082 96.9453 281.082 97.5312V100.467C281.082 100.918 280.965 101.322 280.73 101.68C280.502 102.037 280.186 102.321 279.781 102.532C279.377 102.737 278.914 102.84 278.393 102.84C277.842 102.84 277.385 102.708 277.021 102.444C276.664 102.175 276.485 101.8 276.485 101.319V101.302C276.485 100.839 276.649 100.479 276.978 100.221C277.312 99.9629 277.836 99.8135 278.551 99.7725L281.847 99.5615V98.3398L278.366 98.5508C277.265 98.6152 276.415 98.8877 275.817 99.3682C275.22 99.8428 274.921 100.499 274.921 101.337V101.354C274.921 101.929 275.059 102.427 275.334 102.849C275.609 103.271 275.984 103.596 276.459 103.824C276.939 104.053 277.479 104.167 278.076 104.167ZM288.86 104.167C289.522 104.167 290.108 104.021 290.618 103.728C291.128 103.429 291.526 103.016 291.813 102.488H291.954V104H293.483V90.79H291.954V96.0371H291.813C291.556 95.5332 291.16 95.1318 290.627 94.833C290.1 94.5283 289.511 94.376 288.86 94.376C288.063 94.376 287.366 94.5781 286.769 94.9824C286.177 95.3809 285.717 95.9463 285.389 96.6787C285.061 97.4111 284.896 98.2725 284.896 99.2627V99.2803C284.896 100.265 285.061 101.123 285.389 101.855C285.717 102.588 286.18 103.156 286.777 103.561C287.375 103.965 288.069 104.167 288.86 104.167ZM289.212 102.813C288.638 102.813 288.146 102.673 287.735 102.392C287.325 102.104 287.009 101.697 286.786 101.17C286.569 100.643 286.461 100.013 286.461 99.2803V99.2627C286.461 98.5244 286.569 97.8945 286.786 97.373C287.009 96.8457 287.325 96.4414 287.735 96.1602C288.146 95.873 288.638 95.7295 289.212 95.7295C289.786 95.7295 290.278 95.873 290.688 96.1602C291.104 96.4473 291.424 96.8545 291.646 97.3818C291.875 97.9033 291.989 98.5303 291.989 99.2627V99.2803C291.989 100.001 291.875 100.628 291.646 101.161C291.424 101.688 291.104 102.096 290.688 102.383C290.278 102.67 289.786 102.813 289.212 102.813ZM299.864 104.167C300.526 104.167 301.112 104.021 301.622 103.728C302.132 103.429 302.53 103.016 302.817 102.488H302.958V104H304.487V90.79H302.958V96.0371H302.817C302.56 95.5332 302.164 95.1318 301.631 94.833C301.104 94.5283 300.515 94.376 299.864 94.376C299.067 94.376 298.37 94.5781 297.772 94.9824C297.181 95.3809 296.721 95.9463 296.393 96.6787C296.064 97.4111 295.9 98.2725 295.9 99.2627V99.2803C295.9 100.265 296.064 101.123 296.393 101.855C296.721 102.588 297.184 103.156 297.781 103.561C298.379 103.965 299.073 104.167 299.864 104.167ZM300.216 102.813C299.642 102.813 299.149 102.673 298.739 102.392C298.329 102.104 298.013 101.697 297.79 101.17C297.573 100.643 297.465 100.013 297.465 99.2803V99.2627C297.465 98.5244 297.573 97.8945 297.79 97.373C298.013 96.8457 298.329 96.4414 298.739 96.1602C299.149 95.873 299.642 95.7295 300.216 95.7295C300.79 95.7295 301.282 95.873 301.692 96.1602C302.108 96.4473 302.428 96.8545 302.65 97.3818C302.879 97.9033 302.993 98.5303 302.993 99.2627V99.2803C302.993 100.001 302.879 100.628 302.65 101.161C302.428 101.688 302.108 102.096 301.692 102.383C301.282 102.67 300.79 102.813 300.216 102.813ZM312.424 104H313.953V94.543H312.424V104ZM313.197 92.7236C313.49 92.7236 313.739 92.6211 313.944 92.416C314.149 92.2051 314.252 91.959 314.252 91.6777C314.252 91.3848 314.149 91.1357 313.944 90.9307C313.739 90.7256 313.49 90.623 313.197 90.623C312.91 90.623 312.664 90.7256 312.459 90.9307C312.254 91.1357 312.151 91.3848 312.151 91.6777C312.151 91.959 312.254 92.2051 312.459 92.416C312.664 92.6211 312.91 92.7236 313.197 92.7236ZM320.149 104.079C320.302 104.079 320.451 104.07 320.598 104.053C320.744 104.035 320.888 104.015 321.028 103.991V102.69C320.894 102.702 320.776 102.711 320.677 102.717C320.583 102.723 320.469 102.726 320.334 102.726C319.848 102.726 319.499 102.605 319.288 102.365C319.077 102.125 318.972 101.729 318.972 101.179V95.8086H321.028V94.543H318.972V92.0908H317.39V94.543H315.904V95.8086H317.39V101.548C317.39 102.444 317.606 103.092 318.04 103.49C318.479 103.883 319.183 104.079 320.149 104.079ZM331.646 104.079C331.798 104.079 331.947 104.07 332.094 104.053C332.24 104.035 332.384 104.015 332.524 103.991V102.69C332.39 102.702 332.272 102.711 332.173 102.717C332.079 102.723 331.965 102.726 331.83 102.726C331.344 102.726 330.995 102.605 330.784 102.365C330.573 102.125 330.468 101.729 330.468 101.179V95.8086H332.524V94.543H330.468V92.0908H328.886V94.543H327.4V95.8086H328.886V101.548C328.886 102.444 329.103 103.092 329.536 103.49C329.976 103.883 330.679 104.079 331.646 104.079ZM338.527 104.167C339.43 104.167 340.206 103.971 340.856 103.578C341.507 103.18 342.008 102.617 342.359 101.891C342.717 101.158 342.896 100.288 342.896 99.2803V99.2627C342.896 98.249 342.717 97.3789 342.359 96.6523C342.008 95.9199 341.507 95.3574 340.856 94.9648C340.206 94.5723 339.43 94.376 338.527 94.376C337.637 94.376 336.863 94.5723 336.207 94.9648C335.557 95.3574 335.053 95.9199 334.695 96.6523C334.344 97.3789 334.168 98.249 334.168 99.2627V99.2803C334.168 100.282 334.344 101.149 334.695 101.882C335.053 102.614 335.557 103.18 336.207 103.578C336.863 103.971 337.637 104.167 338.527 104.167ZM338.527 102.813C337.936 102.813 337.432 102.673 337.016 102.392C336.6 102.11 336.28 101.709 336.058 101.188C335.841 100.66 335.732 100.024 335.732 99.2803V99.2627C335.732 98.5127 335.841 97.874 336.058 97.3467C336.28 96.8193 336.6 96.418 337.016 96.1426C337.432 95.8672 337.936 95.7295 338.527 95.7295C339.125 95.7295 339.632 95.8672 340.048 96.1426C340.464 96.418 340.78 96.8193 340.997 97.3467C341.22 97.874 341.331 98.5127 341.331 99.2627V99.2803C341.331 100.024 341.22 100.66 340.997 101.188C340.78 101.709 340.464 102.11 340.048 102.392C339.632 102.673 339.125 102.813 338.527 102.813ZM351.043 107.313C351.605 107.313 352.077 107.231 352.458 107.067C352.845 106.909 353.179 106.631 353.46 106.232C353.747 105.834 354.02 105.283 354.277 104.58L357.978 94.543H356.369L353.469 103.262L354.066 102.33H353.354L353.952 103.262L351.043 94.543H349.408L352.906 104.009L352.73 104.571C352.561 105.116 352.335 105.497 352.054 105.714C351.778 105.937 351.424 106.048 350.99 106.048C350.885 106.048 350.776 106.045 350.665 106.039C350.554 106.033 350.451 106.021 350.357 106.004V107.261C350.463 107.278 350.577 107.29 350.7 107.296C350.829 107.308 350.943 107.313 351.043 107.313ZM363.506 104.167C364.408 104.167 365.185 103.971 365.835 103.578C366.485 103.18 366.986 102.617 367.338 101.891C367.695 101.158 367.874 100.288 367.874 99.2803V99.2627C367.874 98.249 367.695 97.3789 367.338 96.6523C366.986 95.9199 366.485 95.3574 365.835 94.9648C365.185 94.5723 364.408 94.376 363.506 94.376C362.615 94.376 361.842 94.5723 361.186 94.9648C360.535 95.3574 360.031 95.9199 359.674 96.6523C359.322 97.3789 359.146 98.249 359.146 99.2627V99.2803C359.146 100.282 359.322 101.149 359.674 101.882C360.031 102.614 360.535 103.18 361.186 103.578C361.842 103.971 362.615 104.167 363.506 104.167ZM363.506 102.813C362.914 102.813 362.41 102.673 361.994 102.392C361.578 102.11 361.259 101.709 361.036 101.188C360.819 100.66 360.711 100.024 360.711 99.2803V99.2627C360.711 98.5127 360.819 97.874 361.036 97.3467C361.259 96.8193 361.578 96.418 361.994 96.1426C362.41 95.8672 362.914 95.7295 363.506 95.7295C364.104 95.7295 364.61 95.8672 365.026 96.1426C365.442 96.418 365.759 96.8193 365.976 97.3467C366.198 97.874 366.31 98.5127 366.31 99.2627V99.2803C366.31 100.024 366.198 100.66 365.976 101.188C365.759 101.709 365.442 102.11 365.026 102.392C364.61 102.673 364.104 102.813 363.506 102.813ZM373.376 104.167C374.073 104.167 374.656 104.029 375.125 103.754C375.594 103.479 375.948 103.092 376.188 102.594H376.32V104H377.85V94.543H376.32V100.142C376.32 100.687 376.224 101.161 376.03 101.565C375.837 101.964 375.55 102.271 375.169 102.488C374.788 102.705 374.322 102.813 373.771 102.813C373.016 102.813 372.471 102.605 372.137 102.189C371.809 101.773 371.645 101.144 371.645 100.3V94.543H370.115V100.669C370.115 101.407 370.235 102.04 370.476 102.567C370.722 103.089 371.088 103.487 371.574 103.763C372.061 104.032 372.661 104.167 373.376 104.167ZM380.662 104H382.191V98.1377C382.191 97.6748 382.297 97.2705 382.508 96.9248C382.719 96.5791 383.009 96.3125 383.378 96.125C383.753 95.9316 384.181 95.835 384.661 95.835C384.831 95.835 384.989 95.8438 385.136 95.8613C385.288 95.873 385.44 95.8936 385.593 95.9229V94.4375C385.522 94.4258 385.414 94.4141 385.268 94.4023C385.127 94.3848 384.983 94.376 384.837 94.376C384.204 94.376 383.671 94.5137 383.237 94.7891C382.81 95.0645 382.505 95.4512 382.323 95.9492H382.191V94.543H380.662V104ZM394.303 104H395.832L397.941 96.6787H398.073L400.191 104H401.729L404.375 94.543H402.854L401 102.11H400.859L398.741 94.543H397.291L395.173 102.11H395.041L393.178 94.543H391.648L394.303 104ZM409.903 104.167C410.46 104.167 410.961 104.097 411.406 103.956C411.852 103.81 412.238 103.616 412.566 103.376C412.9 103.13 413.17 102.857 413.375 102.559C413.586 102.254 413.732 101.938 413.814 101.609L413.832 101.539H412.303L412.268 101.618C412.186 101.812 412.042 101.999 411.837 102.181C411.632 102.362 411.371 102.512 411.055 102.629C410.738 102.746 410.366 102.805 409.938 102.805C409.364 102.805 408.866 102.679 408.444 102.427C408.028 102.169 407.706 101.803 407.478 101.328C407.249 100.854 407.135 100.279 407.135 99.6055V98.999C407.135 98.29 407.252 97.6924 407.486 97.2061C407.721 96.7197 408.037 96.3535 408.436 96.1074C408.834 95.8613 409.288 95.7383 409.798 95.7383C410.308 95.7383 410.759 95.8555 411.151 96.0898C411.544 96.3242 411.852 96.6816 412.074 97.1621C412.297 97.6426 412.408 98.2549 412.408 98.999V99.6055L413.164 98.4893H406.361V99.7109H413.946V99.1133C413.946 98.1699 413.779 97.3438 413.445 96.6348C413.117 95.9199 412.643 95.3662 412.021 94.9736C411.406 94.5752 410.668 94.376 409.807 94.376C408.951 94.376 408.204 94.584 407.565 95C406.933 95.4102 406.44 95.9844 406.089 96.7227C405.743 97.4609 405.57 98.3193 405.57 99.2979V99.3066C405.57 100.297 405.743 101.155 406.089 101.882C406.44 102.608 406.938 103.171 407.583 103.569C408.228 103.968 409.001 104.167 409.903 104.167ZM420.995 104.167C421.798 104.167 422.495 103.965 423.087 103.561C423.685 103.156 424.145 102.588 424.467 101.855C424.795 101.123 424.959 100.265 424.959 99.2803V99.2627C424.959 98.2725 424.795 97.4111 424.467 96.6787C424.145 95.9463 423.685 95.3809 423.087 94.9824C422.495 94.5781 421.798 94.376 420.995 94.376C420.345 94.376 419.753 94.5283 419.22 94.833C418.692 95.1318 418.3 95.5332 418.042 96.0371H417.91V90.79H416.381V104H417.91V102.488H418.042C418.335 103.016 418.736 103.429 419.246 103.728C419.756 104.021 420.339 104.167 420.995 104.167ZM420.644 102.813C420.075 102.813 419.583 102.67 419.167 102.383C418.751 102.096 418.432 101.688 418.209 101.161C417.986 100.628 417.875 100.001 417.875 99.2803V99.2627C417.875 98.5303 417.986 97.9033 418.209 97.3818C418.432 96.8545 418.751 96.4473 419.167 96.1602C419.583 95.873 420.075 95.7295 420.644 95.7295C421.224 95.7295 421.719 95.873 422.129 96.1602C422.539 96.4414 422.853 96.8457 423.069 97.373C423.286 97.8945 423.395 98.5244 423.395 99.2627V99.2803C423.395 100.013 423.286 100.643 423.069 101.17C422.853 101.697 422.539 102.104 422.129 102.392C421.719 102.673 421.224 102.813 420.644 102.813ZM427.297 107.164H428.826V102.506H428.958C429.134 102.846 429.368 103.139 429.661 103.385C429.96 103.631 430.3 103.824 430.681 103.965C431.067 104.1 431.478 104.167 431.911 104.167C432.714 104.167 433.411 103.965 434.003 103.561C434.601 103.156 435.063 102.591 435.392 101.864C435.72 101.132 435.884 100.271 435.884 99.2803V99.2627C435.884 98.2783 435.72 97.4199 435.392 96.6875C435.063 95.9551 434.601 95.3867 434.003 94.9824C433.411 94.5781 432.714 94.376 431.911 94.376C431.472 94.376 431.064 94.4434 430.689 94.5781C430.314 94.7129 429.98 94.9062 429.688 95.1582C429.395 95.4043 429.151 95.7031 428.958 96.0547H428.826V94.543H427.297V107.164ZM431.56 102.813C430.991 102.813 430.499 102.67 430.083 102.383C429.667 102.096 429.348 101.688 429.125 101.161C428.902 100.628 428.791 100.001 428.791 99.2803V99.2627C428.791 98.5303 428.902 97.9033 429.125 97.3818C429.348 96.8545 429.667 96.4473 430.083 96.1602C430.499 95.873 430.991 95.7295 431.56 95.7295C432.14 95.7295 432.635 95.8701 433.045 96.1514C433.455 96.4326 433.769 96.8369 433.985 97.3643C434.208 97.8916 434.319 98.5244 434.319 99.2627V99.2803C434.319 100.013 434.208 100.643 433.985 101.17C433.769 101.697 433.455 102.104 433.045 102.392C432.635 102.673 432.14 102.813 431.56 102.813ZM440.832 104.167C441.26 104.167 441.652 104.108 442.01 103.991C442.367 103.868 442.687 103.689 442.968 103.455C443.255 103.221 443.498 102.937 443.697 102.603H443.838V104H445.367V97.5225C445.367 96.8662 445.227 96.3037 444.945 95.835C444.664 95.3662 444.257 95.0059 443.724 94.7539C443.19 94.502 442.537 94.376 441.764 94.376C441.09 94.376 440.489 94.4814 439.962 94.6924C439.435 94.8975 439.004 95.1875 438.67 95.5625C438.342 95.9375 438.14 96.374 438.063 96.8721L438.055 96.9248H439.575L439.584 96.8984C439.707 96.5234 439.95 96.2363 440.313 96.0371C440.677 95.832 441.143 95.7295 441.711 95.7295C442.42 95.7295 442.95 95.8848 443.302 96.1953C443.659 96.5 443.838 96.9453 443.838 97.5312V100.467C443.838 100.918 443.721 101.322 443.486 101.68C443.258 102.037 442.941 102.321 442.537 102.532C442.133 102.737 441.67 102.84 441.148 102.84C440.598 102.84 440.141 102.708 439.777 102.444C439.42 102.175 439.241 101.8 439.241 101.319V101.302C439.241 100.839 439.405 100.479 439.733 100.221C440.067 99.9629 440.592 99.8135 441.307 99.7725L444.603 99.5615V98.3398L441.122 98.5508C440.021 98.6152 439.171 98.8877 438.573 99.3682C437.976 99.8428 437.677 100.499 437.677 101.337V101.354C437.677 101.929 437.814 102.427 438.09 102.849C438.365 103.271 438.74 103.596 439.215 103.824C439.695 104.053 440.234 104.167 440.832 104.167ZM452.029 107.34C452.885 107.34 453.629 107.196 454.262 106.909C454.895 106.622 455.381 106.218 455.721 105.696C456.066 105.175 456.239 104.562 456.239 103.859V94.543H454.71V96.1074H454.604C454.411 95.75 454.168 95.4424 453.875 95.1846C453.588 94.9268 453.257 94.7275 452.882 94.5869C452.507 94.4463 452.097 94.376 451.651 94.376C450.831 94.376 450.122 94.5752 449.524 94.9736C448.927 95.3662 448.464 95.9082 448.136 96.5996C447.813 97.2852 447.652 98.0703 447.652 98.9551V98.9727C447.652 99.8633 447.813 100.651 448.136 101.337C448.458 102.022 448.915 102.562 449.507 102.954C450.104 103.341 450.808 103.534 451.616 103.534C452.05 103.534 452.454 103.473 452.829 103.35C453.204 103.221 453.541 103.033 453.84 102.787C454.139 102.541 454.388 102.245 454.587 101.899H454.728V103.78C454.728 104.478 454.487 105.02 454.007 105.406C453.532 105.793 452.873 105.986 452.029 105.986C451.35 105.986 450.805 105.869 450.395 105.635C449.984 105.406 449.735 105.113 449.647 104.756L449.639 104.747H448.057L448.048 104.756C448.13 105.271 448.338 105.723 448.672 106.109C449.012 106.502 449.466 106.804 450.034 107.015C450.603 107.231 451.268 107.34 452.029 107.34ZM451.95 102.181C451.37 102.181 450.875 102.046 450.465 101.776C450.061 101.501 449.75 101.123 449.533 100.643C449.322 100.162 449.217 99.6055 449.217 98.9727V98.9551C449.217 98.3281 449.322 97.7715 449.533 97.2852C449.75 96.7988 450.061 96.418 450.465 96.1426C450.875 95.8672 451.37 95.7295 451.95 95.7295C452.536 95.7295 453.037 95.8672 453.453 96.1426C453.869 96.418 454.188 96.7988 454.411 97.2852C454.64 97.7715 454.754 98.3281 454.754 98.9551V98.9727C454.754 99.6055 454.64 100.162 454.411 100.643C454.188 101.123 453.869 101.501 453.453 101.776C453.037 102.046 452.536 102.181 451.95 102.181ZM462.901 104.167C463.458 104.167 463.959 104.097 464.404 103.956C464.85 103.81 465.236 103.616 465.564 103.376C465.898 103.13 466.168 102.857 466.373 102.559C466.584 102.254 466.73 101.938 466.812 101.609L466.83 101.539H465.301L465.266 101.618C465.184 101.812 465.04 101.999 464.835 102.181C464.63 102.362 464.369 102.512 464.053 102.629C463.736 102.746 463.364 102.805 462.937 102.805C462.362 102.805 461.864 102.679 461.442 102.427C461.026 102.169 460.704 101.803 460.476 101.328C460.247 100.854 460.133 100.279 460.133 99.6055V98.999C460.133 98.29 460.25 97.6924 460.484 97.2061C460.719 96.7197 461.035 96.3535 461.434 96.1074C461.832 95.8613 462.286 95.7383 462.796 95.7383C463.306 95.7383 463.757 95.8555 464.149 96.0898C464.542 96.3242 464.85 96.6816 465.072 97.1621C465.295 97.6426 465.406 98.2549 465.406 98.999V99.6055L466.162 98.4893H459.359V99.7109H466.944V99.1133C466.944 98.1699 466.777 97.3438 466.443 96.6348C466.115 95.9199 465.641 95.3662 465.02 94.9736C464.404 94.5752 463.666 94.376 462.805 94.376C461.949 94.376 461.202 94.584 460.563 95C459.931 95.4102 459.438 95.9844 459.087 96.7227C458.741 97.4609 458.568 98.3193 458.568 99.2979V99.3066C458.568 100.297 458.741 101.155 459.087 101.882C459.438 102.608 459.937 103.171 460.581 103.569C461.226 103.968 461.999 104.167 462.901 104.167ZM470.521 104.088C470.838 104.088 471.104 103.977 471.321 103.754C471.544 103.531 471.655 103.265 471.655 102.954C471.655 102.638 471.544 102.371 471.321 102.154C471.104 101.932 470.838 101.82 470.521 101.82C470.211 101.82 469.944 101.932 469.722 102.154C469.499 102.371 469.388 102.638 469.388 102.954C469.388 103.265 469.499 103.531 469.722 103.754C469.944 103.977 470.211 104.088 470.521 104.088Z" fill="white"/>
<rect x="32.5" y="132.5" width="578" height="47" rx="7.5" fill="black" stroke="#404040"/>
<path d="M57.9523 153.992L51.3116 156.492L57.9523 158.969V160.398L49.6945 157.133V155.836L57.9523 152.57V153.992ZM61.1163 152.781H64.796V160.383H67.6476V161.5H60.507V160.383H63.3585V153.898H61.1163V152.781ZM63.3585 149.383H64.796V151.195H63.3585V149.383ZM76.5929 149.344V150.539H74.9601C74.4445 150.539 74.0851 150.646 73.882 150.859C73.684 151.068 73.5851 151.44 73.5851 151.977V152.75H76.5929V153.867H73.5851V161.5H72.1476V153.867H69.8116V152.75H72.1476V152.141C72.1476 151.182 72.3663 150.477 72.8038 150.023C73.2465 149.57 73.934 149.344 74.8663 149.344H76.5929ZM86.9523 154.555C86.645 154.315 86.3325 154.141 86.0148 154.031C85.6971 153.922 85.3481 153.867 84.9679 153.867C84.0721 153.867 83.3872 154.148 82.9132 154.711C82.4392 155.273 82.2023 156.086 82.2023 157.148V161.5H80.757V152.75H82.2023V154.461C82.4419 153.841 82.809 153.367 83.3038 153.039C83.8038 152.706 84.395 152.539 85.0773 152.539C85.4314 152.539 85.7622 152.583 86.0695 152.672C86.3767 152.76 86.671 152.898 86.9523 153.086V154.555ZM93.0538 157.102H92.5773C91.7387 157.102 91.1059 157.25 90.6788 157.547C90.257 157.839 90.046 158.276 90.046 158.859C90.046 159.385 90.2049 159.794 90.5226 160.086C90.8403 160.378 91.2804 160.523 91.8429 160.523C92.6346 160.523 93.257 160.25 93.7101 159.703C94.1632 159.151 94.3924 158.391 94.3976 157.422V157.102H93.0538ZM95.8429 156.508V161.5H94.3976V160.203C94.0903 160.724 93.7023 161.109 93.2335 161.359C92.77 161.604 92.2049 161.727 91.5382 161.727C90.6476 161.727 89.9366 161.477 89.4054 160.977C88.8741 160.471 88.6085 159.797 88.6085 158.953C88.6085 157.979 88.934 157.24 89.5851 156.734C90.2413 156.229 91.2023 155.977 92.4679 155.977H94.3976V155.75C94.3924 155.052 94.2153 154.547 93.8663 154.234C93.5174 153.917 92.9601 153.758 92.1945 153.758C91.7049 153.758 91.2101 153.828 90.7101 153.969C90.2101 154.109 89.7231 154.315 89.2491 154.586V153.148C89.7804 152.945 90.2882 152.794 90.7726 152.695C91.2622 152.591 91.7361 152.539 92.1945 152.539C92.9184 152.539 93.5356 152.646 94.046 152.859C94.5616 153.073 94.9783 153.393 95.296 153.82C95.4939 154.081 95.6346 154.404 95.7179 154.789C95.8012 155.169 95.8429 155.742 95.8429 156.508ZM102.491 153.641C102.668 153.266 102.892 152.99 103.163 152.812C103.439 152.63 103.77 152.539 104.155 152.539C104.859 152.539 105.353 152.812 105.64 153.359C105.931 153.901 106.077 154.924 106.077 156.43V161.5H104.765V156.492C104.765 155.258 104.694 154.492 104.554 154.195C104.418 153.893 104.168 153.742 103.804 153.742C103.387 153.742 103.101 153.904 102.944 154.227C102.793 154.544 102.718 155.299 102.718 156.492V161.5H101.405V156.492C101.405 155.242 101.33 154.471 101.179 154.18C101.033 153.888 100.767 153.742 100.382 153.742C100.002 153.742 99.7361 153.904 99.5851 154.227C99.4392 154.544 99.3663 155.299 99.3663 156.492V161.5H98.0616V152.75H99.3663V153.5C99.5382 153.188 99.7517 152.951 100.007 152.789C100.267 152.622 100.562 152.539 100.89 152.539C101.286 152.539 101.614 152.63 101.874 152.812C102.14 152.995 102.345 153.271 102.491 153.641ZM115.601 156.406V157.109H109.374V157.156C109.332 158.349 109.559 159.206 110.054 159.727C110.554 160.247 111.257 160.508 112.163 160.508C112.622 160.508 113.101 160.435 113.601 160.289C114.101 160.143 114.635 159.922 115.202 159.625V161.055C114.655 161.279 114.127 161.445 113.616 161.555C113.111 161.669 112.622 161.727 112.148 161.727C110.788 161.727 109.726 161.32 108.96 160.508C108.194 159.69 107.812 158.565 107.812 157.133C107.812 155.737 108.187 154.622 108.937 153.789C109.687 152.956 110.687 152.539 111.937 152.539C113.051 152.539 113.929 152.917 114.569 153.672C115.215 154.427 115.559 155.339 115.601 156.406ZM114.163 155.984C114.101 155.38 113.879 154.859 113.499 154.422C113.124 153.979 112.582 153.758 111.874 153.758C111.181 153.758 110.611 153.987 110.163 154.445C109.715 154.904 109.47 155.419 109.429 155.992L114.163 155.984ZM133.734 153.055V154.461C133.322 154.221 132.908 154.042 132.491 153.922C132.075 153.802 131.65 153.742 131.218 153.742C130.567 153.742 130.08 153.849 129.757 154.062C129.439 154.271 129.28 154.591 129.28 155.023C129.28 155.414 129.4 155.706 129.64 155.898C129.879 156.091 130.476 156.279 131.429 156.461L132.007 156.57C132.72 156.706 133.26 156.977 133.624 157.383C133.994 157.789 134.179 158.318 134.179 158.969C134.179 159.833 133.872 160.51 133.257 161C132.642 161.484 131.788 161.727 130.694 161.727C130.262 161.727 129.809 161.68 129.335 161.586C128.861 161.497 128.348 161.362 127.796 161.18V159.695C128.332 159.971 128.845 160.18 129.335 160.32C129.825 160.456 130.288 160.523 130.726 160.523C131.361 160.523 131.853 160.396 132.202 160.141C132.551 159.88 132.726 159.518 132.726 159.055C132.726 158.388 132.088 157.927 130.812 157.672L130.749 157.656L130.21 157.547C129.382 157.385 128.778 157.115 128.398 156.734C128.017 156.349 127.827 155.826 127.827 155.164C127.827 154.326 128.111 153.68 128.679 153.227C129.247 152.768 130.056 152.539 131.109 152.539C131.577 152.539 132.028 152.583 132.46 152.672C132.892 152.755 133.317 152.883 133.734 153.055ZM144.796 154.555C144.489 154.315 144.176 154.141 143.859 154.031C143.541 153.922 143.192 153.867 142.812 153.867C141.916 153.867 141.231 154.148 140.757 154.711C140.283 155.273 140.046 156.086 140.046 157.148V161.5H138.601V152.75H140.046V154.461C140.286 153.841 140.653 153.367 141.148 153.039C141.648 152.706 142.239 152.539 142.921 152.539C143.275 152.539 143.606 152.583 143.913 152.672C144.22 152.76 144.515 152.898 144.796 153.086V154.555ZM153.702 161.055C153.317 161.279 152.918 161.445 152.507 161.555C152.101 161.669 151.684 161.727 151.257 161.727C149.903 161.727 148.843 161.32 148.077 160.508C147.317 159.695 146.937 158.57 146.937 157.133C146.937 155.695 147.317 154.57 148.077 153.758C148.843 152.945 149.903 152.539 151.257 152.539C151.679 152.539 152.09 152.594 152.491 152.703C152.892 152.812 153.296 152.982 153.702 153.211V154.719C153.322 154.38 152.939 154.135 152.554 153.984C152.174 153.833 151.741 153.758 151.257 153.758C150.356 153.758 149.663 154.049 149.179 154.633C148.694 155.216 148.452 156.049 148.452 157.133C148.452 158.211 148.694 159.044 149.179 159.633C149.668 160.216 150.361 160.508 151.257 160.508C151.757 160.508 152.205 160.432 152.601 160.281C152.997 160.125 153.364 159.885 153.702 159.562V161.055ZM155.741 157.594H163.999V158.914H155.741V157.594ZM155.741 153.914H163.999V155.234H155.741V153.914ZM172.077 149.414V154.195H170.327V149.414H172.077ZM167.913 149.414V154.195H166.163V149.414H167.913ZM182.546 156.078V161.5H181.101V156.078C181.101 155.292 180.963 154.714 180.687 154.344C180.411 153.974 179.978 153.789 179.39 153.789C178.718 153.789 178.2 154.029 177.835 154.508C177.476 154.982 177.296 155.664 177.296 156.555V161.5H175.859V149.344H177.296V154.062C177.551 153.562 177.898 153.185 178.335 152.93C178.773 152.669 179.291 152.539 179.89 152.539C180.78 152.539 181.444 152.833 181.882 153.422C182.325 154.005 182.546 154.891 182.546 156.078ZM188.773 150.266V152.75H192.038V153.867H188.773V158.617C188.773 159.263 188.895 159.714 189.14 159.969C189.385 160.224 189.812 160.352 190.421 160.352H192.038V161.5H190.28C189.202 161.5 188.442 161.284 187.999 160.852C187.556 160.419 187.335 159.674 187.335 158.617V153.867H184.999V152.75H187.335V150.266H188.773ZM198.413 150.266V152.75H201.679V153.867H198.413V158.617C198.413 159.263 198.536 159.714 198.78 159.969C199.025 160.224 199.452 160.352 200.062 160.352H201.679V161.5H199.921C198.843 161.5 198.082 161.284 197.64 160.852C197.197 160.419 196.976 159.674 196.976 158.617V153.867H194.64V152.75H196.976V150.266H198.413ZM206.187 160.398V164.828H204.741V152.75H206.187V153.867C206.426 153.435 206.744 153.107 207.14 152.883C207.541 152.654 208.002 152.539 208.523 152.539C209.58 152.539 210.408 152.948 211.007 153.766C211.611 154.583 211.913 155.716 211.913 157.164C211.913 158.586 211.611 159.703 211.007 160.516C210.403 161.323 209.575 161.727 208.523 161.727C207.991 161.727 207.525 161.615 207.124 161.391C206.728 161.161 206.416 160.831 206.187 160.398ZM210.405 157.133C210.405 156.018 210.228 155.177 209.874 154.609C209.525 154.042 209.004 153.758 208.312 153.758C207.614 153.758 207.085 154.044 206.726 154.617C206.366 155.185 206.187 156.023 206.187 157.133C206.187 158.237 206.366 159.076 206.726 159.648C207.085 160.221 207.614 160.508 208.312 160.508C209.004 160.508 209.525 160.224 209.874 159.656C210.228 159.089 210.405 158.247 210.405 157.133ZM220.499 153.055V154.461C220.088 154.221 219.674 154.042 219.257 153.922C218.84 153.802 218.416 153.742 217.984 153.742C217.332 153.742 216.845 153.849 216.523 154.062C216.205 154.271 216.046 154.591 216.046 155.023C216.046 155.414 216.166 155.706 216.405 155.898C216.645 156.091 217.241 156.279 218.194 156.461L218.773 156.57C219.486 156.706 220.025 156.977 220.39 157.383C220.76 157.789 220.944 158.318 220.944 158.969C220.944 159.833 220.637 160.51 220.023 161C219.408 161.484 218.554 161.727 217.46 161.727C217.028 161.727 216.575 161.68 216.101 161.586C215.627 161.497 215.114 161.362 214.562 161.18V159.695C215.098 159.971 215.611 160.18 216.101 160.32C216.59 160.456 217.054 160.523 217.491 160.523C218.127 160.523 218.619 160.396 218.968 160.141C219.317 159.88 219.491 159.518 219.491 159.055C219.491 158.388 218.853 157.927 217.577 157.672L217.515 157.656L216.976 157.547C216.148 157.385 215.543 157.115 215.163 156.734C214.783 156.349 214.593 155.826 214.593 155.164C214.593 154.326 214.877 153.68 215.444 153.227C216.012 152.768 216.822 152.539 217.874 152.539C218.343 152.539 218.793 152.583 219.226 152.672C219.658 152.755 220.082 152.883 220.499 153.055ZM225.89 152.758H228.327V155.578H225.89V152.758ZM225.89 158.656H228.327V161.5H225.89V158.656ZM239.124 149.836H240.609L234.468 162.984H232.976L239.124 149.836ZM248.765 149.836H250.249L244.109 162.984H242.616L248.765 149.836ZM260.21 156.406V157.109H253.984V157.156C253.942 158.349 254.168 159.206 254.663 159.727C255.163 160.247 255.866 160.508 256.773 160.508C257.231 160.508 257.71 160.435 258.21 160.289C258.71 160.143 259.244 159.922 259.812 159.625V161.055C259.265 161.279 258.736 161.445 258.226 161.555C257.72 161.669 257.231 161.727 256.757 161.727C255.398 161.727 254.335 161.32 253.569 160.508C252.804 159.69 252.421 158.565 252.421 157.133C252.421 155.737 252.796 154.622 253.546 153.789C254.296 152.956 255.296 152.539 256.546 152.539C257.661 152.539 258.538 152.917 259.179 153.672C259.825 154.427 260.168 155.339 260.21 156.406ZM258.773 155.984C258.71 155.38 258.489 154.859 258.109 154.422C257.734 153.979 257.192 153.758 256.484 153.758C255.791 153.758 255.22 153.987 254.773 154.445C254.325 154.904 254.08 155.419 254.038 155.992L258.773 155.984ZM262.874 152.734H269.226V154.047L264.202 160.328H269.226V161.5H262.687V160.172L267.71 153.883H262.874V152.734ZM272.585 149.344H274.069V156.383L277.843 152.75H279.593L276.148 156.047L280.132 161.5H278.374L275.14 156.984L274.069 157.992V161.5H272.585V149.344ZM285.194 153.758C284.465 153.758 283.913 154.042 283.538 154.609C283.163 155.177 282.976 156.018 282.976 157.133C282.976 158.242 283.163 159.083 283.538 159.656C283.913 160.224 284.465 160.508 285.194 160.508C285.929 160.508 286.484 160.224 286.859 159.656C287.234 159.083 287.421 158.242 287.421 157.133C287.421 156.018 287.234 155.177 286.859 154.609C286.484 154.042 285.929 153.758 285.194 153.758ZM285.194 152.539C286.408 152.539 287.335 152.932 287.976 153.719C288.622 154.505 288.944 155.643 288.944 157.133C288.944 158.628 288.624 159.768 287.984 160.555C287.343 161.336 286.413 161.727 285.194 161.727C283.981 161.727 283.054 161.336 282.413 160.555C281.773 159.768 281.452 158.628 281.452 157.133C281.452 155.643 281.773 154.505 282.413 153.719C283.054 152.932 283.981 152.539 285.194 152.539ZM295.304 153.641C295.481 153.266 295.705 152.99 295.976 152.812C296.252 152.63 296.582 152.539 296.968 152.539C297.671 152.539 298.166 152.812 298.452 153.359C298.744 153.901 298.89 154.924 298.89 156.43V161.5H297.577V156.492C297.577 155.258 297.507 154.492 297.366 154.195C297.231 153.893 296.981 153.742 296.616 153.742C296.2 153.742 295.913 153.904 295.757 154.227C295.606 154.544 295.53 155.299 295.53 156.492V161.5H294.218V156.492C294.218 155.242 294.142 154.471 293.991 154.18C293.845 153.888 293.58 153.742 293.194 153.742C292.814 153.742 292.549 153.904 292.398 154.227C292.252 154.544 292.179 155.299 292.179 156.492V161.5H290.874V152.75H292.179V153.5C292.351 153.188 292.564 152.951 292.819 152.789C293.08 152.622 293.374 152.539 293.702 152.539C294.098 152.539 294.426 152.63 294.687 152.812C294.952 152.995 295.158 153.271 295.304 153.641ZM304.944 153.641C305.122 153.266 305.345 152.99 305.616 152.812C305.892 152.63 306.223 152.539 306.609 152.539C307.312 152.539 307.806 152.812 308.093 153.359C308.385 153.901 308.53 154.924 308.53 156.43V161.5H307.218V156.492C307.218 155.258 307.148 154.492 307.007 154.195C306.872 153.893 306.622 153.742 306.257 153.742C305.84 153.742 305.554 153.904 305.398 154.227C305.247 154.544 305.171 155.299 305.171 156.492V161.5H303.859V156.492C303.859 155.242 303.783 154.471 303.632 154.18C303.486 153.888 303.22 153.742 302.835 153.742C302.455 153.742 302.189 153.904 302.038 154.227C301.892 154.544 301.819 155.299 301.819 156.492V161.5H300.515V152.75H301.819V153.5C301.991 153.188 302.205 152.951 302.46 152.789C302.72 152.622 303.015 152.539 303.343 152.539C303.739 152.539 304.067 152.63 304.327 152.812C304.593 152.995 304.799 153.271 304.944 153.641ZM318.054 156.406V157.109H311.827V157.156C311.786 158.349 312.012 159.206 312.507 159.727C313.007 160.247 313.71 160.508 314.616 160.508C315.075 160.508 315.554 160.435 316.054 160.289C316.554 160.143 317.088 159.922 317.655 159.625V161.055C317.109 161.279 316.58 161.445 316.069 161.555C315.564 161.669 315.075 161.727 314.601 161.727C313.241 161.727 312.179 161.32 311.413 160.508C310.648 159.69 310.265 158.565 310.265 157.133C310.265 155.737 310.64 154.622 311.39 153.789C312.14 152.956 313.14 152.539 314.39 152.539C315.504 152.539 316.382 152.917 317.023 153.672C317.668 154.427 318.012 155.339 318.054 156.406ZM316.616 155.984C316.554 155.38 316.332 154.859 315.952 154.422C315.577 153.979 315.036 153.758 314.327 153.758C313.635 153.758 313.064 153.987 312.616 154.445C312.168 154.904 311.924 155.419 311.882 155.992L316.616 155.984ZM327.155 156.078V161.5H325.71V156.078C325.71 155.292 325.572 154.714 325.296 154.344C325.02 153.974 324.588 153.789 323.999 153.789C323.327 153.789 322.809 154.029 322.444 154.508C322.085 154.982 321.905 155.664 321.905 156.555V161.5H320.468V152.75H321.905V154.062C322.161 153.562 322.507 153.185 322.944 152.93C323.382 152.669 323.9 152.539 324.499 152.539C325.39 152.539 326.054 152.833 326.491 153.422C326.934 154.005 327.155 154.891 327.155 156.078ZM333.382 150.266V152.75H336.648V153.867H333.382V158.617C333.382 159.263 333.504 159.714 333.749 159.969C333.994 160.224 334.421 160.352 335.03 160.352H336.648V161.5H334.89C333.812 161.5 333.051 161.284 332.609 160.852C332.166 160.419 331.944 159.674 331.944 158.617V153.867H329.609V152.75H331.944V150.266H333.382ZM341.265 158.344H344.015V161.5H341.265V158.344ZM352.554 161.656V153.867H350.077V152.75H353.991V161.656C353.991 162.672 353.757 163.453 353.288 164C352.825 164.552 352.163 164.828 351.304 164.828H349.319V163.609H351.148C351.616 163.609 351.968 163.445 352.202 163.117C352.437 162.794 352.554 162.307 352.554 161.656ZM352.554 149.344H353.991V151.164H352.554V149.344ZM362.319 153.758C361.59 153.758 361.038 154.042 360.663 154.609C360.288 155.177 360.101 156.018 360.101 157.133C360.101 158.242 360.288 159.083 360.663 159.656C361.038 160.224 361.59 160.508 362.319 160.508C363.054 160.508 363.609 160.224 363.984 159.656C364.359 159.083 364.546 158.242 364.546 157.133C364.546 156.018 364.359 155.177 363.984 154.609C363.609 154.042 363.054 153.758 362.319 153.758ZM362.319 152.539C363.533 152.539 364.46 152.932 365.101 153.719C365.747 154.505 366.069 155.643 366.069 157.133C366.069 158.628 365.749 159.768 365.109 160.555C364.468 161.336 363.538 161.727 362.319 161.727C361.106 161.727 360.179 161.336 359.538 160.555C358.898 159.768 358.577 158.628 358.577 157.133C358.577 155.643 358.898 154.505 359.538 153.719C360.179 152.932 361.106 152.539 362.319 152.539ZM368.671 158.188V152.766H370.109V158.188C370.109 158.974 370.247 159.552 370.523 159.922C370.804 160.292 371.236 160.477 371.819 160.477C372.497 160.477 373.015 160.24 373.374 159.766C373.734 159.286 373.913 158.602 373.913 157.711V152.766H375.359V161.5H373.913V160.188C373.658 160.693 373.309 161.076 372.866 161.336C372.429 161.596 371.916 161.727 371.327 161.727C370.431 161.727 369.765 161.435 369.327 160.852C368.89 160.263 368.671 159.375 368.671 158.188ZM382.405 158.336C382.405 158.982 382.523 159.469 382.757 159.797C382.997 160.125 383.348 160.289 383.812 160.289H385.491V161.5H383.671C382.812 161.5 382.145 161.227 381.671 160.68C381.202 160.128 380.968 159.346 380.968 158.336V150.422H378.663V149.297H382.405V158.336ZM395.179 156.406V157.109H388.952V157.156C388.911 158.349 389.137 159.206 389.632 159.727C390.132 160.247 390.835 160.508 391.741 160.508C392.2 160.508 392.679 160.435 393.179 160.289C393.679 160.143 394.213 159.922 394.78 159.625V161.055C394.234 161.279 393.705 161.445 393.194 161.555C392.689 161.669 392.2 161.727 391.726 161.727C390.366 161.727 389.304 161.32 388.538 160.508C387.773 159.69 387.39 158.565 387.39 157.133C387.39 155.737 387.765 154.622 388.515 153.789C389.265 152.956 390.265 152.539 391.515 152.539C392.629 152.539 393.507 152.917 394.148 153.672C394.793 154.427 395.137 155.339 395.179 156.406ZM393.741 155.984C393.679 155.38 393.457 154.859 393.077 154.422C392.702 153.979 392.161 153.758 391.452 153.758C390.76 153.758 390.189 153.987 389.741 154.445C389.293 154.904 389.049 155.419 389.007 155.992L393.741 155.984ZM396.851 152.75H398.343L400.882 160.094L403.429 152.75H404.921L401.812 161.5H399.96L396.851 152.75ZM408.749 158.344H411.499V161.5H408.749V158.344ZM422.054 153.867V149.344H423.491V161.5H422.054V160.398C421.814 160.831 421.494 161.161 421.093 161.391C420.697 161.615 420.239 161.727 419.718 161.727C418.661 161.727 417.827 161.318 417.218 160.5C416.614 159.677 416.312 158.544 416.312 157.102C416.312 155.68 416.616 154.565 417.226 153.758C417.835 152.945 418.666 152.539 419.718 152.539C420.244 152.539 420.707 152.654 421.109 152.883C421.51 153.107 421.825 153.435 422.054 153.867ZM417.827 157.133C417.827 158.247 418.004 159.089 418.359 159.656C418.713 160.224 419.236 160.508 419.929 160.508C420.622 160.508 421.148 160.221 421.507 159.648C421.872 159.076 422.054 158.237 422.054 157.133C422.054 156.023 421.872 155.185 421.507 154.617C421.148 154.044 420.622 153.758 419.929 153.758C419.236 153.758 418.713 154.042 418.359 154.609C418.004 155.177 417.827 156.018 417.827 157.133ZM433.741 156.406V157.109H427.515V157.156C427.473 158.349 427.7 159.206 428.194 159.727C428.694 160.247 429.398 160.508 430.304 160.508C430.762 160.508 431.241 160.435 431.741 160.289C432.241 160.143 432.775 159.922 433.343 159.625V161.055C432.796 161.279 432.267 161.445 431.757 161.555C431.252 161.669 430.762 161.727 430.288 161.727C428.929 161.727 427.866 161.32 427.101 160.508C426.335 159.69 425.952 158.565 425.952 157.133C425.952 155.737 426.327 154.622 427.077 153.789C427.827 152.956 428.827 152.539 430.077 152.539C431.192 152.539 432.069 152.917 432.71 153.672C433.356 154.427 433.7 155.339 433.741 156.406ZM432.304 155.984C432.241 155.38 432.02 154.859 431.64 154.422C431.265 153.979 430.723 153.758 430.015 153.758C429.322 153.758 428.752 153.987 428.304 154.445C427.856 154.904 427.611 155.419 427.569 155.992L432.304 155.984ZM435.413 152.75H436.905L439.444 160.094L441.991 152.75H443.484L440.374 161.5H438.523L435.413 152.75ZM451.218 149.836H452.702L446.562 162.984H445.069L451.218 149.836ZM462.663 156.406V157.109H456.437V157.156C456.395 158.349 456.622 159.206 457.116 159.727C457.616 160.247 458.319 160.508 459.226 160.508C459.684 160.508 460.163 160.435 460.663 160.289C461.163 160.143 461.697 159.922 462.265 159.625V161.055C461.718 161.279 461.189 161.445 460.679 161.555C460.174 161.669 459.684 161.727 459.21 161.727C457.851 161.727 456.788 161.32 456.023 160.508C455.257 159.69 454.874 158.565 454.874 157.133C454.874 155.737 455.249 154.622 455.999 153.789C456.749 152.956 457.749 152.539 458.999 152.539C460.114 152.539 460.991 152.917 461.632 153.672C462.278 154.427 462.622 155.339 462.663 156.406ZM461.226 155.984C461.163 155.38 460.942 154.859 460.562 154.422C460.187 153.979 459.645 153.758 458.937 153.758C458.244 153.758 457.674 153.987 457.226 154.445C456.778 154.904 456.533 155.419 456.491 155.992L461.226 155.984ZM468.835 153.641C469.012 153.266 469.236 152.99 469.507 152.812C469.783 152.63 470.114 152.539 470.499 152.539C471.202 152.539 471.697 152.812 471.984 153.359C472.275 153.901 472.421 154.924 472.421 156.43V161.5H471.109V156.492C471.109 155.258 471.038 154.492 470.898 154.195C470.762 153.893 470.512 153.742 470.148 153.742C469.731 153.742 469.444 153.904 469.288 154.227C469.137 154.544 469.062 155.299 469.062 156.492V161.5H467.749V156.492C467.749 155.242 467.674 154.471 467.523 154.18C467.377 153.888 467.111 153.742 466.726 153.742C466.345 153.742 466.08 153.904 465.929 154.227C465.783 154.544 465.71 155.299 465.71 156.492V161.5H464.405V152.75H465.71V153.5C465.882 153.188 466.095 152.951 466.351 152.789C466.611 152.622 466.905 152.539 467.234 152.539C467.629 152.539 467.957 152.63 468.218 152.812C468.484 152.995 468.689 153.271 468.835 153.641ZM480.366 157.133C480.366 156.018 480.189 155.177 479.835 154.609C479.481 154.042 478.957 153.758 478.265 153.758C477.567 153.758 477.038 154.044 476.679 154.617C476.319 155.185 476.14 156.023 476.14 157.133C476.14 158.237 476.319 159.076 476.679 159.648C477.038 160.221 477.567 160.508 478.265 160.508C478.957 160.508 479.481 160.224 479.835 159.656C480.189 159.089 480.366 158.247 480.366 157.133ZM476.14 153.867C476.369 153.44 476.684 153.112 477.085 152.883C477.491 152.654 477.96 152.539 478.491 152.539C479.543 152.539 480.372 152.945 480.976 153.758C481.58 154.565 481.882 155.68 481.882 157.102C481.882 158.544 481.577 159.677 480.968 160.5C480.364 161.318 479.533 161.727 478.476 161.727C477.955 161.727 477.494 161.615 477.093 161.391C476.697 161.161 476.379 160.831 476.14 160.398V161.5H474.702V149.344H476.14V153.867ZM491.585 156.406V157.109H485.359V157.156C485.317 158.349 485.543 159.206 486.038 159.727C486.538 160.247 487.241 160.508 488.148 160.508C488.606 160.508 489.085 160.435 489.585 160.289C490.085 160.143 490.619 159.922 491.187 159.625V161.055C490.64 161.279 490.111 161.445 489.601 161.555C489.095 161.669 488.606 161.727 488.132 161.727C486.773 161.727 485.71 161.32 484.944 160.508C484.179 159.69 483.796 158.565 483.796 157.133C483.796 155.737 484.171 154.622 484.921 153.789C485.671 152.956 486.671 152.539 487.921 152.539C489.036 152.539 489.913 152.917 490.554 153.672C491.2 154.427 491.543 155.339 491.585 156.406ZM490.148 155.984C490.085 155.38 489.864 154.859 489.484 154.422C489.109 153.979 488.567 153.758 487.859 153.758C487.166 153.758 486.595 153.987 486.148 154.445C485.7 154.904 485.455 155.419 485.413 155.992L490.148 155.984ZM499.179 153.867V149.344H500.616V161.5H499.179V160.398C498.939 160.831 498.619 161.161 498.218 161.391C497.822 161.615 497.364 161.727 496.843 161.727C495.786 161.727 494.952 161.318 494.343 160.5C493.739 159.677 493.437 158.544 493.437 157.102C493.437 155.68 493.741 154.565 494.351 153.758C494.96 152.945 495.791 152.539 496.843 152.539C497.369 152.539 497.832 152.654 498.234 152.883C498.635 153.107 498.95 153.435 499.179 153.867ZM494.952 157.133C494.952 158.247 495.129 159.089 495.484 159.656C495.838 160.224 496.361 160.508 497.054 160.508C497.747 160.508 498.273 160.221 498.632 159.648C498.997 159.076 499.179 158.237 499.179 157.133C499.179 156.023 498.997 155.185 498.632 154.617C498.273 154.044 497.747 153.758 497.054 153.758C496.361 153.758 495.838 154.042 495.484 154.609C495.129 155.177 494.952 156.018 494.952 157.133ZM509.062 149.836H510.546L504.405 162.984H502.913L509.062 149.836ZM514.796 158.344H517.546V161.5H514.796V158.344ZM524.437 158.344H527.187V161.5H524.437V158.344ZM534.077 158.344H536.827V161.5H534.077V158.344ZM548.062 149.414V154.195H546.312V149.414H548.062ZM543.898 149.414V154.195H542.148V149.414H543.898ZM551.007 153.992V152.57L559.265 155.836V157.133L551.007 160.398V158.969L557.648 156.492L551.007 153.992Z" fill="white"/>
<path d="M483.5 132.5H603C607.142 132.5 610.5 135.858 610.5 140V172C610.5 176.142 607.142 179.5 603 179.5H483.5V132.5Z" fill="black" stroke="#404040"/>
<path d="M547.215 163.799C548.117 163.799 548.926 163.641 549.641 163.324C550.361 163.002 550.956 162.557 551.425 161.988C551.894 161.414 552.198 160.74 552.339 159.967V159.94H550.739L550.722 159.967C550.593 160.453 550.364 160.875 550.036 161.232C549.708 161.59 549.304 161.865 548.823 162.059C548.343 162.246 547.807 162.34 547.215 162.34C546.4 162.34 545.694 162.129 545.097 161.707C544.499 161.285 544.039 160.688 543.717 159.914C543.395 159.141 543.233 158.227 543.233 157.172V157.154C543.233 156.094 543.395 155.177 543.717 154.403C544.039 153.63 544.499 153.032 545.097 152.61C545.694 152.188 546.397 151.978 547.206 151.978C547.792 151.978 548.322 152.086 548.797 152.303C549.277 152.52 549.685 152.827 550.019 153.226C550.353 153.618 550.59 154.084 550.73 154.623L550.739 154.649H552.33L552.339 154.632C552.216 153.823 551.917 153.111 551.442 152.496C550.968 151.875 550.364 151.392 549.632 151.046C548.905 150.694 548.097 150.519 547.206 150.519C546.058 150.519 545.064 150.788 544.227 151.327C543.389 151.866 542.741 152.631 542.284 153.621C541.833 154.611 541.607 155.789 541.607 157.154V157.172C541.607 158.531 541.833 159.706 542.284 160.696C542.741 161.687 543.389 162.451 544.227 162.99C545.07 163.529 546.066 163.799 547.215 163.799ZM558.658 163.667C559.561 163.667 560.337 163.471 560.987 163.078C561.638 162.68 562.139 162.117 562.49 161.391C562.848 160.658 563.026 159.788 563.026 158.78V158.763C563.026 157.749 562.848 156.879 562.49 156.152C562.139 155.42 561.638 154.857 560.987 154.465C560.337 154.072 559.561 153.876 558.658 153.876C557.768 153.876 556.994 154.072 556.338 154.465C555.688 154.857 555.184 155.42 554.826 156.152C554.475 156.879 554.299 157.749 554.299 158.763V158.78C554.299 159.782 554.475 160.649 554.826 161.382C555.184 162.114 555.688 162.68 556.338 163.078C556.994 163.471 557.768 163.667 558.658 163.667ZM558.658 162.313C558.066 162.313 557.562 162.173 557.146 161.892C556.73 161.61 556.411 161.209 556.188 160.688C555.972 160.16 555.863 159.524 555.863 158.78V158.763C555.863 158.013 555.972 157.374 556.188 156.847C556.411 156.319 556.73 155.918 557.146 155.643C557.562 155.367 558.066 155.229 558.658 155.229C559.256 155.229 559.763 155.367 560.179 155.643C560.595 155.918 560.911 156.319 561.128 156.847C561.351 157.374 561.462 158.013 561.462 158.763V158.78C561.462 159.524 561.351 160.16 561.128 160.688C560.911 161.209 560.595 161.61 560.179 161.892C559.763 162.173 559.256 162.313 558.658 162.313ZM565.355 166.664H566.885V162.006H567.017C567.192 162.346 567.427 162.639 567.72 162.885C568.019 163.131 568.358 163.324 568.739 163.465C569.126 163.6 569.536 163.667 569.97 163.667C570.772 163.667 571.47 163.465 572.062 163.061C572.659 162.656 573.122 162.091 573.45 161.364C573.778 160.632 573.942 159.771 573.942 158.78V158.763C573.942 157.778 573.778 156.92 573.45 156.188C573.122 155.455 572.659 154.887 572.062 154.482C571.47 154.078 570.772 153.876 569.97 153.876C569.53 153.876 569.123 153.943 568.748 154.078C568.373 154.213 568.039 154.406 567.746 154.658C567.453 154.904 567.21 155.203 567.017 155.555H566.885V154.043H565.355V166.664ZM569.618 162.313C569.05 162.313 568.558 162.17 568.142 161.883C567.726 161.596 567.406 161.188 567.184 160.661C566.961 160.128 566.85 159.501 566.85 158.78V158.763C566.85 158.03 566.961 157.403 567.184 156.882C567.406 156.354 567.726 155.947 568.142 155.66C568.558 155.373 569.05 155.229 569.618 155.229C570.198 155.229 570.693 155.37 571.104 155.651C571.514 155.933 571.827 156.337 572.044 156.864C572.267 157.392 572.378 158.024 572.378 158.763V158.78C572.378 159.513 572.267 160.143 572.044 160.67C571.827 161.197 571.514 161.604 571.104 161.892C570.693 162.173 570.198 162.313 569.618 162.313ZM576.746 166.813C577.309 166.813 577.78 166.731 578.161 166.567C578.548 166.409 578.882 166.131 579.163 165.732C579.45 165.334 579.723 164.783 579.98 164.08L583.681 154.043H582.072L579.172 162.762L579.77 161.83H579.058L579.655 162.762L576.746 154.043H575.111L578.609 163.509L578.434 164.071C578.264 164.616 578.038 164.997 577.757 165.214C577.481 165.437 577.127 165.548 576.693 165.548C576.588 165.548 576.479 165.545 576.368 165.539C576.257 165.533 576.154 165.521 576.061 165.504V166.761C576.166 166.778 576.28 166.79 576.403 166.796C576.532 166.808 576.646 166.813 576.746 166.813Z" fill="white"/>
<path d="M523.5 146H511.5C510.4 146 509.5 146.9 509.5 148V162H511.5V148H523.5V146ZM526.5 150H515.5C514.4 150 513.5 150.9 513.5 152V166C513.5 167.1 514.4 168 515.5 168H526.5C527.6 168 528.5 167.1 528.5 166V152C528.5 150.9 527.6 150 526.5 150ZM526.5 166H515.5V152H526.5V166Z" fill="white"/>
</svg>
