<svg width="801" height="80" viewBox="0 0 801 80" fill="none" xmlns="http://www.w3.org/2000/svg">
<rect x="12" y="15" width="56" height="41" fill="white"/>
<path d="M40 0C17 0 0 15.6246 0 33.2652C0 49.9866 14.3759 59.9151 21.8359 63.0508C22.429 63.3001 22.6701 64.0268 22.3241 64.5727L13.5329 78.4435C12.9804 79.3152 13.9332 80.36 14.8413 79.8782L39.7813 66.6464C39.925 66.5702 40.0866 66.5306 40.2489 66.5298C63.1225 66.4176 80 50.8421 80 33.2652C80 15.6246 63 0 40 0ZM37 54.434L17 37.2974L22 31.2491L36 43.3456L57 19.1527L63 24.1929L37 54.434Z" fill="#6366F1"/>
<path d="M126 55.625L124.062 51.25C121.229 52.75 118.562 53.5 116.062 53.5C112.354 53.5 109.854 51.6458 108.562 47.9375C108.188 46.7292 107.938 45.4167 107.812 44H126.625V42C126.625 31.625 122.833 26.2708 115.25 25.9375C114.958 25.9375 114.688 25.9375 114.438 25.9375C109.896 25.9375 106.396 27.7708 103.938 31.4375C102.021 34.2708 101.062 37.8333 101.062 42.125C101.062 48.7917 103.146 53.5625 107.312 56.4375C109.646 58.0208 112.354 58.8125 115.438 58.8125C119.146 58.7708 122.667 57.7083 126 55.625ZM114.375 31C117.292 31 119.104 32.6667 119.812 36C119.979 36.9583 120.062 37.9792 120.062 39.0625L107.938 39.1875C108.562 34.5208 110.292 31.8333 113.125 31.125C113.542 31.0417 113.958 31 114.375 31ZM137.625 53.25L151.875 30.25V26.75H130.5V31.4375H144.188L130.062 54.6875V58H152.125V53.25H137.625ZM181.688 58.8125C182.438 58.8125 183.312 58.7083 184.312 58.5L184 53.75H183.188C182.312 53.6667 181.562 53.1042 180.938 52.0625L174.312 40.5L183.062 26.75H176.562L170.062 37.3125L164.812 37.375V12.6875H158.312V58H164.812V42.625H169.125L175.625 54.4375C176.917 56.7292 178.312 58.1042 179.812 58.5625C180.396 58.7292 181.021 58.8125 181.688 58.8125ZM199.438 53.5C196.271 53.5 194.146 51.5833 193.062 47.75C192.646 46.1667 192.438 44.375 192.438 42.375C192.438 37 193.833 33.5417 196.625 32C197.542 31.5 198.521 31.25 199.562 31.25C202.812 31.25 204.938 33.2917 205.938 37.375C206.312 38.875 206.5 40.5833 206.5 42.5C206.5 48.0417 205.042 51.5208 202.125 52.9375C201.292 53.3125 200.396 53.5 199.438 53.5ZM199.688 25.9375C194.312 25.9375 190.396 28.1875 187.938 32.6875C186.479 35.4375 185.75 38.7083 185.75 42.5C185.75 49.4167 187.812 54.2083 191.938 56.875C193.979 58.1667 196.396 58.8125 199.188 58.8125C204.938 58.8125 208.979 56.3958 211.312 51.5625C212.521 48.9792 213.125 45.9167 213.125 42.375C213.125 35.1667 210.979 30.2708 206.688 27.6875C204.688 26.5208 202.354 25.9375 199.688 25.9375ZM259.812 36.75C259.812 31.9583 258.271 28.6875 255.188 26.9375C253.938 26.2708 252.562 25.9375 251.062 25.9375C247.729 25.9375 244.979 27.5208 242.812 30.6875C242.562 31.1042 242.333 31.5 242.125 31.875C240.917 28.5 238.688 26.5625 235.438 26.0625C234.938 25.9792 234.438 25.9375 233.938 25.9375C230.771 25.9375 228.125 27.3333 226 30.125C225.792 30.4167 225.604 30.7083 225.438 31L225.312 26.75H219.125V58H225.625V41.25C225.625 36.3333 226.938 33.1458 229.562 31.6875C230.354 31.2708 231.167 31.0625 232 31.0625C234.25 31.0625 235.646 32.3958 236.188 35.0625C236.354 35.7708 236.438 36.5417 236.438 37.375V58H242.938V41.25C242.938 36.125 244.271 32.8958 246.938 31.5625C247.646 31.2292 248.375 31.0625 249.125 31.0625C251.208 31.0625 252.521 32.3542 253.062 34.9375C253.229 35.6875 253.312 36.5 253.312 37.375V51.625C253.312 56.5 255.583 58.875 260.125 58.75C260.917 58.75 261.729 58.6667 262.562 58.5L262.312 53.6875C260.854 53.8958 260.042 53.375 259.875 52.125C259.833 51.8333 259.812 51.5208 259.812 51.1875V36.75ZM308.938 36.75C308.938 31.9583 307.396 28.6875 304.312 26.9375C303.062 26.2708 301.688 25.9375 300.188 25.9375C296.854 25.9375 294.104 27.5208 291.938 30.6875C291.688 31.1042 291.458 31.5 291.25 31.875C290.042 28.5 287.812 26.5625 284.562 26.0625C284.062 25.9792 283.562 25.9375 283.062 25.9375C279.896 25.9375 277.25 27.3333 275.125 30.125C274.917 30.4167 274.729 30.7083 274.562 31L274.438 26.75H268.25V58H274.75V41.25C274.75 36.3333 276.062 33.1458 278.688 31.6875C279.479 31.2708 280.292 31.0625 281.125 31.0625C283.375 31.0625 284.771 32.3958 285.312 35.0625C285.479 35.7708 285.562 36.5417 285.562 37.375V58H292.062V41.25C292.062 36.125 293.396 32.8958 296.062 31.5625C296.771 31.2292 297.5 31.0625 298.25 31.0625C300.333 31.0625 301.646 32.3542 302.188 34.9375C302.354 35.6875 302.438 36.5 302.438 37.375V51.625C302.438 56.5 304.708 58.875 309.25 58.75C310.042 58.75 310.854 58.6667 311.688 58.5L311.438 53.6875C309.979 53.8958 309.167 53.375 309 52.125C308.958 51.8333 308.938 51.5208 308.938 51.1875V36.75ZM340.375 55.625L338.438 51.25C335.604 52.75 332.938 53.5 330.438 53.5C326.729 53.5 324.229 51.6458 322.938 47.9375C322.562 46.7292 322.312 45.4167 322.188 44H341V42C341 31.625 337.208 26.2708 329.625 25.9375C329.333 25.9375 329.062 25.9375 328.812 25.9375C324.271 25.9375 320.771 27.7708 318.312 31.4375C316.396 34.2708 315.438 37.8333 315.438 42.125C315.438 48.7917 317.521 53.5625 321.688 56.4375C324.021 58.0208 326.729 58.8125 329.812 58.8125C333.521 58.7708 337.042 57.7083 340.375 55.625ZM328.75 31C331.667 31 333.479 32.6667 334.188 36C334.354 36.9583 334.438 37.9792 334.438 39.0625L322.312 39.1875C322.938 34.5208 324.667 31.8333 327.5 31.125C327.917 31.0417 328.333 31 328.75 31ZM373 53.6875C371.583 53.8958 370.792 53.375 370.625 52.125C370.583 51.8333 370.562 51.5208 370.562 51.1875V36.75C370.562 31.75 368.896 28.4375 365.562 26.8125C364.312 26.2292 362.938 25.9375 361.438 25.9375C357.771 25.9792 354.917 27.6875 352.875 31.0625L352.75 26.75H346.5V58H353V41.4375C353 36.5208 354.312 33.3125 356.938 31.8125C357.771 31.3542 358.625 31.125 359.5 31.125C361.792 31.125 363.229 32.4583 363.812 35.125C363.979 35.8333 364.062 36.6042 364.062 37.4375V51.625C364.146 56.3333 366.312 58.7083 370.562 58.75C371.354 58.75 372.25 58.6458 373.25 58.4375L373 53.6875ZM395.875 56.4375L394.125 52.4375C392.833 53.1458 391.708 53.5 390.75 53.5C388.417 53.4167 387.229 51.7292 387.188 48.4375V31.625H394.062V26.75H387.188V18.3125H380.688V26.75H376.375V31.625H380.688V49.125C380.688 54.5833 382.667 57.75 386.625 58.625C387.333 58.75 388.042 58.8125 388.75 58.8125C391.042 58.7708 393.417 57.9792 395.875 56.4375Z" fill="#6366F1"/>
<line x1="434" y1="4.37114e-08" x2="434" y2="80" stroke="#737373" stroke-width="2"/>
<path d="M491.906 63.7188C496.115 63.7188 499.74 62.7708 502.781 60.875C505.823 58.9792 508.177 56.2917 509.844 52.8125C511.51 49.3333 512.344 45.2188 512.344 40.4688V40.4062C512.344 35.6562 511.51 31.5521 509.844 28.0938C508.177 24.6146 505.812 21.9271 502.75 20.0312C499.708 18.1354 496.083 17.1875 491.875 17.1875C487.708 17.1875 484.094 18.1354 481.031 20.0312C477.969 21.9271 475.594 24.6146 473.906 28.0938C472.24 31.5521 471.406 35.6562 471.406 40.4062V40.4688C471.406 45.2188 472.24 49.3333 473.906 52.8125C475.573 56.2917 477.938 58.9792 481 60.875C484.062 62.7708 487.698 63.7188 491.906 63.7188ZM491.906 59.7812C488.615 59.7812 485.75 58.9896 483.312 57.4062C480.896 55.8229 479.021 53.5833 477.688 50.6875C476.375 47.7917 475.719 44.3854 475.719 40.4688V40.4062C475.719 36.4479 476.375 33.0312 477.688 30.1562C479.021 27.2812 480.896 25.0625 483.312 23.5C485.75 21.9167 488.604 21.125 491.875 21.125C495.167 21.125 498.021 21.9167 500.438 23.5C502.854 25.0625 504.719 27.2917 506.031 30.1875C507.365 33.0625 508.031 36.4688 508.031 40.4062V40.4688C508.031 44.3646 507.375 47.7604 506.062 50.6562C504.75 53.5521 502.885 55.8021 500.469 57.4062C498.073 58.9896 495.219 59.7812 491.906 59.7812ZM518.625 63H522.75V42.875C522.75 41.0417 523.052 39.4479 523.656 38.0938C524.281 36.7396 525.156 35.6979 526.281 34.9688C527.427 34.2188 528.76 33.8438 530.281 33.8438C531.01 33.8438 531.646 33.8958 532.188 34C532.729 34.0833 533.135 34.1875 533.406 34.3125V30.2812C533.156 30.1979 532.802 30.1146 532.344 30.0312C531.885 29.9479 531.385 29.9062 530.844 29.9062C528.865 29.9062 527.177 30.4792 525.781 31.625C524.406 32.7708 523.427 34.3438 522.844 36.3438H522.75V30.5H518.625V63ZM553.469 63.5938C556.219 63.5938 558.625 62.8958 560.688 61.5C562.75 60.1042 564.354 58.1458 565.5 55.625C566.646 53.0833 567.219 50.125 567.219 46.75V46.7188C567.219 43.3229 566.635 40.375 565.469 37.875C564.323 35.3542 562.719 33.3958 560.656 32C558.615 30.6042 556.24 29.9062 553.531 29.9062C550.969 29.9062 548.698 30.5833 546.719 31.9375C544.76 33.2708 543.312 35.0625 542.375 37.3125H542.281V17.9062H538.156V63H542.281V56.125H542.375C543.333 58.4167 544.781 60.2396 546.719 61.5938C548.656 62.9271 550.906 63.5938 553.469 63.5938ZM552.688 59.9062C550.667 59.9062 548.865 59.3646 547.281 58.2812C545.719 57.1771 544.49 55.6354 543.594 53.6562C542.698 51.6562 542.25 49.3542 542.25 46.75V46.7188C542.25 44.1146 542.698 41.8229 543.594 39.8438C544.51 37.8646 545.75 36.3333 547.312 35.25C548.875 34.1458 550.677 33.5938 552.719 33.5938C554.802 33.5938 556.615 34.1354 558.156 35.2188C559.719 36.2812 560.917 37.8021 561.75 39.7812C562.604 41.7396 563.031 44.0521 563.031 46.7188V46.75C563.031 49.4167 562.604 51.7396 561.75 53.7188C560.917 55.6979 559.719 57.2292 558.156 58.3125C556.615 59.375 554.792 59.9062 552.688 59.9062ZM573.062 63H577.188V30.5H573.062V63ZM575.125 24.625C575.896 24.625 576.542 24.3646 577.062 23.8438C577.604 23.3021 577.875 22.6458 577.875 21.875C577.875 21.125 577.604 20.4896 577.062 19.9688C576.542 19.4271 575.896 19.1562 575.125 19.1562C574.375 19.1562 573.729 19.4271 573.188 19.9688C572.667 20.4896 572.406 21.125 572.406 21.875C572.406 22.6458 572.667 23.3021 573.188 23.8438C573.729 24.3646 574.375 24.625 575.125 24.625ZM594.312 63.5938C594.812 63.5938 595.302 63.5625 595.781 63.5C596.281 63.4583 596.688 63.4062 597 63.3438V60C596.771 60.0208 596.49 60.0521 596.156 60.0938C595.844 60.1146 595.51 60.125 595.156 60.125C593.635 60.125 592.49 59.7708 591.719 59.0625C590.969 58.3542 590.594 57.1042 590.594 55.3125V33.9688H597V30.5H590.594V21.7188H586.344V30.5H581.562V33.9688H586.344V55.375C586.344 58.2083 587 60.2917 588.312 61.625C589.646 62.9375 591.646 63.5938 594.312 63.5938ZM611.5 63.5938C613.104 63.5938 614.625 63.3229 616.062 62.7812C617.5 62.2188 618.771 61.4479 619.875 60.4688C620.979 59.4896 621.823 58.3438 622.406 57.0312H622.5V63H626.625V40.75C626.625 38.5417 626.125 36.625 625.125 35C624.146 33.375 622.75 32.125 620.938 31.25C619.146 30.3542 617.01 29.9062 614.531 29.9062C612.094 29.9062 609.969 30.3229 608.156 31.1562C606.344 31.9688 604.906 33.0938 603.844 34.5312C602.781 35.9688 602.146 37.625 601.938 39.5L601.906 39.875H605.875L605.938 39.5625C606.292 37.7083 607.208 36.25 608.688 35.1875C610.188 34.125 612.115 33.5938 614.469 33.5938C617.01 33.5938 618.979 34.2604 620.375 35.5938C621.792 36.9271 622.5 38.7708 622.5 41.125V50.7812C622.5 52.5104 622.042 54.0729 621.125 55.4688C620.229 56.8646 619.01 57.9688 617.469 58.7812C615.948 59.5729 614.229 59.9688 612.312 59.9688C610.125 59.9688 608.344 59.4271 606.969 58.3438C605.594 57.2396 604.906 55.7917 604.906 54V53.9375C604.906 52.1458 605.594 50.7292 606.969 49.6875C608.365 48.625 610.333 48 612.875 47.8125L624.562 47.0312V43.8125L612.375 44.5938C608.646 44.8229 605.771 45.75 603.75 47.375C601.729 48.9792 600.719 51.1667 600.719 53.9375V54C600.719 55.8958 601.167 57.5729 602.062 59.0312C602.979 60.4688 604.25 61.5938 605.875 62.4062C607.5 63.1979 609.375 63.5938 611.5 63.5938ZM633.844 63H637.969V17.9062H633.844V63ZM658.75 63H688.156V59.1875H663.281L664.656 60.5V57.5625L663.281 60.5L676.75 46.4688C679.417 43.7188 681.49 41.3958 682.969 39.5C684.448 37.6042 685.49 35.8958 686.094 34.375C686.698 32.8542 687 31.2917 687 29.6875V29.625C687 27.2917 686.396 25.1875 685.188 23.3125C684 21.4375 682.365 19.9479 680.281 18.8438C678.198 17.7396 675.812 17.1875 673.125 17.1875C670.417 17.1875 667.969 17.7604 665.781 18.9062C663.594 20.0312 661.844 21.5833 660.531 23.5625C659.24 25.5208 658.573 27.7604 658.531 30.2812V30.5625H662.656V30.3125C662.698 28.5417 663.177 26.9479 664.094 25.5312C665.01 24.1146 666.25 23 667.812 22.1875C669.396 21.3542 671.198 20.9375 673.219 20.9375C675.052 20.9375 676.688 21.3229 678.125 22.0938C679.562 22.8646 680.688 23.9167 681.5 25.25C682.333 26.5833 682.75 28.1042 682.75 29.8125V29.875C682.75 31.1875 682.521 32.4375 682.062 33.625C681.625 34.8125 680.823 36.1562 679.656 37.6562C678.51 39.1354 676.865 41 674.719 43.25L658.75 60V63ZM710 63.7188C713.396 63.7188 716.312 62.7812 718.75 60.9062C721.188 59.0104 723.052 56.3333 724.344 52.875C725.656 49.3958 726.312 45.2708 726.312 40.5V40.4062C726.312 35.6562 725.656 31.5417 724.344 28.0625C723.052 24.5833 721.188 21.9062 718.75 20.0312C716.312 18.1354 713.396 17.1875 710 17.1875C706.604 17.1875 703.688 18.1354 701.25 20.0312C698.833 21.9062 696.969 24.5833 695.656 28.0625C694.365 31.5208 693.719 35.6354 693.719 40.4062V40.5C693.719 45.25 694.365 49.3646 695.656 52.8438C696.969 56.3021 698.833 58.9792 701.25 60.875C703.688 62.7708 706.604 63.7188 710 63.7188ZM710 59.9688C707.479 59.9688 705.323 59.1771 703.531 57.5938C701.74 56.0104 700.365 53.7604 699.406 50.8438C698.469 47.9271 698 44.4792 698 40.5V40.4062C698 36.4271 698.469 32.9792 699.406 30.0625C700.365 27.1458 701.74 24.8958 703.531 23.3125C705.323 21.7292 707.479 20.9375 710 20.9375C712.521 20.9375 714.677 21.7292 716.469 23.3125C718.281 24.8958 719.667 27.1458 720.625 30.0625C721.583 32.9583 722.062 36.4062 722.062 40.4062V40.5C722.062 44.4792 721.583 47.9271 720.625 50.8438C719.667 53.7604 718.281 56.0104 716.469 57.5938C714.677 59.1771 712.521 59.9688 710 59.9688ZM732.5 63H761.906V59.1875H737.031L738.406 60.5V57.5625L737.031 60.5L750.5 46.4688C753.167 43.7188 755.24 41.3958 756.719 39.5C758.198 37.6042 759.24 35.8958 759.844 34.375C760.448 32.8542 760.75 31.2917 760.75 29.6875V29.625C760.75 27.2917 760.146 25.1875 758.938 23.3125C757.75 21.4375 756.115 19.9479 754.031 18.8438C751.948 17.7396 749.562 17.1875 746.875 17.1875C744.167 17.1875 741.719 17.7604 739.531 18.9062C737.344 20.0312 735.594 21.5833 734.281 23.5625C732.99 25.5208 732.323 27.7604 732.281 30.2812V30.5625H736.406V30.3125C736.448 28.5417 736.927 26.9479 737.844 25.5312C738.76 24.1146 740 23 741.562 22.1875C743.146 21.3542 744.948 20.9375 746.969 20.9375C748.802 20.9375 750.438 21.3229 751.875 22.0938C753.312 22.8646 754.438 23.9167 755.25 25.25C756.083 26.5833 756.5 28.1042 756.5 29.8125V29.875C756.5 31.1875 756.271 32.4375 755.812 33.625C755.375 34.8125 754.573 36.1562 753.406 37.6562C752.26 39.1354 750.615 41 748.469 43.25L732.5 60V63ZM768.5 63H797.906V59.1875H773.031L774.406 60.5V57.5625L773.031 60.5L786.5 46.4688C789.167 43.7188 791.24 41.3958 792.719 39.5C794.198 37.6042 795.24 35.8958 795.844 34.375C796.448 32.8542 796.75 31.2917 796.75 29.6875V29.625C796.75 27.2917 796.146 25.1875 794.938 23.3125C793.75 21.4375 792.115 19.9479 790.031 18.8438C787.948 17.7396 785.562 17.1875 782.875 17.1875C780.167 17.1875 777.719 17.7604 775.531 18.9062C773.344 20.0312 771.594 21.5833 770.281 23.5625C768.99 25.5208 768.323 27.7604 768.281 30.2812V30.5625H772.406V30.3125C772.448 28.5417 772.927 26.9479 773.844 25.5312C774.76 24.1146 776 23 777.562 22.1875C779.146 21.3542 780.948 20.9375 782.969 20.9375C784.802 20.9375 786.438 21.3229 787.875 22.0938C789.312 22.8646 790.438 23.9167 791.25 25.25C792.083 26.5833 792.5 28.1042 792.5 29.8125V29.875C792.5 31.1875 792.271 32.4375 791.812 33.625C791.375 34.8125 790.573 36.1562 789.406 37.6562C788.26 39.1354 786.615 41 784.469 43.25L768.5 60V63Z" fill="#171717"/>
</svg>
